<?xml version="1.0" encoding="utf-8"?>
<!-- Generator: Adobe Illustrator 15.0.0, SVG Export Plug-In . SVG Version: 6.00 Build 0)  -->
<!DOCTYPE svg PUBLIC "-//W3C//DTD SVG 1.1//EN" "http://www.w3.org/Graphics/SVG/1.1/DTD/svg11.dtd">
<svg version="1.1" id="picture" xmlns="http://www.w3.org/2000/svg" xmlns:xlink="http://www.w3.org/1999/xlink" x="0px" y="0px"
	 width="425.2px" height="283.46px" viewBox="0 0 425.2 283.46" enable-background="new 0 0 425.2 283.46" xml:space="preserve">
<g>
	
		<circle id="sun" fill="#FCEF46" stroke="#000000" stroke-width="0.75" stroke-linecap="round" stroke-linejoin="round" stroke-miterlimit="10" cx="390.143" cy="28.391" r="12.727"/>
</g>
<g id="buoy">
	
		<circle fill="#CF2C6F" stroke="#000000" stroke-width="0.5" stroke-linecap="round" stroke-linejoin="round" stroke-miterlimit="10" cx="339.39" cy="181.247" r="8.04"/>
	
		<polyline fill="none" stroke="#000000" stroke-width="0.5" stroke-linecap="round" stroke-linejoin="round" stroke-miterlimit="10" points="
		347.343,182.409 348.602,187.816 343.02,188.419 	"/>
	<path fill="none" stroke="#000000" stroke-width="0.5" stroke-linecap="round" stroke-linejoin="round" stroke-miterlimit="10" d="
		M348.268,186.381c0,0-1.562-0.312-1.266,1.551"/>
	
		<line fill="none" stroke="#000000" stroke-width="0.5" stroke-linecap="round" stroke-linejoin="round" stroke-miterlimit="10" x1="348.602" y1="187.816" x2="348.602" y2="283.46"/>
</g>
<g id="boat">
	
		<path fill="#EE274A" stroke="#000000" stroke-width="0.75" stroke-linecap="round" stroke-linejoin="round" stroke-miterlimit="10" d="
		M69.523,208.416c0,0,93.75,3.875,151.25-1.375c0,0,2.5,5.25-24.375,12s-33.625,7.875-39.125,13.25s-7.625,5.625-17.25,6.75
		s-14.352,2.436-17.359-1.464c-3.859-5.004-11.537-14.383-15.391-16.036c-12.024-5.159-32.25-8.125-32.25-8.125
		S66.398,208.416,69.523,208.416z"/>
	
		<path fill="#FFFFFF" stroke="#000000" stroke-width="0.75" stroke-linecap="round" stroke-linejoin="round" stroke-miterlimit="10" d="
		M105.898,220.975c0,0-2.6,16.15,17.638,17.546c0,0-6.614-7.948-8.873-10.551C109.085,221.543,105.898,220.975,105.898,220.975z"/>
	
		<path fill="none" stroke="#000000" stroke-width="0.75" stroke-linecap="round" stroke-linejoin="round" stroke-miterlimit="10" d="
		M82.523,210.708c0,0,72,3.167,127-1.333"/>
	
		<path fill="none" stroke="#000000" stroke-width="0.75" stroke-linecap="round" stroke-linejoin="round" stroke-miterlimit="10" d="
		M95.148,208.207c0,0,5.542-1.207,8.75-1.166l0.25,1.166c0,0,32.291-0.25,34.083-0.333s1.917-1.333,2.25-2s-0.042-1.042,5.542-0.875
		s16.916,1.582,17.833,3.208s-0.209,1.434-0.209,1.434"/>
	
		<line fill="#FFFFFF" stroke="#000000" stroke-width="0.75" stroke-linecap="round" stroke-linejoin="round" stroke-miterlimit="10" x1="140.211" y1="207.041" x2="161.312" y2="207.041"/>
	
		<path fill="#FFFFFF" stroke="#000000" stroke-width="0.75" stroke-linecap="round" stroke-linejoin="round" stroke-miterlimit="10" d="
		M152.523,28.291c0,0,2.75-0.25,3.75,2.503c1,2.753,11.75,178.811,11.75,178.811h-2c0,0-10.5-177.56-10.75-178.811
		c-0.25-1.252-2.126-1.252-2.542-1.252S152.523,28.291,152.523,28.291z"/>
	
		<path fill="#3F59A8" stroke="#000000" stroke-width="0.75" stroke-linecap="round" stroke-linejoin="round" stroke-miterlimit="10" d="
		M155.453,33.279c0,0-0.262-1.945-1.783,1.783s-42.813,110.646-46.813,157.146l58.284,2.483L155.453,33.279z"/>
	
		<path fill="#3F59A8" stroke="#000000" stroke-width="0.75" stroke-linecap="round" stroke-linejoin="round" stroke-miterlimit="10" d="
		M160.525,90.041c0,0,37.331,112.336,37.831,114.918s-2.646,2.457-4.708,2.77s-25.625,1.877-25.625,1.877L160.525,90.041z"/>
	
		<line fill="#FFFFFF" stroke="#000000" stroke-width="0.75" stroke-linecap="round" stroke-linejoin="round" stroke-miterlimit="10" x1="152.731" y1="29.542" x2="77.356" y2="209.647"/>
	
		<line fill="#FFFFFF" stroke="#000000" stroke-width="0.75" stroke-linecap="round" stroke-linejoin="round" stroke-miterlimit="10" x1="160.861" y1="91.053" x2="84.648" y2="208.927"/>
	
		<path fill="#FFFFFF" stroke="#000000" stroke-width="0.75" stroke-linecap="round" stroke-linejoin="round" stroke-miterlimit="10" d="
		M143.586,62.019l8.885,3.897c0,0,0.884,0.583,0.26,1.542s-1.937,0.271-1.937,0.271l-7.944-3.675"/>
	
		<path fill="#FFFFFF" stroke="#000000" stroke-width="0.75" stroke-linecap="round" stroke-linejoin="round" stroke-miterlimit="10" d="
		M112.998,159.091l9.449,2.2c0,0,0.977,0.41,0.539,1.468s-1.854,0.622-1.854,0.622l-8.483-2.154"/>
	
		<path fill="#FFFFFF" stroke="#000000" stroke-width="0.75" stroke-linecap="round" stroke-linejoin="round" stroke-miterlimit="10" d="
		M132.728,93.305l13.767,4.382c0,0,0.884,0.583,0.26,1.542s-1.937,0.271-1.937,0.271l-12.826-4.159"/>
	
		<path fill="#FFFFFF" stroke="#000000" stroke-width="0.75" stroke-linecap="round" stroke-linejoin="round" stroke-miterlimit="10" d="
		M122.607,124.792l13.767,4.382c0,0,0.884,0.583,0.26,1.542s-1.937,0.271-1.937,0.271l-12.826-4.159"/>
	
		<path fill="#FFFFFF" stroke="#000000" stroke-width="0.75" stroke-linecap="round" stroke-linejoin="round" stroke-miterlimit="10" d="
		M165.141,195.291c0,0-57.451-2.333-58.867-2.333s-0.917,1.917,0,2s58.867,2.5,58.867,2.5V195.291z"/>
	<text transform="matrix(0.9562 0.2926 -0.2926 0.9562 140.2139 77.3301)"><tspan x="0" y="0" fill="#FFFFFF" stroke="#000000" stroke-width="0.75" stroke-linecap="round" stroke-linejoin="round" stroke-miterlimit="10" font-family="'Helvetica-Bold'" font-size="12">A</tspan><tspan x="0" y="14.4" fill="#FFFFFF" stroke="#000000" stroke-width="0.75" stroke-linecap="round" stroke-linejoin="round" stroke-miterlimit="10" font-family="'Helvetica-Bold'" font-size="12">B</tspan><tspan x="0" y="31.4" fill="#FFFFFF" stroke="#000000" stroke-width="0.75" stroke-linecap="round" stroke-linejoin="round" stroke-miterlimit="10" font-family="'Helvetica-Bold'" font-size="12">C</tspan></text>
</g>
</svg>
