<?xml version="1.0" encoding="utf-8"?>
<!-- Generator: Adobe Illustrator 15.0.0, SVG Export Plug-In  -->
<!DOCTYPE svg PUBLIC "-//W3C//DTD SVG 1.1//EN" "http://www.w3.org/Graphics/SVG/1.1/DTD/svg11.dtd" [
	<!ENTITY ns_flows "http://ns.adobe.com/Flows/1.0/">
]>
<svg version="1.1"
	 xmlns="http://www.w3.org/2000/svg" xmlns:xlink="http://www.w3.org/1999/xlink" xmlns:a="http://ns.adobe.com/AdobeSVGViewerExtensions/3.0/"
	 x="0px" y="0px" width="425px" height="283px" viewBox="0.375 -15.288 425 283"
	 overflow="visible" enable-background="new 0.375 -15.288 425 283" xml:space="preserve">
<defs>
</defs>
<circle id="sun_1_" fill="#FCEF46" stroke="#000000" stroke-width="0.75" stroke-linecap="round" stroke-linejoin="round" stroke-miterlimit="10" cx="390.518" cy="13.103" r="12.727"/>
<line id="sea_1_" fill="#FFFFFF" stroke="#000000" stroke-width="0.75" stroke-linecap="round" stroke-linejoin="round" stroke-miterlimit="10" x1="0.375" y1="208.329" x2="425.575" y2="208.329"/>
<circle fill="#CF2C6F" stroke="#000000" stroke-width="0.5" stroke-linecap="round" stroke-linejoin="round" stroke-miterlimit="10" cx="339.765" cy="199.999" r="8.04"/>
<polyline fill="none" stroke="#000000" stroke-width="0.5" stroke-linecap="round" stroke-linejoin="round" stroke-miterlimit="10" points="
	347.718,201.161 348.977,206.568 343.395,207.171 "/>
<path fill="none" stroke="#000000" stroke-width="0.5" stroke-linecap="round" stroke-linejoin="round" stroke-miterlimit="10" d="
	M348.643,205.133c0,0-1.562-0.312-1.266,1.551"/>
<line fill="none" stroke="#000000" stroke-width="0.5" stroke-linecap="round" stroke-linejoin="round" stroke-miterlimit="10" x1="348.977" y1="206.568" x2="348.977" y2="302.212"/>
<path fill="#EE274A" stroke="#000000" stroke-width="0.75" stroke-linecap="round" stroke-linejoin="round" stroke-miterlimit="10" d="
	M69.898,193.128c0,0,93.75,3.875,151.25-1.375c0,0,2.5,5.25-24.375,12s-33.625,7.875-39.125,13.25s-7.625,5.625-17.25,6.75
	s-14.352,2.436-17.359-1.464c-3.859-5.004-11.537-14.383-15.391-16.036c-12.024-5.159-32.25-8.125-32.25-8.125
	S66.773,193.128,69.898,193.128z"/>
<path fill="#FFFFFF" stroke="#000000" stroke-width="0.75" stroke-linecap="round" stroke-linejoin="round" stroke-miterlimit="10" d="
	M106.273,205.687c0,0-2.6,16.15,17.638,17.546c0,0-6.614-7.948-8.873-10.551C109.46,206.255,106.273,205.687,106.273,205.687z"/>
<path fill="none" stroke="#000000" stroke-width="0.75" stroke-linecap="round" stroke-linejoin="round" stroke-miterlimit="10" d="
	M82.898,195.42c0,0,72,3.167,127-1.333"/>
<path fill="none" stroke="#000000" stroke-width="0.75" stroke-linecap="round" stroke-linejoin="round" stroke-miterlimit="10" d="
	M95.523,192.919c0,0,5.542-1.207,8.75-1.166l0.25,1.166c0,0,32.291-0.25,34.083-0.333s1.917-1.333,2.25-2s-0.042-1.042,5.542-0.875
	s16.916,1.582,17.833,3.208s-0.209,1.434-0.209,1.434"/>
<line fill="#FFFFFF" stroke="#000000" stroke-width="0.75" stroke-linecap="round" stroke-linejoin="round" stroke-miterlimit="10" x1="140.586" y1="191.753" x2="161.688" y2="191.753"/>
<path fill="#FFFFFF" stroke="#000000" stroke-width="0.75" stroke-linecap="round" stroke-linejoin="round" stroke-miterlimit="10" d="
	M152.898,13.003c0,0,2.75-0.25,3.75,2.503c1,2.753,11.75,178.811,11.75,178.811h-2c0,0-10.5-177.56-10.75-178.811
	c-0.25-1.252-2.126-1.252-2.542-1.252S152.898,13.003,152.898,13.003z"/>
<path fill="#3F59A8" stroke="#000000" stroke-width="0.75" stroke-linecap="round" stroke-linejoin="round" stroke-miterlimit="10" d="
	M155.828,17.991c0,0-0.262-1.945-1.783,1.783S111.232,130.42,107.232,176.92l58.284,2.483L155.828,17.991z"/>
<path fill="#3F59A8" stroke="#000000" stroke-width="0.75" stroke-linecap="round" stroke-linejoin="round" stroke-miterlimit="10" d="
	M160.9,74.753c0,0,37.331,112.336,37.831,114.918s-2.646,2.457-4.708,2.77s-25.625,1.877-25.625,1.877L160.9,74.753z"/>
<line fill="#FFFFFF" stroke="#000000" stroke-width="0.75" stroke-linecap="round" stroke-linejoin="round" stroke-miterlimit="10" x1="153.106" y1="14.254" x2="77.731" y2="194.359"/>
<line fill="#FFFFFF" stroke="#000000" stroke-width="0.75" stroke-linecap="round" stroke-linejoin="round" stroke-miterlimit="10" x1="161.236" y1="75.765" x2="85.023" y2="193.639"/>
<path fill="#FFFFFF" stroke="#000000" stroke-width="0.75" stroke-linecap="round" stroke-linejoin="round" stroke-miterlimit="10" d="
	M143.961,46.73l8.885,3.897c0,0,0.884,0.583,0.26,1.542s-1.937,0.271-1.937,0.271l-7.944-3.675"/>
<path fill="#FFFFFF" stroke="#000000" stroke-width="0.75" stroke-linecap="round" stroke-linejoin="round" stroke-miterlimit="10" d="
	M113.373,143.803l9.449,2.2c0,0,0.977,0.41,0.539,1.468s-1.854,0.622-1.854,0.622l-8.483-2.154"/>
<path fill="#FFFFFF" stroke="#000000" stroke-width="0.75" stroke-linecap="round" stroke-linejoin="round" stroke-miterlimit="10" d="
	M133.103,78.017l13.767,4.382c0,0,0.884,0.583,0.26,1.542s-1.937,0.271-1.937,0.271l-12.826-4.159"/>
<path fill="#FFFFFF" stroke="#000000" stroke-width="0.75" stroke-linecap="round" stroke-linejoin="round" stroke-miterlimit="10" d="
	M122.982,109.503l13.767,4.382c0,0,0.884,0.583,0.26,1.542s-1.937,0.271-1.937,0.271l-12.826-4.159"/>
<path fill="#FFFFFF" stroke="#000000" stroke-width="0.75" stroke-linecap="round" stroke-linejoin="round" stroke-miterlimit="10" d="
	M165.516,180.003c0,0-57.451-2.333-58.867-2.333s-0.917,1.917,0,2s58.867,2.5,58.867,2.5V180.003z"/>
<text transform="matrix(0.9562 0.2926 -0.2926 0.9562 140.5889 62.042)"><tspan x="0" y="0" fill="#FFFFFF" stroke="#000000" stroke-width="0.75" stroke-linecap="round" stroke-linejoin="round" stroke-miterlimit="10" font-family="'Helvetica-Bold'" font-size="12">A</tspan><tspan x="0" y="14.4" fill="#FFFFFF" stroke="#000000" stroke-width="0.75" stroke-linecap="round" stroke-linejoin="round" stroke-miterlimit="10" font-family="'Helvetica-Bold'" font-size="12">B</tspan><tspan x="0" y="31.4" fill="#FFFFFF" stroke="#000000" stroke-width="0.75" stroke-linecap="round" stroke-linejoin="round" stroke-miterlimit="10" font-family="'Helvetica-Bold'" font-size="12">C</tspan></text>
</svg>
