<?xml version="1.0" encoding="utf-8"?>
<!-- Generator: Adobe Illustrator 18.1.1, SVG Export Plug-In . SVG Version: 6.00 Build 0)  -->
<svg version="1.1" xmlns="http://www.w3.org/2000/svg" xmlns:xlink="http://www.w3.org/1999/xlink" x="0px" y="0px"
	 viewBox="0 0 600 600" enable-background="new 0 0 600 600" xml:space="preserve">
<g id="shadow">
	<path fill="#000030" d="M544,36.6c0-8-6.5-14.6-14.6-14.6H91.6c-8,0-14.6,6.5-14.6,14.6v546.9c0,8,6.5,14.6,14.6,14.6h437.9
		c8,0,14.6-6.5,14.6-14.6V36.6z"/>
	<rect x="80.9" y="102" fill="#FFFFFF" width="212.7" height="226.1"/>
	<rect x="285.7" y="107.4" fill="#FFFFFF" width="212.7" height="305"/>
	<path fill="none" stroke="#000030" stroke-width="2" stroke-linecap="round" stroke-linejoin="round" stroke-miterlimit="10" d="
		M291.3,206.9L93.7,252.4"/>
	<path fill="none" stroke="#000030" stroke-width="2" stroke-linecap="round" stroke-linejoin="round" stroke-miterlimit="10" d="
		M93.7,307.4l197.6-45.5"/>
	<path fill="none" stroke="#000030" stroke-width="2" stroke-linecap="round" stroke-linejoin="round" stroke-miterlimit="10" d="
		M291.3,161.9L93.7,207.5"/>
	<path fill="none" stroke="#000030" stroke-width="2" stroke-linecap="round" stroke-linejoin="round" stroke-miterlimit="10" d="
		M425.3,261.2c0,17.5-14.2,31.8-31.8,31.8c-17.5,0-31.8-14.2-31.8-31.8s14.2-31.8,31.8-31.8C411.1,229.4,425.3,243.6,425.3,261.2z"
		/>
	<path fill="none" stroke="#000030" stroke-width="2" stroke-linecap="round" stroke-linejoin="round" stroke-miterlimit="10" d="
		M407.1,261.2c0,7.5-6.1,13.6-13.6,13.6c-7.5,0-13.6-6.1-13.6-13.6c0-7.5,6.1-13.6,13.6-13.6C401,247.6,407.1,253.7,407.1,261.2z"/>
	<path fill="none" stroke="#000030" stroke-width="2" stroke-linecap="round" stroke-linejoin="round" stroke-miterlimit="10" d="
		M460.5,261.2c0,37-30,67-67,67s-67-30-67-67s30-67,67-67S460.5,224.2,460.5,261.2z"/>
	<path fill="none" stroke="#000030" stroke-width="2" stroke-linecap="round" stroke-linejoin="round" stroke-miterlimit="10" d="
		M293.6,189.2c26-16.9,61.2-27.3,99.9-27.3c39.3,0,74.9,10.7,101,28"/>
	<path fill="none" stroke="#000030" stroke-width="2" stroke-linecap="round" stroke-linejoin="round" stroke-miterlimit="10" d="
		M492,333.9c-25.9,16.4-60.5,26.4-98.6,26.4c-38.1,0-72.7-10-98.5-26.4"/>
</g>
<g id="illustration">
	<g>
		<g>
			
				<path fill="#FFFFFF" stroke="#000030" stroke-width="5" stroke-linecap="round" stroke-linejoin="round" stroke-miterlimit="10" d="
				M512.2,4.6H74.3c-8,0-14.6,6.5-14.6,14.6v547.5c0,8,6.5,14.6,14.6,14.6h437.9c8,0,14.6-6.5,14.6-14.6V19.2
				C526.8,11.1,520.3,4.6,512.2,4.6z M273.3,305.6H109.6V141.9h163.8V305.6z M475.4,398.1H311.6V141.9h163.8V398.1z"/>
			
				<line fill="none" stroke="#000030" stroke-width="5" stroke-linecap="round" stroke-linejoin="round" stroke-miterlimit="10" x1="60" y1="40.5" x2="526" y2="40.5"/>
			<path fill="none" stroke="#000030" stroke-width="2" stroke-miterlimit="10" d="M88.7,22.3c0,4.3-3.5,7.9-7.9,7.9
				S73,26.7,73,22.3s3.5-7.9,7.9-7.9S88.7,18,88.7,22.3z"/>
			<path fill="none" stroke="#000030" stroke-width="2" stroke-miterlimit="10" d="M111.7,22.3c0,4.3-3.5,7.9-7.9,7.9
				S96,26.7,96,22.3s3.5-7.9,7.9-7.9S111.7,18,111.7,22.3z"/>
			<path fill="none" stroke="#000030" stroke-width="2" stroke-miterlimit="10" d="M134.7,22.3c0,4.3-3.5,7.9-7.9,7.9
				s-7.9-3.5-7.9-7.9s3.5-7.9,7.9-7.9S134.7,18,134.7,22.3z"/>
			<g>
				
					<path fill="none" stroke="#000030" stroke-width="9" stroke-linecap="round" stroke-linejoin="round" stroke-miterlimit="10" d="
					M112,347.5h154"/>
				
					<path fill="none" stroke="#000030" stroke-width="9" stroke-linecap="round" stroke-linejoin="round" stroke-miterlimit="10" d="
					M112,371.5h161"/>
				
					<path fill="none" stroke="#000030" stroke-width="9" stroke-linecap="round" stroke-linejoin="round" stroke-miterlimit="10" d="
					M112,395.5h131"/>
				
					<path fill="none" stroke="#000030" stroke-width="9" stroke-linecap="round" stroke-linejoin="round" stroke-miterlimit="10" d="
					M112,426.5h358"/>
				
					<path fill="none" stroke="#000030" stroke-width="9" stroke-linecap="round" stroke-linejoin="round" stroke-miterlimit="10" d="
					M112,449.5h351"/>
				
					<path fill="none" stroke="#000030" stroke-width="9" stroke-linecap="round" stroke-linejoin="round" stroke-miterlimit="10" d="
					M112,472.5h361"/>
				
					<path fill="none" stroke="#000030" stroke-width="9" stroke-linecap="round" stroke-linejoin="round" stroke-miterlimit="10" d="
					M112,495.5h334"/>
				
					<path fill="none" stroke="#000030" stroke-width="9" stroke-linecap="round" stroke-linejoin="round" stroke-miterlimit="10" d="
					M112,518.5h143"/>
			</g>
			<path fill="#000030" d="M466,114.2H121.2c-8.2,0-14.8-6.6-14.8-14.8v-7.7c0-8.2,6.6-14.8,14.8-14.8H466c8.2,0,14.8,6.6,14.8,14.8
				v7.7C480.8,107.6,474.2,114.2,466,114.2z"/>
			<path fill="#FFFFFF" d="M288.3,101.5c0,1,0.1,1.8,0.3,2.4c0.2,0.5,0.6,1.1,1.2,1.6c0.6,0.5,1.3,0.9,2.1,1.1
				c0.8,0.3,1.7,0.4,2.8,0.4c0.9,0,1.8-0.1,2.6-0.3c0.8-0.2,1.7-0.5,2.7-1v-3.6c-1.1,0.8-2.3,1.1-3.5,1.1c-0.7,0-1.2-0.2-1.7-0.5
				c-0.4-0.2-0.6-0.5-0.8-0.9c-0.1-0.4-0.2-1.2-0.2-2.6v-5.9h5.4v-3.6h-5.4v-5.8h-3.2c-0.1,1.2-0.4,2.1-0.8,2.9s-0.9,1.4-1.5,2
				c-0.6,0.5-1.4,1-2.3,1.3v3.3h2.5V101.5z"/>
		</g>
	</g>
</g>
<g id="outline">
	<path fill="#000030" d="M512.2,583.7H74.3c-9.4,0-17.1-7.7-17.1-17.1V19.2c0-9.4,7.7-17.1,17.1-17.1h437.9
		c9.4,0,17.1,7.7,17.1,17.1v547.5C529.3,576.1,521.6,583.7,512.2,583.7z M74.3,7.1c-6.6,0-12.1,5.4-12.1,12.1v547.5
		c0,6.6,5.4,12.1,12.1,12.1h437.9c6.6,0,12.1-5.4,12.1-12.1V19.2c0-6.6-5.4-12.1-12.1-12.1H74.3z"/>
</g>
</svg>
