<?xml version="1.0" encoding="utf-8"?>
<!-- Generator: Adobe Illustrator 18.1.1, SVG Export Plug-In . SVG Version: 6.00 Build 0)  -->
<svg version="1.1" id="Layer_1" xmlns="http://www.w3.org/2000/svg" xmlns:xlink="http://www.w3.org/1999/xlink" x="0px" y="0px"
	 viewBox="-252.5 -285 600 600" enable-background="new -252.5 -285 600 600" xml:space="preserve">
<g id="illustration">
	
		<path fill="#FFFFFF" stroke="#000030" stroke-width="5" stroke-linecap="round" stroke-linejoin="round" stroke-miterlimit="10" d="
		M-18.5-123.5v61h73v-61H-18.5z"/>
	<path fill="#000030" d="M57.5-88.8c0,0-18-3.9-40.3-3.9c-25.5,0-36.1,3.9-36.1,3.9v-24.1h76.4V-88.8z"/>
	<g>
		<g>
			<g>
				
					<path fill="#FFFFFF" stroke="#000030" stroke-width="5" stroke-linecap="round" stroke-linejoin="round" stroke-miterlimit="10" d="
					M280.9-47.9c0,9.7,0,20.8,0,20.8H176.2c0,0,0-15.4,0-20.5c0-51.8-122.9-55.6-152.5-56.9H13.6c-30.4,1.4-153.2,5.1-153.2,56.9
					c0,5.2,0,20.5,0,20.5h-105.2c0,0,0-11.1,0-20.8c0,1.5-6.2-63.2,59.4-75.4c57.6-10.7,171.8-12.5,199-12.8v-0.1h10.2v0.1
					c27,0.3,140.8,2.1,198,12.8C287.1-111.1,280.9-46.4,280.9-47.9z"/>
				
					<path fill="none" stroke="#000030" stroke-width="5" stroke-linecap="round" stroke-linejoin="round" stroke-miterlimit="10" d="
					M-140.5-47.9h-104"/>
				
					<path fill="none" stroke="#000030" stroke-width="5" stroke-linecap="round" stroke-linejoin="round" stroke-miterlimit="10" d="
					M280.6-47.9h-103"/>
				
					<path fill="none" stroke="#000030" stroke-width="5" stroke-linecap="round" stroke-linejoin="round" stroke-miterlimit="10" d="
					M-139.4-50.7c0,0,1.1-62.5,160.1-62.5h-4.5C175.8-113.3,176-51,176-51"/>
			</g>
			
				<path fill="#FFFFFF" stroke="#000030" stroke-width="5" stroke-linecap="round" stroke-linejoin="round" stroke-miterlimit="10" d="
				M253.2,146.1h-459.8c0,0,4.3-109.5,73.4-144.7C-63.9-33.6-56-116.8-56-116.8h20.2v41H75.5v-41h21.2c0,0,8.8,83.1,80.7,118.3
				C249.4,36.5,253.2,146.1,253.2,146.1z"/>
			
				<path fill="#FFFFFF" stroke="#000030" stroke-width="5" stroke-linecap="round" stroke-linejoin="round" stroke-miterlimit="10" d="
				M253.2,166.1h-459.8V146h459.8V166.1z"/>
		</g>
		<g>
			
				<path fill="none" stroke="#000030" stroke-width="4.7179" stroke-linecap="round" stroke-linejoin="round" stroke-miterlimit="10" d="
				M340.4,26.8c0,0,12.8,35.9-28,35.9c-27,0-16-21.9,8.6-21.9c11.4,0,17,8.9,19.4,18.7"/>
			<path fill="none" stroke="#000030" stroke-width="5" stroke-linecap="round" stroke-linejoin="round" stroke-miterlimit="10" d="
				M281.1-33.5c53.9,0,59.3,27.6,59.3,27.6s12.7,35.8-28.1,35.8c-27,0-16-21.9,8.6-21.9c11.4,0,17,8.9,19.4,18.7"/>
			<path fill="none" stroke="#000030" stroke-width="5" stroke-linecap="round" stroke-linejoin="round" stroke-miterlimit="10" d="
				M340.2,93.2c0,0,12.8,36-28,36c-27,0-16-21.8,8.7-21.8c11.4,0,17,8.7,19.4,18.5c0,0,1.9,25.5-29,25.5c-6.5,0-57.6-2-57.6,0"/>
			
				<path fill="none" stroke="#000030" stroke-width="4.7179" stroke-linecap="round" stroke-linejoin="round" stroke-miterlimit="10" d="
				M340.4,60.7c0,0,12.8,35.9-28,35.9c-27,0-16-21.9,8.6-21.9c11.4,0,17,8.9,19.4,18.7"/>
		</g>
	</g>
</g>
<g id="shadow">
	<circle fill="#000030" cx="29.2" cy="46.9" r="91.9"/>
</g>
<g id="illustration_2">
	<g>
		
			<path fill="#FFFFFF" stroke="#000030" stroke-width="5" stroke-linecap="round" stroke-linejoin="round" stroke-miterlimit="10" d="
			M20.1-54.2C70.9-54.2,112-13,112,37.7s-41.2,91.9-91.9,91.9s-91.9-41.2-91.9-91.9S-30.7-54.2,20.1-54.2z"/>
		<path fill="#FFFFFF" stroke="#000030" stroke-linecap="round" stroke-linejoin="round" stroke-miterlimit="10" d="M33.3-29.3
			c0,7.3-5.9,13.2-13.2,13.2c-7.3,0-13.2-5.9-13.2-13.2s5.9-13.2,13.2-13.2C27.4-42.5,33.3-36.6,33.3-29.3z M33.3,105.2
			c0,7.3-5.9,13.2-13.2,13.2c-7.3,0-13.2-5.9-13.2-13.2c0-7.3,5.9-13.2,13.2-13.2C27.4,92,33.3,97.9,33.3,105.2z"/>
		<path fill="#FFFFFF" stroke="#000030" stroke-linecap="round" stroke-linejoin="round" stroke-miterlimit="10" d="M65.2,89.6
			c3.7,6.3,1.5,14.4-4.9,18c-6.3,3.7-14.4,1.5-18-4.9c-3.7-6.3-1.5-14.4,4.9-18C53.5,81.1,61.5,83.3,65.2,89.6z"/>
		<path fill="#FFFFFF" stroke="#000030" stroke-linecap="round" stroke-linejoin="round" stroke-miterlimit="10" d="M-31.5-7.1
			c6.3,3.7,8.5,11.7,4.9,18c-3.7,6.3-11.7,8.5-18,4.9s-8.5-11.7-4.9-18C-46-8.6-37.9-10.8-31.5-7.1z M85,60.1
			c6.3,3.7,8.5,11.7,4.9,18c-3.7,6.3-11.7,8.5-18,4.9c-6.3-3.7-8.5-11.7-4.9-18C70.5,58.6,78.7,56.5,85,60.1z"/>
		<path fill="#FFFFFF" stroke="#000030" stroke-linecap="round" stroke-linejoin="round" stroke-miterlimit="10" d="M-47.2,24.8
			c7.3,0,13.2,5.9,13.2,13.2s-5.9,13.2-13.2,13.2c-7.3,0-13.2-5.9-13.2-13.2S-54.5,24.8-47.2,24.8z M87.4,24.8
			c7.3,0,13.2,5.9,13.2,13.2s-5.9,13.2-13.2,13.2c-7.3,0-13.2-5.9-13.2-13.2S80,24.8,87.4,24.8z"/>
		<path fill="#FFFFFF" stroke="#000030" stroke-linecap="round" stroke-linejoin="round" stroke-miterlimit="10" d="M-44.8,60.1
			c6.3-3.7,14.4-1.5,18,4.9s1.5,14.4-4.9,18c-6.3,3.7-14.4,1.5-18-4.9C-53.2,71.8-51,63.8-44.8,60.1z M71.7-7.1
			c6.3-3.7,14.4-1.5,18,4.9s1.5,14.4-4.9,18s-14.4,1.5-18-4.9C63.3,4.5,65.5-3.5,71.7-7.1z"/>
		<path fill="#FFFFFF" stroke="#000030" stroke-linecap="round" stroke-linejoin="round" stroke-miterlimit="10" d="M-25,89.6
			c3.7-6.3,11.7-8.5,18-4.9c6.3,3.7,8.5,11.7,4.9,18c-3.7,6.3-11.7,8.5-18,4.9C-26.5,104-28.7,95.9-25,89.6z M42.3-27
			c3.7-6.3,11.7-8.5,18-4.9c6.3,3.7,8.5,11.7,4.9,18c-3.7,6.3-11.7,8.5-18,4.9C40.8-12.5,38.6-20.6,42.3-27z"/>
		<path fill="#FFFFFF" stroke="#000030" stroke-linecap="round" stroke-linejoin="round" stroke-miterlimit="10" d="M34.9-27.9
			c0,7.3-5.9,13.2-13.2,13.2c-7.3,0-13.2-5.9-13.2-13.2c0-7.3,5.9-13.2,13.2-13.2C28.9-41,34.9-35.1,34.9-27.9z M34.9,106.7
			c0,7.3-5.9,13.2-13.2,13.2c-7.3,0-13.2-5.9-13.2-13.2c0-7.3,5.9-13.2,13.2-13.2S34.9,99.5,34.9,106.7z"/>
		<path fill="#FFFFFF" stroke="#000030" stroke-linecap="round" stroke-linejoin="round" stroke-miterlimit="10" d="M66.7,91.1
			c3.7,6.3,1.5,14.4-4.9,18s-14.4,1.5-18-4.9c-3.7-6.3-1.5-14.4,4.9-18C55,82.6,63,84.8,66.7,91.1z"/>
		<path fill="#FFFFFF" stroke="#000030" stroke-linecap="round" stroke-linejoin="round" stroke-miterlimit="10" d="M-30-5.7
			c6.3,3.7,8.5,11.7,4.9,18c-3.7,6.3-11.7,8.5-18,4.9s-8.5-11.7-4.9-18C-44.4-7.1-36.4-9.2-30-5.7z M86.5,61.6
			c6.3,3.7,8.5,11.7,4.9,18c-3.7,6.3-11.7,8.5-18,4.9c-6.3-3.7-8.5-11.7-4.9-18C72.1,60.1,80.1,58,86.5,61.6z"/>
		<path fill="#FFFFFF" stroke="#000030" stroke-linecap="round" stroke-linejoin="round" stroke-miterlimit="10" d="M-45.7,26.2
			c7.3,0,13.2,5.9,13.2,13.2s-5.9,13.2-13.2,13.2s-13.2-5.9-13.2-13.2S-52.9,26.2-45.7,26.2z M88.9,26.2c7.3,0,13.2,5.9,13.2,13.2
			s-5.9,13.2-13.2,13.2c-7.3,0-13.2-5.9-13.2-13.2S81.6,26.2,88.9,26.2z"/>
		<path fill="#FFFFFF" stroke="#000030" stroke-linecap="round" stroke-linejoin="round" stroke-miterlimit="10" d="M-43.2,61.6
			c6.3-3.7,14.4-1.5,18,4.9s1.5,14.4-4.9,18s-14.4,1.5-18-4.9C-51.7,73.4-49.6,65.3-43.2,61.6z M73.3-5.7c6.3-3.7,14.4-1.5,18,4.9
			c3.7,6.3,1.5,14.4-4.9,18s-14.4,1.5-18-4.9C64.8,6.1,67-2,73.3-5.7z"/>
		<path fill="#FFFFFF" stroke="#000030" stroke-linecap="round" stroke-linejoin="round" stroke-miterlimit="10" d="M-23.5,91.1
			c3.7-6.3,11.7-8.5,18-4.9s8.5,11.7,4.9,18c-3.7,6.3-11.7,8.5-18,4.9S-27.1,97.4-23.5,91.1z M43.8-25.4c3.7-6.3,11.7-8.5,18-4.9
			c6.3,3.7,8.5,11.7,4.9,18C63-5.9,55-3.7,48.6-7.3C42.3-11,40.1-19.1,43.8-25.4z"/>
	</g>
	
		<path fill="#FFFFFF" stroke="#000030" stroke-width="5" stroke-linecap="round" stroke-linejoin="round" stroke-miterlimit="10" d="
		M19.5,31.9c3.4,0,6.1,2.8,6.1,6.1s-2.8,6.1-6.1,6.1s-6.1-2.8-6.1-6.1S16.1,31.9,19.5,31.9z"/>
	
		<path fill="#FFFFFF" stroke="#000030" stroke-width="5" stroke-linecap="round" stroke-linejoin="round" stroke-miterlimit="10" d="
		M-1.1-6.5l-6.3,4l-25-39.9l6.3-4L-1.1-6.5z"/>
</g>
<g id="outline">
	<path fill="#000030" d="M253.3,168.6h-459.7c-1.4,0-2.5-1.1-2.5-2.5v-20c0-0.4,1.2-28.2,10.8-59.9c12.9-42.3,35-72.4,63.9-87.1
		C-89-23.8-70.4-68-63-94.6c-49.2,8.8-74.1,24.7-74.1,47.1v20.5c0,1.4-1.1,2.5-2.5,2.5h-105.2c-1.4,0-2.5-1.1-2.5-2.5v-20.6
		c0-0.1,0-0.1,0-0.2c-0.1-0.7-5.3-65.5,61.5-77.9c56.2-10.4,165.7-12.4,198.9-12.8c0.2,0,0.4-0.1,0.5-0.1h10.2c0.2,0,0.4,0,0.6,0.1
		c33,0.4,142.1,2.4,197.9,12.8c33.7,6.2,48.5,26.5,55.1,42.2c7.6,18.4,6.1,35.6,6.1,35.8v0.1v20.6c0,1.4-1.1,2.5-2.5,2.5H176.2
		c-1.4,0-2.5-1.1-2.5-2.5v-20.5c0-21.6-23.3-37.2-69.3-46.2c7.9,26.5,27.5,70,74.1,92.7c30,14.7,52.9,44.8,66.1,87.1
		c9.9,31.8,11.1,59.6,11.1,59.8V166C255.8,167.5,254.7,168.6,253.3,168.6z M-203.9,163.7h454.8v-17.5c0-0.2-1.1-27.4-10.9-58.7
		c-8.9-28.5-27.2-66.3-63.5-84C125.8-21.3,106-69.7,98.7-96.3c-0.2-0.8,0-1.7,0.6-2.4c0.6-0.6,1.4-0.9,2.3-0.8
		c51.3,9.4,77.3,26.9,77.3,51.8v18h99.7V-48c0-0.2,0-0.3,0-0.5c0.2-3,3.4-61.2-57.2-72.5c-55.7-10.2-165.3-12.2-197.6-12.6
		c-0.2,0-0.3,0-0.5-0.1h-9.2c-0.2,0-0.3,0.1-0.5,0.1c-32.4,0.4-142.5,2.3-198.6,12.8c-60.7,11.3-57.7,69.5-57.4,72.5
		c0,0.2,0,0.3,0,0.5v18.3h100.3v-18c0-25.8,27.6-43.5,82-52.6c0.8-0.1,1.7,0.1,2.3,0.8c0.6,0.6,0.8,1.5,0.6,2.3
		C-64-70.2-82.7-21.3-131.9,3.6c-19.3,9.8-45.6,32.3-61.3,84c-9.5,31.1-10.6,58.5-10.7,58.8L-203.9,163.7z M76-73.1H-36
		c-1.4,0-2.5-1.1-2.5-2.5V-101c0-1.3,1-2.3,2.2-2.5c19.3-2.1,36.5-2.9,46.8-3.3l3-0.1h0.1h10.2h0.1l2.7,0.1
		c10.2,0.4,29.1,1.2,49.7,3.7c1.3,0.1,2.2,1.2,2.2,2.5v25.1C78.5-74.2,77.4-73.1,76-73.1z M-33.5-78.1h107v-20.3
		c-19.6-2.2-37.5-3-47.2-3.4l-2.6-0.1H13.7l-2.9,0.1c-9.8,0.4-26,1.1-44.2,3.1L-33.5-78.1L-33.5-78.1z"/>
</g>
</svg>
