<?xml version="1.0" encoding="utf-8"?>
<!-- Generator: Adobe Illustrator 18.1.1, SVG Export Plug-In . SVG Version: 6.00 Build 0)  -->
<svg version="1.1" id="Layer_1" xmlns="http://www.w3.org/2000/svg" xmlns:xlink="http://www.w3.org/1999/xlink" x="0px" y="0px"
	 viewBox="-252.5 -285 600 600" enable-background="new -252.5 -285 600 600" xml:space="preserve">
<g id="illustration">
	<g>
		<g>
			
				<path fill="#FFFFFF" stroke="#000030" stroke-width="5" stroke-linecap="round" stroke-linejoin="round" stroke-miterlimit="10" d="
				M334-182.7l8.6,8.6v409.5h-550.5l-26.6-26.6"/>
			
				<path fill="#FFFFFF" stroke="#000030" stroke-width="5" stroke-linecap="round" stroke-linejoin="round" stroke-miterlimit="10" d="
				M324.4-182.7h9.7v409.5h-549.6c5.4-11.5-16.5-17.8-16.5-17.8"/>
			
				<path fill="#FFFFFF" stroke="#000030" stroke-width="5" stroke-linecap="round" stroke-linejoin="round" stroke-miterlimit="10" d="
				M316-190.8c0-0.9,8.4,8.4,8.4,8.4V226l-17.1-16.9"/>
			
				<path fill="#FFFFFF" stroke="#000030" stroke-width="5" stroke-linecap="round" stroke-linejoin="round" stroke-miterlimit="10" d="
				M307.5-209.2l8.6,8.6v409.5h-550.5l-8.6-8.7"/>
			
				<path fill="#FFFFFF" stroke="#000030" stroke-width="5" stroke-linecap="round" stroke-linejoin="round" stroke-miterlimit="10" d="
				M307.5,200.2H-243v-409.4h550.5V200.2z"/>
			<path fill="none" stroke="#000030" stroke-width="5" stroke-linecap="round" stroke-linejoin="round" stroke-miterlimit="10" d="
				M-146.6,227.4l7.4,7.4"/>
			<path fill="none" stroke="#000030" stroke-width="5" stroke-linecap="round" stroke-linejoin="round" stroke-miterlimit="10" d="
				M-167.6,208.6l-8.7-8.4v-408.9"/>
			<path fill="none" stroke="#000030" stroke-width="5" stroke-linecap="round" stroke-linejoin="round" stroke-miterlimit="10" d="
				M307.5,200.2l8.7,8.7"/>
			<path fill="none" stroke="#000030" stroke-width="5" stroke-linecap="round" stroke-linejoin="round" stroke-miterlimit="10" d="
				M334,226.7l8.7,8.7"/>
		</g>
		<g>
			<g>
				<path fill="none" stroke="#000030" stroke-linecap="round" stroke-linejoin="round" stroke-miterlimit="10" d="M314.8,209.3v7.4
					h-530.1"/>
				<path fill="none" stroke="#000030" stroke-linecap="round" stroke-linejoin="round" stroke-miterlimit="10" d="M316.8,206.3
					v12.4h-531.1"/>
				<path fill="none" stroke="#000030" stroke-linecap="round" stroke-linejoin="round" stroke-miterlimit="10" d="M-222.2,212.7
					h533.6"/>
				<path fill="none" stroke="#000030" stroke-linecap="round" stroke-linejoin="round" stroke-miterlimit="10" d="M-219.3,214.7
					h532.6"/>
				<path fill="none" stroke="#000030" stroke-linecap="round" stroke-linejoin="round" stroke-miterlimit="10" d="M318.8-188.9
					v409.6h-532.1"/>
				<path fill="none" stroke="#000030" stroke-linecap="round" stroke-linejoin="round" stroke-miterlimit="10" d="M320.7-185.9
					v408.6h-535"/>
			</g>
		</g>
	</g>
</g>
<g id="shadow">
	<g>
		<path fill="#000030" d="M253.2-26l-17.4-17.4c-2.3-2.3-6.2-2.1-8.8,0.4l-8.4,8.4l-1.2-1.2L206-24.3L73.8,107.9l-14,33.1l0,0l0,0
			L53,157l49.1-20.8L234.3,4l11.5-11.5l-1.3-1.3l8.4-8.4C255.4-19.8,255.5-23.6,253.2-26z"/>
	</g>
</g>
<g id="illustration-2">
	<path fill="#FFFFFF" d="M67.5,102.3L49,145.8l43.6-18.5L235.7-15.7c-0.5-1-0.4-2.2,0.4-3l8.5-8.5c1.6-1.6,1.8-4,0.4-5.3l-17.6-17.6
		c-0.6-0.6-1.4-0.9-2.3-0.9c-1.1,0-2.2,0.5-3.1,1.3l-8.5,8.5c-0.5,0.5-1.1,0.7-1.8,0.7l0,0c-0.4,0-0.9-0.1-1.2-0.3L67.5,102.3z"/>
	<g>
		
			<path fill="#FFFFFF" stroke="#000030" stroke-width="5" stroke-linecap="round" stroke-linejoin="round" stroke-miterlimit="10" d="
			M211.2-42.1l8.4-8.4c2.6-2.6,6.4-2.8,8.8-0.4l17.4,17.4c2.3,2.3,2.1,6.2-0.4,8.8l-8.4,8.4"/>
		
			<path fill="#FFFFFF" stroke="#000030" stroke-width="5" stroke-linecap="round" stroke-linejoin="round" stroke-miterlimit="10" d="
			M45.4,149.5l20.8-49.1L198.4-31.8l28.3,28.3L94.5,128.6L45.4,149.5z"/>
		<path fill="none" stroke="#000030" stroke-width="5" stroke-linecap="round" stroke-linejoin="round" stroke-miterlimit="10" d="
			M208.4-21.9L76.2,110.3"/>
		<path fill="none" stroke="#000030" stroke-width="5" stroke-linecap="round" stroke-linejoin="round" stroke-miterlimit="10" d="
			M218.3-12L86.1,120.2"/>
		
			<path fill="#FFFFFF" stroke="#000030" stroke-width="5" stroke-linecap="round" stroke-linejoin="round" stroke-miterlimit="10" d="
			M66.2,100.3c0,0,9.7,1.9,9.7,9.7c0,0,9.7-0.5,9.7,9.7c0,0,10.4,0.4,8.9,8.9 M60.9,142.2c0.4-8.2-8.7-8.7-8.7-8.7"/>
		
			<path fill="#FFFFFF" stroke="#000030" stroke-width="5" stroke-linecap="round" stroke-linejoin="round" stroke-miterlimit="10" d="
			M198.4-31.9l11.5-11.5l28.3,28.3L226.7-3.6L198.4-31.9z"/>
		<path fill="none" stroke="#000030" stroke-width="2" stroke-linecap="round" stroke-linejoin="round" stroke-miterlimit="10" d="
			M206-39.5l28.3,28.3"/>
		<path fill="none" stroke="#000030" stroke-width="2" stroke-linecap="round" stroke-linejoin="round" stroke-miterlimit="10" d="
			M203.1-36.5l28.3,28.3"/>
		
			<path fill="#FFFFFF" stroke="#000030" stroke-width="2" stroke-linecap="round" stroke-linejoin="round" stroke-miterlimit="10" d="
			M242-28.8c-0.6,0.6-2.4-0.1-3.1-0.8l-14.5-14.4c-0.7-0.7-1.4-2.5-0.8-3.1"/>
	</g>
</g>
<g id="outline">
	<path fill="#000030" d="M340.5,239.9h-548.4c-0.7,0-1.3-0.3-1.8-0.7l-27.1-27.5c-0.1-0.1-0.2-0.3-0.3-0.4l-0.6-0.9l-9.5-8.3
		c-0.5-0.5-0.9-1.2-0.9-1.9v-407.5c0-1.4,1.1-2.5,2.5-2.5h552.9c0.7,0,1.3,0.3,1.8,0.8l6.3,6.6c0.4,0.5,0.7,1.1,0.7,1.7v8.3
		c0.3,0.3,0.6,0.6,0.9,0.9c0.3,0.1,0.6,0.2,0.9,0.4c0.5,0.3,0.9,0.8,1,1.4c2.2,1.9,4.1,4.3,5.2,5.7c0.2,0.3,0.4,0.5,0.5,0.7l0.3,0.3
		h8.8c0.7,0,1.3,0.3,1.8,0.7l6.5,6.4c0.5,0.5,0.7,1.1,0.7,1.8v411.5C343,238.8,341.9,239.9,340.5,239.9z M-206.8,235H338v-408.1
		l-5-4.9h-8.6c-0.6,0-1.1-0.2-1.6-0.6l-1.2-1c-0.1-0.1-0.2-0.2-0.3-0.3c-0.2-0.2-0.5-0.6-0.9-1.1c-1.1-1.4-3.1-4-5.1-5.4l-0.1-0.1
		c-0.3-0.1-0.5-0.3-0.7-0.5c-0.3-0.3-0.6-0.6-0.8-0.9c-0.2-0.2-0.4-0.4-0.5-0.6c-1.1-0.3-1.9-1.3-1.9-2.4v-8.8l-4.8-5.1H-243V199
		l8.9,7.8c0.2,0.2,0.3,0.3,0.5,0.5l0.6,1L-206.8,235z"/>
	<g>
		<path fill="#000030" d="M45.4,152c-0.7,0-1.3-0.3-1.8-0.7c-0.7-0.7-0.9-1.8-0.5-2.7l20.8-49.1c0.1-0.3,0.3-0.6,0.5-0.8L208.1-45
			c0.5-0.5,1.1-0.7,1.8-0.7l0,0c0.4,0,0.9,0.1,1.2,0.3l6.7-6.7c1.8-1.8,4.1-2.8,6.5-2.8c2.2,0,4.2,0.8,5.7,2.4l17.4,17.4
			c3.3,3.3,3.1,8.8-0.4,12.3l-6.7,6.7c0.5,1,0.4,2.2-0.4,3L96.2,130.3c-0.2,0.2-0.5,0.4-0.8,0.5l-49.1,20.8
			C46,151.9,45.7,152,45.4,152z M68.3,101.7L50,144.8l43.1-18.3L234.7-15.1c-0.5-1-0.4-2.2,0.4-3l8.4-8.4c1.6-1.6,1.8-4,0.4-5.2
			l-17.4-17.4c-0.6-0.6-1.4-0.9-2.3-0.9c-1.1,0-2.2,0.5-3.1,1.3l-8.4,8.4c-0.5,0.5-1.1,0.7-1.8,0.7l0,0c-0.4,0-0.9-0.1-1.2-0.3
			L68.3,101.7z"/>
	</g>
</g>
</svg>
