<?xml version="1.0" encoding="utf-8"?>
<!-- Generator: Adobe Illustrator 18.1.1, SVG Export Plug-In . SVG Version: 6.00 Build 0)  -->
<svg version="1.1" id="Layer_1" xmlns="http://www.w3.org/2000/svg" xmlns:xlink="http://www.w3.org/1999/xlink" x="0px" y="0px"
	 viewBox="-252.5 -285 600 600" enable-background="new -252.5 -285 600 600" xml:space="preserve">
<g id="shadow">
	<path fill="#000030" d="M218.8,285.1v-507.2c0-6.8-2.6-13-7-17.4l-17.7-17.8c-4.6-5.3-11.1-8.6-18.6-8.6H-85.3
		c-13.6,0-23.7,11-23.7,24.6v507.2c0,6.8,2.4,13.1,6.8,17.5l-0.3,0.1l18.9,19c4.5,4.5,10.5,7.2,17.3,7.2h260.9
		C208.2,309.8,218.8,298.8,218.8,285.1z"/>
</g>
<g id="illustration">
	<g>
		<g>
			<g>
				
					<path fill="#FFFFFF" stroke="#000030" stroke-width="5" stroke-linecap="round" stroke-linejoin="round" stroke-miterlimit="10" d="
					M182-269.5l18.7,18.7c4.5,4.5,7.2,10.6,7.2,17.4v507.2c0,13.6-11,24.7-24.7,24.7H-77.6c-6.8,0-13-2.8-17.4-7.2l-19-19.1"/>
			</g>
			
				<path fill="#FFFFFF" stroke="#000030" stroke-width="5" stroke-linecap="round" stroke-linejoin="round" stroke-miterlimit="10" d="
				M164.1-277.3c13.6,0,24.7,11,24.7,24.7v507.2c0,13.6-11,24.7-24.7,24.7H-96.7c-13.6,0-24.7-11-24.7-24.7v-507.3
				c0-13.6,11-24.7,24.7-24.7L164.1-277.3L164.1-277.3z"/>
			
				<path fill="#FFFFFF" stroke="#000030" stroke-width="5" stroke-linecap="round" stroke-linejoin="round" stroke-miterlimit="10" d="
				M161.8,181.2h-256v-399.4h256v9.7V181.2z"/>
			
				<path fill="#FFFFFF" stroke="#000030" stroke-width="5" stroke-linecap="round" stroke-linejoin="round" stroke-miterlimit="10" d="
				M34.2,209.3L34.2,209.3c-0.2,0-0.3,0-0.4,0c-12,0-21.7,9.7-21.7,21.7c0,12,9.7,21.7,21.7,21.7S55.5,243,55.5,231
				C55.4,219.1,45.9,209.5,34.2,209.3z"/>
			
				<path fill="#FFFFFF" stroke="#000030" stroke-width="5" stroke-linecap="round" stroke-linejoin="round" stroke-miterlimit="10" d="
				M-86,181.2v-389.7 M-93.1-216.9l7.1,8.3h245.2"/>
			
				<path fill="#FFFFFF" stroke="#000030" stroke-width="5" stroke-linecap="round" stroke-linejoin="round" stroke-miterlimit="10" d="
				M180-272.3"/>
			
				<path fill="#FFFFFF" stroke="#000030" stroke-width="2" stroke-linecap="round" stroke-linejoin="round" stroke-miterlimit="10" d="
				M34.6,217.7c-0.3,0-0.6,0-0.9,0c-7.3,0-13.2,5.9-13.2,13.2c0,7.3,5.9,13.2,13.2,13.2s13.2-5.9,13.2-13.2
				C46.9,224,41.5,218.2,34.6,217.7z"/>
			
				<path fill="#FFFFFF" stroke="#000030" stroke-width="5" stroke-linecap="round" stroke-linejoin="round" stroke-miterlimit="10" d="
				M112.9-41.5L-11.4,83 M87.9-41.5L30.6,15.8 M87.9,12L30.6,69.2"/>
		</g>
	</g>
	<path fill="none" stroke="#000030" stroke-width="5" stroke-linecap="round" stroke-linejoin="round" stroke-miterlimit="10" d="
		M6.8-246.5h52.5"/>
	<path fill="none" stroke="#000030" stroke-width="2" stroke-linecap="round" stroke-linejoin="round" stroke-miterlimit="10" d="
		M21.7-239.1h22.8"/>
	<path fill="none" stroke="#000030" stroke-width="5" stroke-linecap="round" stroke-linejoin="round" stroke-miterlimit="10" d="
		M189.3,252.1l19,19"/>
	<path fill="none" stroke="#000030" stroke-width="5" stroke-linecap="round" stroke-linejoin="round" stroke-miterlimit="10" d="
		M164.7,279.7l19,19"/>
</g>
<g id="outline">
	<g>
		<path fill="#000030" d="M183.3,300.9H-77.6c-7.2,0-14.1-2.8-19.1-7.9l-19.1-19c-0.2-0.2-0.3-0.3-0.5-0.5c-5-5.1-7.6-11.8-7.6-18.8
			v-507.3c0-14.9,12.3-27,27.2-27h261c7.9,0,15.4,3.4,20.5,9.4l17.5,17.7c5.2,5.2,7.7,11.9,7.7,19.1v507.2
			C209.9,288.7,198.2,300.9,183.3,300.9z M-111.9,270.8l18.6,18.6c4.2,4.2,9.7,6.4,15.7,6.4h261c12.2,0,21.7-9.9,21.7-22.1v-507.3
			c0-5.9-2.1-11.5-6.2-15.7L181.1-267c0,0,0-0.1-0.1-0.1c-4.3-5-10.3-7.7-16.7-7.7h-261c-12.2,0-22.3,9.9-22.3,22.1v507.2
			c0,5.9,2.4,11.6,6.6,15.8C-112.2,270.4-112,270.6-111.9,270.8z"/>
	</g>
</g>
</svg>
