<?xml version="1.0" encoding="utf-8"?>
<!-- Generator: Adobe Illustrator 18.1.1, SVG Export Plug-In . SVG Version: 6.00 Build 0)  -->
<svg version="1.1" id="Layer_1" xmlns="http://www.w3.org/2000/svg" xmlns:xlink="http://www.w3.org/1999/xlink" x="0px" y="0px"
	 viewBox="0 0 95 30" enable-background="new 0 0 95 30" xml:space="preserve">
<path fill="#000030" d="M0.4,29.7V0h5.9l4.2,22.7L14.6,0h5.9v29.7h-4.2V6.3L12,29.7H8.8L4.6,6.3v23.4H0.4z"/>
<path fill="#000030" d="M54.2,29.7V0h3.2l7.4,18.4V0h4.2v29.7h-3L58.5,9.9v19.7H54.2z"/>
<path fill="#000030" d="M89.6,29.5c-1,0.3-2.1,0.5-3.4,0.5c-1.3,0-2.4-0.2-3.4-0.5c-1-0.3-1.8-0.8-2.4-1.4c-0.6-0.6-1.2-1.4-1.5-2.3
	c-0.4-0.9-0.7-1.9-0.8-3c-0.2-1.1-0.2-2.3-0.2-3.7V0h4.2v19.1c0,0.9,0,1.7,0.1,2.3c0,0.6,0.1,1.3,0.3,2c0.2,0.7,0.4,1.3,0.7,1.7
	c0.3,0.4,0.7,0.8,1.2,1c0.5,0.3,1.2,0.4,1.9,0.4c0.8,0,1.4-0.1,1.9-0.4c0.5-0.3,1-0.6,1.2-1c0.3-0.4,0.5-1,0.7-1.7
	c0.2-0.7,0.3-1.4,0.3-2c0-0.6,0.1-1.4,0.1-2.3V0h4.2v19.1c0,1.4-0.1,2.6-0.2,3.7c-0.2,1.1-0.4,2.1-0.8,3c-0.4,0.9-0.9,1.7-1.5,2.3
	C91.4,28.7,90.6,29.1,89.6,29.5z"/>
<g>
	<rect x="29.1" y="12.9" fill="#000030" width="16.5" height="4.2"/>
</g>
</svg>
