<?xml version="1.0" encoding="utf-8"?>
<!-- Generator: Adobe Illustrator 15.0.0, SVG Export Plug-In . SVG Version: 6.00 Build 0)  -->
<!DOCTYPE svg PUBLIC "-//W3C//DTD SVG 1.1//EN" "http://www.w3.org/Graphics/SVG/1.1/DTD/svg11.dtd">
<svg version="1.1" id="Layer_1" xmlns="http://www.w3.org/2000/svg" xmlns:xlink="http://www.w3.org/1999/xlink" x="0px" y="0px"
	 width="267.333px" height="464.882px" viewBox="0 0 267.333 464.882" enable-background="new 0 0 267.333 464.882"
	 xml:space="preserve">
<g>
	<g>
		<path fill="#10122E" d="M150.085,406.75l-0.052-1.92c0.069-0.357,0.062-0.721-0.028-1.072l-4.509-168.885l-0.305-159.021V57.649
			c0-0.644-0.258-1.261-0.717-1.717c-0.459-0.455-1.081-0.711-1.73-0.711h-5.823V44.308c-0.003-5.297-4.052-9.607-9.025-9.608
			l-3.34,0c-4.978,0-9.026,4.311-9.026,9.609v10.913h-5.823c-1.352,0-2.447,1.087-2.447,2.428v18.201l-0.303,158.925l-4.511,168.961
			c-0.088,0.352-0.104,0.719-0.029,1.074l-0.051,1.939c-0.009,0.311,0.043,0.619,0.151,0.91l14.03,37.475
			c0.015,0.039,0.042,0.068,0.058,0.104c0.064,0.15,0.145,0.291,0.241,0.43c0.042,0.061,0.081,0.119,0.129,0.178
			c0.016,0.016,0.025,0.037,0.042,0.055c0.119,0.135,0.25,0.248,0.389,0.35c0.051,0.035,0.106,0.059,0.158,0.092
			c0.052,0.031,0.102,0.068,0.155,0.094c0.783,0.812,2.311,2.16,4.438,2.982v5.738c0,2.014,1.643,3.643,3.671,3.643
			s3.671-1.629,3.671-3.643v-5.742c1.698-0.652,3.352-1.754,4.948-3.318c0.005-0.004,0.012-0.006,0.017-0.012
			c0.006-0.006,0.01-0.014,0.017-0.02c0.021-0.018,0.042-0.037,0.062-0.057c0.042-0.041,0.071-0.09,0.11-0.133
			c0.001-0.004,0.002-0.004,0.004-0.006c0.028-0.031,0.058-0.059,0.084-0.094c0.029-0.035,0.058-0.07,0.085-0.111
			c0.042-0.061,0.073-0.123,0.108-0.184c0.043-0.078,0.089-0.15,0.122-0.23c0.01-0.023,0.021-0.043,0.03-0.066
			c0.001-0.002,0.002-0.002,0.004-0.006l5.181-13.096c0.203-0.08,0.394-0.195,0.55-0.365c0.414-0.451,0.481-1.088,0.229-1.604
			l8.866-22.412C150.037,407.4,150.095,407.076,150.085,406.75z"/>
		<g>
			<path fill="#F5F6F6" d="M116.588,455.328c-0.111,0-0.202-0.09-0.202-0.199v-8.158l-2.21-0.859
				c-1.541-0.604-2.66-1.621-3.189-2.174l-0.406-0.424l-0.166-0.084l-13.816-37.209l0.057-2.162l-0.03-0.15l0.038-0.158
				l4.522-170.715l0.304-160.311V55.39h8.27v-14.47c0-3.429,2.493-6.22,5.559-6.22l3.34,0c3.062,0.001,5.554,2.792,5.557,6.221
				v14.469h8.271V72.72l0.305,160.329l4.521,170.746l0.038,0.148l-0.03,0.156l0.057,2.109l-14.658,37.352l-0.159,0.16l-0.014,0.023
				c-1.158,1.102-2.351,1.898-3.536,2.357l-2.217,0.857v8.17C116.789,455.238,116.699,455.328,116.588,455.328z"/>
		</g>
	</g>
	
		<path fill="none" stroke="#10122E" stroke-width="2.388" stroke-linecap="round" stroke-linejoin="round" stroke-miterlimit="10" d="
		M103.676,429.256c0,0,12.105-12.641,25.62-0.371"/>
	<path fill="none" stroke="#10122E" stroke-width="6" stroke-linecap="round" stroke-linejoin="round" stroke-miterlimit="10" d="
		M116.792,450.258c0,1.586,0-2.084,0,3.635C116.792,453.893,116.792,454.291,116.792,450.258c0-4.037,0-7.309,0-7.309
		S116.792,446.221,116.792,450.258z"/>
	<path fill="none" stroke="#10122E" stroke-width="4" stroke-linecap="round" stroke-linejoin="round" stroke-miterlimit="10" d="
		M110.033,442.949c-0.004-0.006,6.031,7.715,13.743,0"/>
	<g>
		<g>
			<path fill="#10122E" d="M262.308,453.312c0,3.118-2.551,5.669-5.669,5.669h-64.527c-3.118,0-5.669-2.551-5.669-5.669V14.335
				c0-3.118,2.551-5.669,5.669-5.669h64.527c3.118,0,5.669,2.551,5.669,5.669V453.312z"/>
		</g>
		<g>
			<path fill="#10122E" d="M55.107,155.541H27.292c-3.694,0.002-6.69,3.291-6.689,7.353l-0.001,13.45h-2.04v18.355l0.003,211.691
				l15.252,37.781l7.383,18.289l22.64-56.07l-0.002-211.691l0.001-18.357l-2.04,0.002v-13.449
				C61.798,158.833,58.804,155.541,55.107,155.541"/>
			<path fill="#FFFFFF" d="M8.488,175.119V161.67c0-4.062,2.996-7.353,6.691-7.353l27.815-0.001c3.693,0.001,6.688,3.293,6.69,7.354
				v13.449"/>
			
				<path fill="none" stroke="#10122E" stroke-width="3.816" stroke-linecap="round" stroke-linejoin="round" stroke-miterlimit="10" d="
				M8.488,175.119V161.67c0-4.062,2.996-7.353,6.691-7.353l27.815-0.001c3.693,0.001,6.688,3.293,6.69,7.354v13.449"/>
			<polygon fill="#FFFFFF" points="51.725,405.166 51.725,193.476 6.449,193.475 6.449,405.166 29.087,461.236 			"/>
			
				<polygon fill="none" stroke="#10122E" stroke-width="4" stroke-linecap="round" stroke-linejoin="round" stroke-miterlimit="10" points="
				51.725,405.166 51.725,193.476 6.449,193.475 6.449,405.166 29.087,461.236 			"/>
			<path fill="#FFFFFF" d="M6.449,405.166c0,0,9.228-6.27,15.498,0c0,0,7.352-8.193,15.544,0c0,0,8.65-7.939,14.233,0"/>
			<path fill="none" stroke="#10122E" stroke-width="4" stroke-linecap="round" stroke-linejoin="round" stroke-miterlimit="10" d="
				M6.449,405.166c0,0,9.228-6.27,15.498,0c0,0,7.352-8.193,15.544,0c0,0,8.65-7.939,14.233,0"/>
			
				<line fill="none" stroke="#10122E" stroke-width="4" stroke-linecap="round" stroke-linejoin="round" stroke-miterlimit="10" x1="22.356" y1="405.166" x2="22.356" y2="193.476"/>
			
				<line fill="none" stroke="#10122E" stroke-width="4" stroke-linecap="round" stroke-linejoin="round" stroke-miterlimit="10" x1="38.265" y1="193.475" x2="38.265" y2="405.166"/>
			<path fill="none" stroke="#10122E" stroke-width="4" stroke-linecap="round" stroke-linejoin="round" stroke-miterlimit="10" d="
				M21.703,442.949c0,0,7.676-6.889,13.971,0"/>
			<rect x="6.449" y="175.119" fill="#FFFFFF" width="45.275" height="18.355"/>
			
				<rect x="6.449" y="175.119" fill="none" stroke="#10122E" stroke-width="4" stroke-linecap="round" stroke-linejoin="round" stroke-miterlimit="10" width="45.275" height="18.355"/>
			
				<line fill="none" stroke="#10122E" stroke-width="2" stroke-linecap="round" stroke-linejoin="round" stroke-miterlimit="10" x1="6.449" y1="181.238" x2="51.725" y2="181.238"/>
			
				<line fill="none" stroke="#10122E" stroke-width="2" stroke-linecap="round" stroke-linejoin="round" stroke-miterlimit="10" x1="6.449" y1="186.133" x2="51.725" y2="186.133"/>
			<path fill="#FFFFFF" d="M14.389,161.049c0,1.013,1.996,1.834,3.066,1.836h23.264c1.07-0.003,3.066-0.822,3.066-1.838"/>
			<path fill="none" stroke="#10122E" stroke-width="2" stroke-linecap="round" stroke-linejoin="round" stroke-miterlimit="10" d="
				M14.389,161.049c0,1.013,1.996,1.834,3.066,1.836h23.264c1.07-0.003,3.066-0.822,3.066-1.838"/>
		</g>
		<g>
			<path fill="#FFFFFF" d="M108.828,53.145V39.696c0-4.062,2.997-7.353,6.692-7.353l3.34,0c3.693,0,6.688,3.293,6.69,7.354v13.449"
				/>
			
				<path fill="none" stroke="#10122E" stroke-width="3.816" stroke-linecap="round" stroke-linejoin="round" stroke-miterlimit="10" d="
				M108.828,53.145V39.696c0-4.062,2.997-7.353,6.692-7.353l3.34,0c3.693,0,6.688,3.293,6.69,7.354v13.449"/>
			
				<polygon fill="none" stroke="#10122E" stroke-width="4" stroke-linecap="round" stroke-linejoin="round" stroke-miterlimit="10" points="
				138.604,405.166 134.014,231.823 133.709,71.501 100.671,71.5 100.367,231.785 95.775,405.166 109.806,442.949 123.776,442.949 
							"/>
			<path fill="none" stroke="#10122E" stroke-width="4" stroke-linecap="round" stroke-linejoin="round" stroke-miterlimit="10" d="
				M109.806,442.949c0,0,7.676-6.889,13.971,0"/>
			<rect x="100.671" y="53.145" fill="#FFFFFF" width="33.038" height="18.355"/>
			
				<rect x="100.671" y="53.145" fill="none" stroke="#10122E" stroke-width="4" stroke-linecap="round" stroke-linejoin="round" stroke-miterlimit="10" width="33.038" height="18.355"/>
			
				<line fill="none" stroke="#10122E" stroke-width="2" stroke-linecap="round" stroke-linejoin="round" stroke-miterlimit="10" x1="100.671" y1="59.265" x2="133.709" y2="59.264"/>
		</g>
		<path fill="none" stroke="#10122E" stroke-width="4" stroke-linecap="round" stroke-linejoin="round" stroke-miterlimit="10" d="
			M100.367,231.785c0,0,16.822-15.233,33.646,0.038"/>
		<path fill="none" stroke="#10122E" stroke-width="4" stroke-linecap="round" stroke-linejoin="round" stroke-miterlimit="10" d="
			M95.777,402.646c0,0,20.188-20.496,42.826,0.053"/>
		
			<rect x="113.121" y="291.758" fill="none" stroke="#10122E" stroke-width="4" stroke-linecap="round" stroke-linejoin="round" stroke-miterlimit="10" width="8.759" height="64.854"/>
		
			<circle fill="none" stroke="#10122E" stroke-width="4" stroke-linecap="round" stroke-linejoin="round" stroke-miterlimit="10" cx="117.5" cy="329.594" r="4.379"/>
		<g>
			<path fill="#FFFFFF" d="M255.781,450.235c0,3.118-2.551,5.669-5.669,5.669h-64.527c-3.118,0-5.669-2.551-5.669-5.669V11.258
				c0-3.118,2.551-5.669,5.669-5.669h64.527c3.118,0,5.669,2.551,5.669,5.669V450.235z"/>
			<path fill="none" stroke="#10122E" stroke-width="4" stroke-linecap="round" stroke-linejoin="round" stroke-miterlimit="10" d="
				M255.781,450.235c0,3.118-2.551,5.669-5.669,5.669h-64.527c-3.118,0-5.669-2.551-5.669-5.669V11.258
				c0-3.118,2.551-5.669,5.669-5.669h64.527c3.118,0,5.669,2.551,5.669,5.669V450.235z"/>
		</g>
		<g>
			
				<line fill="none" stroke="#10122E" stroke-width="3.6167" stroke-linecap="round" stroke-linejoin="round" stroke-miterlimit="10" x1="179.915" y1="15.99" x2="205.611" y2="15.99"/>
			
				<line fill="none" stroke="#10122E" stroke-width="3.6167" stroke-linecap="round" stroke-linejoin="round" stroke-miterlimit="10" x1="179.915" y1="44.624" x2="205.611" y2="44.624"/>
			
				<line fill="none" stroke="#10122E" stroke-width="3.6167" stroke-linecap="round" stroke-linejoin="round" stroke-miterlimit="10" x1="179.915" y1="73.258" x2="205.611" y2="73.258"/>
			
				<line fill="none" stroke="#10122E" stroke-width="3.6167" stroke-linecap="round" stroke-linejoin="round" stroke-miterlimit="10" x1="179.915" y1="101.893" x2="205.611" y2="101.893"/>
			
				<line fill="none" stroke="#10122E" stroke-width="3.6167" stroke-linecap="round" stroke-linejoin="round" stroke-miterlimit="10" x1="179.915" y1="130.527" x2="205.611" y2="130.527"/>
			
				<line fill="none" stroke="#10122E" stroke-width="3.6167" stroke-linecap="round" stroke-linejoin="round" stroke-miterlimit="10" x1="179.915" y1="159.16" x2="205.611" y2="159.16"/>
			
				<line fill="none" stroke="#10122E" stroke-width="3.6167" stroke-linecap="round" stroke-linejoin="round" stroke-miterlimit="10" x1="179.915" y1="187.795" x2="205.611" y2="187.795"/>
			
				<line fill="none" stroke="#10122E" stroke-width="3.6167" stroke-linecap="round" stroke-linejoin="round" stroke-miterlimit="10" x1="179.915" y1="216.43" x2="205.611" y2="216.43"/>
			
				<line fill="none" stroke="#10122E" stroke-width="3.6167" stroke-linecap="round" stroke-linejoin="round" stroke-miterlimit="10" x1="179.915" y1="245.062" x2="205.611" y2="245.062"/>
			
				<line fill="none" stroke="#10122E" stroke-width="3.6167" stroke-linecap="round" stroke-linejoin="round" stroke-miterlimit="10" x1="179.915" y1="273.697" x2="205.611" y2="273.697"/>
			
				<line fill="none" stroke="#10122E" stroke-width="3.6167" stroke-linecap="round" stroke-linejoin="round" stroke-miterlimit="10" x1="179.915" y1="302.332" x2="205.611" y2="302.332"/>
			
				<line fill="none" stroke="#10122E" stroke-width="3.6167" stroke-linecap="round" stroke-linejoin="round" stroke-miterlimit="10" x1="179.915" y1="330.965" x2="205.611" y2="330.965"/>
			
				<line fill="none" stroke="#10122E" stroke-width="3.6167" stroke-linecap="round" stroke-linejoin="round" stroke-miterlimit="10" x1="179.915" y1="359.6" x2="205.611" y2="359.6"/>
			
				<line fill="none" stroke="#10122E" stroke-width="3.6167" stroke-linecap="round" stroke-linejoin="round" stroke-miterlimit="10" x1="179.915" y1="388.236" x2="205.611" y2="388.236"/>
			
				<line fill="none" stroke="#10122E" stroke-width="3.6167" stroke-linecap="round" stroke-linejoin="round" stroke-miterlimit="10" x1="179.915" y1="416.869" x2="205.611" y2="416.869"/>
			
				<line fill="none" stroke="#10122E" stroke-width="3.6167" stroke-linecap="round" stroke-linejoin="round" stroke-miterlimit="10" x1="179.915" y1="445.504" x2="205.611" y2="445.504"/>
		</g>
		<g>
			
				<line fill="none" stroke="#10122E" stroke-width="2.4958" stroke-linecap="round" stroke-linejoin="round" stroke-miterlimit="10" x1="179.915" y1="30.006" x2="192.151" y2="30.006"/>
			
				<line fill="none" stroke="#10122E" stroke-width="2.4958" stroke-linecap="round" stroke-linejoin="round" stroke-miterlimit="10" x1="179.915" y1="58.64" x2="192.151" y2="58.64"/>
			
				<line fill="none" stroke="#10122E" stroke-width="2.4958" stroke-linecap="round" stroke-linejoin="round" stroke-miterlimit="10" x1="179.915" y1="87.275" x2="192.151" y2="87.275"/>
			
				<line fill="none" stroke="#10122E" stroke-width="2.4958" stroke-linecap="round" stroke-linejoin="round" stroke-miterlimit="10" x1="179.915" y1="115.908" x2="192.151" y2="115.908"/>
			
				<line fill="none" stroke="#10122E" stroke-width="2.4958" stroke-linecap="round" stroke-linejoin="round" stroke-miterlimit="10" x1="179.915" y1="144.543" x2="192.151" y2="144.543"/>
			
				<line fill="none" stroke="#10122E" stroke-width="2.4958" stroke-linecap="round" stroke-linejoin="round" stroke-miterlimit="10" x1="179.915" y1="173.177" x2="192.151" y2="173.177"/>
			
				<line fill="none" stroke="#10122E" stroke-width="2.4958" stroke-linecap="round" stroke-linejoin="round" stroke-miterlimit="10" x1="179.915" y1="201.812" x2="192.151" y2="201.812"/>
			
				<line fill="none" stroke="#10122E" stroke-width="2.4958" stroke-linecap="round" stroke-linejoin="round" stroke-miterlimit="10" x1="179.915" y1="230.446" x2="192.151" y2="230.446"/>
			
				<line fill="none" stroke="#10122E" stroke-width="2.4958" stroke-linecap="round" stroke-linejoin="round" stroke-miterlimit="10" x1="179.915" y1="259.08" x2="192.151" y2="259.08"/>
			
				<line fill="none" stroke="#10122E" stroke-width="2.4958" stroke-linecap="round" stroke-linejoin="round" stroke-miterlimit="10" x1="179.915" y1="287.715" x2="192.151" y2="287.715"/>
			
				<line fill="none" stroke="#10122E" stroke-width="2.4958" stroke-linecap="round" stroke-linejoin="round" stroke-miterlimit="10" x1="179.915" y1="316.348" x2="192.151" y2="316.348"/>
			
				<line fill="none" stroke="#10122E" stroke-width="2.4958" stroke-linecap="round" stroke-linejoin="round" stroke-miterlimit="10" x1="179.915" y1="344.982" x2="192.151" y2="344.982"/>
			
				<line fill="none" stroke="#10122E" stroke-width="2.4958" stroke-linecap="round" stroke-linejoin="round" stroke-miterlimit="10" x1="179.915" y1="373.615" x2="192.151" y2="373.615"/>
			
				<line fill="none" stroke="#10122E" stroke-width="2.4958" stroke-linecap="round" stroke-linejoin="round" stroke-miterlimit="10" x1="179.915" y1="402.25" x2="192.151" y2="402.25"/>
			
				<line fill="none" stroke="#10122E" stroke-width="2.4958" stroke-linecap="round" stroke-linejoin="round" stroke-miterlimit="10" x1="179.915" y1="430.885" x2="192.151" y2="430.885"/>
		</g>
	</g>
</g>
</svg>
