<?xml version="1.0" encoding="utf-8"?>
<!-- Generator: Adobe Illustrator 18.1.1, SVG Export Plug-In . SVG Version: 6.00 Build 0)  -->
<svg version="1.1" xmlns="http://www.w3.org/2000/svg" xmlns:xlink="http://www.w3.org/1999/xlink" x="0px" y="0px"
	 viewBox="0 0 600 600" enable-background="new 0 0 600 600" xml:space="preserve">
<g id="shadow">
	<path fill="#000030" d="M589.2,314.5h-19.4V169.3c-4.7-4.7-7.3-7.3-12-12h-239v-10.8h-7.5l3.2,3.1H267l3.2-3.1h-7.5v3.1v7.7h-91.8
		V138h-66.4v8.6H54.8v10.6H24.7c-4.7,4.7-7.3,7.3-12,12V465c4.7,4.7,7.3,7.3,12,12h533.1c4.7-4.7,7.3-7.3,12-12V345h19.4
		C589.2,345,611.5,331.2,589.2,314.5z M318.7,157.2h-0.4v-0.8L318.7,157.2z M584.6,334.5c-2.5,0-4.6-2.1-4.6-4.6
		c0-2.5,2.1-4.6,4.6-4.6c2.5,0,4.6,2.1,4.6,4.6C589.2,332.4,587.1,334.5,584.6,334.5z"/>
</g>
<g id="illustration">
	<path fill="#FFFFFF" d="M15.1,466L3,454V158.7L15.1,147h30c0.3,0,0.9-0.3,0.9-0.6V136h12.6c0.3,0,0.4,0.1,0.4-0.2V126h28v9.8
		c0,0.3-0.1,0.2,0.2,0.2h7.6c0.3,0,0.2,0.1,0.2-0.2V128h66v18.4c0,0.3-0.1,0.6,0.2,0.6h386.7l12.2,11.7V304c0,0.3-0.2,1,0.1,1h19.3
		l0.5,0.1c6.1,4.6,9.1,9.3,9,14.2c-0.2,7.1-6.9,12.6-9,14.1l-0.5,0.6h-19.3c-0.3,0-0.1-0.3-0.1,0v120l-12.2,12H15.1z"/>
	<g>
		<g>
			
				<path fill="#FFFFFF" stroke="#000030" stroke-width="5" stroke-linecap="round" stroke-linejoin="round" stroke-miterlimit="10" d="
				M579.5,334c0,0,22.3-14,0-30H560v30H579.5z M574.9,314.5c2.5,0,4.6,2.1,4.6,4.6c0,2.5-2.1,4.6-4.6,4.6c-2.5,0-4.6-2.1-4.6-4.6
				C570.3,316.5,572.4,314.5,574.9,314.5z"/>
			<path fill="none" stroke="#000030" stroke-width="5" stroke-linecap="round" stroke-linejoin="round" stroke-miterlimit="10" d="
				M94.8,146.4v-19.3h66.4v19.3"/>
			<path fill="none" stroke="#000030" stroke-width="5" stroke-linecap="round" stroke-linejoin="round" stroke-miterlimit="10" d="
				M58.6,134.6V125h28.6v9.6"/>
			<rect x="45.1" y="135.8" fill="#FFFFFF" width="55.6" height="11.2"/>
			<path fill="none" stroke="#000030" stroke-width="5" stroke-linecap="round" stroke-linejoin="round" stroke-miterlimit="10" d="
				M45.1,146.4v-10.6h55.6v10.6"/>
			
				<path fill="#FFFFFF" stroke="#000030" stroke-width="5" stroke-linecap="round" stroke-linejoin="round" stroke-miterlimit="10" d="
				M548,466.2H14.9c-4.7-4.7-7.3-7.3-12-12V158.5c4.7-4.7,7.3-7.3,12-12H548c4.7,4.7,7.3,7.3,12,12v295.8
				C555.4,458.9,552.7,461.6,548,466.2z"/>
			<path fill="none" stroke="#000030" stroke-width="5" stroke-linecap="round" stroke-linejoin="round" stroke-miterlimit="10" d="
				M558,218.5H3"/>
			<g>
				
					<path fill="none" stroke="#000030" stroke-width="5" stroke-linecap="round" stroke-linejoin="round" stroke-miterlimit="10" d="
					M510,207.8h-53c-7.8,0-14.2-6.3-14.2-14.2v-24c0-7.8,6.3-14.2,14.2-14.2h53c7.8,0,14.2,6.3,14.2,14.2v24
					C524.1,201.5,517.8,207.8,510,207.8z"/>
				
					<path fill="none" stroke="#000030" stroke-width="2" stroke-linecap="round" stroke-linejoin="round" stroke-miterlimit="10" d="
					M507.7,200.4h-48.4c-4.4,0-7.9-3.6-7.9-7.9V171c0-4.4,3.6-7.9,7.9-7.9h48.4c4.4,0,7.9,3.6,7.9,7.9v21.4
					C515.6,196.8,512,200.4,507.7,200.4z"/>
				
					<path fill="none" stroke="#000030" stroke-width="2" stroke-linecap="round" stroke-linejoin="round" stroke-miterlimit="10" d="
					M456.4,163.6l-1.1-7.9"/>
				
					<path fill="none" stroke="#000030" stroke-width="2" stroke-linecap="round" stroke-linejoin="round" stroke-miterlimit="10" d="
					M451.3,168l-8-1"/>
				
					<path fill="none" stroke="#000030" stroke-width="2" stroke-linecap="round" stroke-linejoin="round" stroke-miterlimit="10" d="
					M523.9,196.1l-8.7-0.7"/>
				
					<path fill="none" stroke="#000030" stroke-width="2" stroke-linecap="round" stroke-linejoin="round" stroke-miterlimit="10" d="
					M513.7,207.3l-2.4-7.9"/>
			</g>
			<path fill="none" stroke="#000030" stroke-width="5" stroke-linecap="round" stroke-linejoin="round" stroke-miterlimit="10" d="
				M15.5,147v319 M545.5,147v319"/>
			<g>
				<g>
					<circle fill="#000030" cx="295.5" cy="351.7" r="100.5"/>
					<polyline fill="#000030" points="374.3,401 387.7,414.4 356.5,445.6 342.5,431.6 					"/>
					<g>
						
							<path fill="#FFFFFF" stroke="#000030" stroke-width="5" stroke-linecap="round" stroke-linejoin="round" stroke-miterlimit="10" d="
							M365.3,394.9l13.4,13.4l-28.2,28.2l-14-14"/>
						
							<path fill="#FFFFFF" stroke="#000030" stroke-width="5" stroke-linecap="round" stroke-linejoin="round" stroke-miterlimit="10" d="
							M382,337.7c0,55.5-45,100.5-100.5,100.5S181,393.2,181,337.7s45-100.5,100.5-100.5S382,282.1,382,337.7z"/>
						
							<path fill="#FFFFFF" stroke="#000030" stroke-width="5" stroke-linecap="round" stroke-linejoin="round" stroke-miterlimit="10" d="
							M364.2,337.7c0,45.7-37,82.7-82.7,82.7s-82.7-37-82.7-82.7s37-82.7,82.7-82.7S364.2,292,364.2,337.7z"/>
						
							<path fill="#FFFFFF" stroke="#000030" stroke-width="5" stroke-linecap="round" stroke-linejoin="round" stroke-miterlimit="10" d="
							M320.5,337.7c0,21.5-17.5,39-39,39s-39-17.5-39-39s17.5-39,39-39S320.5,316.1,320.5,337.7z"/>
					</g>
				</g>
				<circle fill="#000030" cx="281.5" cy="337.7" r="32.6"/>
			</g>
			
				<path fill="#FFFFFF" stroke="#000030" stroke-width="5" stroke-linecap="round" stroke-linejoin="round" stroke-miterlimit="10" d="
				M92.3,182.2c0,10.4-8.4,18.8-18.8,18.8s-18.8-8.4-18.8-18.8c0-10.4,8.4-18.8,18.8-18.8S92.3,171.8,92.3,182.2z"/>
			<g>
				
					<path fill="#FFFFFF" stroke="#000030" stroke-width="5" stroke-linecap="round" stroke-linejoin="round" stroke-miterlimit="10" d="
					M308.6,145.6H253v-7.9h55.6V145.6z"/>
				
					<path fill="none" stroke="#000030" stroke-width="5" stroke-linecap="round" stroke-linejoin="round" stroke-miterlimit="10" d="
					M252,145.6V132h7.5"/>
				
					<path fill="none" stroke="#000030" stroke-width="5" stroke-linecap="round" stroke-linejoin="round" stroke-miterlimit="10" d="
					M301.5,132h7.5v13.6"/>
			</g>
		</g>
	</g>
	<g>
		<path fill="none" stroke="#000030" stroke-width="2" stroke-linecap="round" stroke-linejoin="round" stroke-miterlimit="10" d="
			M357.8,337.7c0,42.2-34.2,76.3-76.3,76.3s-76.3-34.2-76.3-76.3s34.2-76.3,76.3-76.3S357.8,295.5,357.8,337.7z"/>
		<path fill="none" stroke="#000030" stroke-width="2" stroke-linecap="round" stroke-linejoin="round" stroke-miterlimit="10" d="
			M210.1,337.7c0,39.5,32,71.4,71.4,71.4s71.4-32,71.4-71.4s-32-71.4-71.4-71.4S210.1,298.2,210.1,337.7z"/>
		<path fill="none" stroke="#000030" stroke-width="2" stroke-linecap="round" stroke-linejoin="round" stroke-miterlimit="10" d="
			M348,337.7c0,36.7-29.8,66.5-66.5,66.5S215,374.4,215,337.7s29.8-66.5,66.5-66.5S348,300.9,348,337.7z"/>
		<path fill="none" stroke="#000030" stroke-width="2" stroke-linecap="round" stroke-linejoin="round" stroke-miterlimit="10" d="
			M219.9,337.7c0,34,27.6,61.6,61.6,61.6s61.6-27.6,61.6-61.6S315.5,276,281.5,276S219.9,303.6,219.9,337.7z"/>
		<path fill="none" stroke="#000030" stroke-width="2" stroke-linecap="round" stroke-linejoin="round" stroke-miterlimit="10" d="
			M338.2,337.7c0,31.3-25.4,56.7-56.7,56.7s-56.7-25.4-56.7-56.7s25.4-56.7,56.7-56.7S338.2,306.3,338.2,337.7z"/>
		<path fill="none" stroke="#000030" stroke-width="2" stroke-linecap="round" stroke-linejoin="round" stroke-miterlimit="10" d="
			M229.7,337.7c0,28.6,23.2,51.8,51.8,51.8s51.8-23.2,51.8-51.8s-23.2-51.8-51.8-51.8S229.7,309,229.7,337.7z"/>
		<path fill="none" stroke="#000030" stroke-width="2" stroke-linecap="round" stroke-linejoin="round" stroke-miterlimit="10" d="
			M328.4,337.7c0,25.9-21,46.9-46.9,46.9s-46.9-21-46.9-46.9s21-46.9,46.9-46.9S328.4,311.8,328.4,337.7z"/>
	</g>
</g>
<g id="outline">
	<path fill="#000030" d="M581,302.2c-0.4-0.3-0.9-0.2-1.5-0.2H563V158.5c0-0.7-0.5-1.3-0.9-1.8l-12.1-12c-0.5-0.5-1.2-0.7-1.9-0.7
		H311v-6.3c0-1.4-1.1-2.7-2.4-2.7H253c-1.4,0-3,1.3-3,2.7v6.3h-86v-16.8c0-1.4-1.4-2.2-2.8-2.2H94.8c-1.4,0-2.8,0.8-2.8,2.2v5.8h-2
		v-8c0-1.4-1.4-2-2.8-2H58.6c-1.4,0-2.6,0.6-2.6,2v8H45.1c-1.4,0-2.1,1.4-2.1,2.8v8.2H14.9c-0.7,0-1.3,0.2-1.8,0.7l-12.2,12
		c-0.5,0.5-0.9,1.1-0.9,1.7v295.8c0,0.7,0.5,1.3,0.9,1.8l12.1,12.2c0.5,0.5,1.2,0.9,1.9,0.9H548c0.7,0,1.3-0.4,1.8-0.9l12.2-12.1
		c0.5-0.5,0.9-1.2,0.9-1.8V337h16.5c0.5,0,0.9-0.4,1.3-0.6c0.4-0.3,10.7-6.9,11.1-16.8C592.1,313.4,588.4,307.6,581,302.2z
		 M578.8,332h-18.7c-1.4,0-2.1,0.6-2.1,2v119.2L547,464H16L5,453.2V159.5L16,149h29.1c1.4,0,2.9-1.2,2.9-2.6V137h10.6
		c1.4,0,2.4-0.8,2.4-2.2V128h24v6.8c0,1.4,0.8,2.2,2.2,2.2h7.6c1.4,0,2.2-0.8,2.2-2.2V130h62v16.4c0,1.4,0.8,2.6,2.2,2.6H255v-6v-3
		h51l0,0v9h241l11,10.5V304c0,1.4,0.7,3,2.1,3h18.6c5.6,4,8.3,8.4,8.2,12.7C586.7,325.8,580.7,330,578.8,332z"/>
</g>
</svg>
