<?xml version="1.0" encoding="utf-8"?>
<!-- Generator: Adobe Illustrator 18.1.1, SVG Export Plug-In . SVG Version: 6.00 Build 0)  -->
<svg version="1.1" xmlns="http://www.w3.org/2000/svg" xmlns:xlink="http://www.w3.org/1999/xlink" x="0px" y="0px"
	 viewBox="0 0 600 600" enable-background="new 0 0 600 600" xml:space="preserve">
<g id="shadow">
	<ellipse fill="#000030" cx="317.5" cy="317.5" rx="228.9" ry="277.1"/>
</g>
<g id="illustration">
	<path fill="#FFFFFF" d="M439.6,80.6c-40.7-45.2-95-72.8-154.6-72.8C158.5,7.8,56,131.9,56,284.9c0,91.2,36.4,172.1,92.6,222.6
		c40.7,45.2,95,72.8,154.6,72.8c126.4,0,228.9-124.1,228.9-277.1C532.1,212,495.7,131.1,439.6,80.6z"/>
	<g>
		
			<path fill="#FFFFFF" stroke="#000030" stroke-width="5" stroke-linecap="round" stroke-linejoin="round" stroke-miterlimit="10" d="
			M532.1,303.2c0,153-102.5,277.1-228.9,277.1S74.3,456.2,74.3,303.2S176.8,26.1,303.2,26.1S532.1,150.1,532.1,303.2z"/>
		<path fill="none" stroke="#000030" stroke-width="5" stroke-linecap="round" stroke-linejoin="round" stroke-miterlimit="10" d="
			M173.4,464.7c-39-41.2-63.6-101.8-63.6-169.3c0-124.1,83.1-224.7,185.6-224.7c41.9,0,80.6,16.8,111.6,45.2"/>
		<path id="face" fill="#000030" d="M277.1,509.4c0.5,0,1,0,1.4,0.1l43.1-4.3c46.2-11.2,86.2-43.3,113.1-87.7
			c-21.3-14.3-56.1-28.9-66.2-32.3c-12-4-15.1-30.3-12.8-55c2.4-24.7,29.7-64,29.7-88.2c0-24.1-32.1-75.3-97.1-87.2
			c-65-12-77.4,26.3-83.7,35.9c-6.4,9.6-5.9,29.5-9.9,39.8c-4,10.4-8,34.3-5.6,37.7c2.4,3.4,1.2,17.1-5.2,21.9
			c-6.4,4.8-14,25.3-13.3,31c0.8,5.7,15.2,8.2,14.4,15.4c-0.8,7.2,4,19.9,12,25.5c8,5.6,2.5,19.4,7.2,27.9c5.4,9.9,40.7,8,43,8.7
			c2.4,0.8,45.4,43,40.7,52.4C283.5,460.3,277.6,506.1,277.1,509.4z"/>
		<g>
			<path fill="none" stroke="#000030" stroke-width="5" stroke-linecap="round" stroke-linejoin="round" stroke-miterlimit="10" d="
				M362.7,129.1L219.9,271.9"/>
			<path fill="none" stroke="#000030" stroke-width="5" stroke-linecap="round" stroke-linejoin="round" stroke-miterlimit="10" d="
				M267.8,194.5l66.3-65.1"/>
			<path fill="none" stroke="#000030" stroke-width="5" stroke-linecap="round" stroke-linejoin="round" stroke-miterlimit="10" d="
				M295.5,228.7l65.7-65.7"/>
		</g>
		<g>
			<path fill="none" stroke="#FFFFFF" stroke-width="5" stroke-linecap="round" stroke-linejoin="round" stroke-miterlimit="10" d="
				M255.1,236.7l69.7-69.7"/>
			<path fill="none" stroke="#FFFFFF" stroke-width="5" stroke-linecap="round" stroke-linejoin="round" stroke-miterlimit="10" d="
				M279.9,183.1L303,160"/>
			<path fill="none" stroke="#FFFFFF" stroke-width="5" stroke-linecap="round" stroke-linejoin="round" stroke-miterlimit="10" d="
				M312.5,211.8l31.8-31.8"/>
		</g>
		<path fill="#FFFFFF" d="M284.9,7.8C158.5,7.8,56,131.9,56,284.9s102.5,277.1,228.9,277.1S513.9,438,513.9,284.9
			S411.4,7.8,284.9,7.8z M284.9,509.6C182.4,509.6,99.3,409,99.3,284.9S182.4,60.3,284.9,60.3s185.6,100.6,185.6,224.7
			S387.4,509.6,284.9,509.6z"/>
		<path fill="none" stroke="#000030" stroke-width="2" stroke-linecap="round" stroke-linejoin="round" stroke-miterlimit="10" d="
			M64.2,284.9c0-147.6,98.8-267.2,220.7-267.2"/>
		<path fill="none" stroke="#000030" stroke-width="2" stroke-linecap="round" stroke-linejoin="round" stroke-miterlimit="10" d="
			M505.6,284.9c0,147.6-98.8,267.2-220.7,267.2"/>
		<path fill="none" stroke="#000030" stroke-width="5" stroke-linecap="round" stroke-linejoin="round" stroke-miterlimit="10" d="
			M470.5,284.9c0,124.1-83.1,224.7-185.6,224.7S99.3,409,99.3,284.9S182.4,60.3,284.9,60.3S470.5,160.8,470.5,284.9z"/>
		<path fill="none" stroke="#000030" stroke-width="5" stroke-linecap="round" stroke-linejoin="round" stroke-miterlimit="10" d="
			M513.9,284.9c0,153-102.5,277.1-228.9,277.1S56,438,56,284.9S158.5,7.8,284.9,7.8S513.9,131.9,513.9,284.9z"/>
	</g>
</g>
<g id="outline">
	<g>
		<path fill="#000030" d="M303.2,582.8c-58.1,0-113.6-26.1-156.4-73.5c-28.3-25.5-51.8-59-67.9-96.8C62,372.8,53.5,329.9,53.5,284.9
			c0-74.6,24-144.8,67.6-197.5C164.8,34.5,223,5.3,284.9,5.3c58.1,0,113.6,26.1,156.4,73.5c28.3,25.5,51.8,59,67.9,96.8
			c16.9,39.7,25.4,82.6,25.4,127.5c0,74.6-24,144.8-67.6,197.5C423.3,553.7,365.1,582.8,303.2,582.8z M284.9,10.3
			c-60.4,0-117.2,28.5-160,80.3c-42.9,51.9-66.5,120.9-66.5,194.4c0,44.3,8.4,86.5,25,125.6c15.8,37.2,38.9,70.1,66.7,95.2
			c0.1,0.1,0.1,0.1,0.2,0.2c41.8,46.4,96.1,72,152.8,72c60.4,0,117.2-28.5,160-80.3c42.9-51.9,66.5-120.9,66.5-194.4
			c0-44.3-8.4-86.5-25-125.6c-15.8-37.2-38.9-70.1-66.7-95.2c-0.1-0.1-0.1-0.1-0.2-0.2C395.9,35.9,341.6,10.3,284.9,10.3z"/>
	</g>
</g>
</svg>
