<?xml version="1.0" standalone="no"?>
<!DOCTYPE svg PUBLIC "-//W3C//DTD SVG 1.1//EN" "http://www.w3.org/Graphics/SVG/1.1/DTD/svg11.dtd" >
<svg xmlns="http://www.w3.org/2000/svg">
<metadata>Generated by IcoMoon</metadata>
<defs>
<font id="tsm" horiz-adv-x="1024">
<font-face units-per-em="1024" ascent="960" descent="-64" />
<missing-glyph horiz-adv-x="1024" />
<glyph unicode="&#x20;" horiz-adv-x="512" d="" />
<glyph unicode="&#xe600;" glyph-name="Aircon" horiz-adv-x="1195" d="M1194.667 448l-22.756 39.822h-170.667l62.578 102.4h-91.022l-62.578-102.4h-238.933l34.133 62.578 22.756 39.822 68.267 113.778h119.467l45.511 79.644h-119.467l79.644 136.533-22.756 39.822h-45.511l-85.333-142.222-56.889 108.089-51.2-79.644 62.578-108.089-62.578-113.778-22.756-34.133-39.822-68.267-39.822 68.267-22.756 34.133-62.578 113.778 62.578 108.089-51.2 79.644-56.889-108.089-85.333 142.222h-45.511l-22.756-39.822 79.644-136.533h-119.467l45.511-79.644h119.467l68.267-113.778 22.756-39.822 34.133-62.578h-238.933l-62.578 102.4h-91.022l62.578-102.4h-170.667l-22.756-39.822 22.756-39.822h164.978l-62.578-102.4h91.022l62.578 102.4h250.311l-34.133-68.267-22.756-34.133-62.578-102.4h-125.156l-45.511-79.644h125.156l-85.333-153.6 22.756-34.133h45.511l85.333 142.222 56.889-102.4 45.511 79.644-56.889 102.4 62.578 102.4 22.756 45.511 34.133 56.889 34.133-56.889 22.756-45.511 62.578-102.4-56.889-102.4 45.511-79.644 56.889 102.4 85.333-142.222h45.511l22.756 34.133-85.333 153.6h125.156l-45.511 79.644h-125.156l-62.578 102.4-22.756 34.133-34.133 68.267h250.311l62.578-102.4h91.022l-62.578 102.4h164.978z" />
<glyph unicode="&#xe601;" glyph-name="email" horiz-adv-x="1365" d="M0 960v-1024h1365.333v1024h-1365.333zM116.053 11.093l389.12 389.12 40.96-40.96c54.613-47.787 95.573-61.44 136.533-61.44s81.92 20.48 122.88 61.44v0l47.787 47.787 389.12-389.12h-1126.4zM68.267 837.12l389.12-389.12-389.12-389.12v778.24zM600.747 407.040l-477.867 484.693h1126.4l-484.693-484.693c-54.613-54.613-102.4-54.613-163.84 0zM901.12 448l395.947 389.12v-785.067l-395.947 395.947z" />
<glyph unicode="&#xe602;" glyph-name="Arrow2Down" d="M563.104 107.536v784.16c0 31.936-27.312 68.288-59.232 68.288-31.936 0-54.624-36.56-54.624-68.288l-0.016-784.176-296.256 237.008c-22.688 18.304-59.248 13.664-81.936-9.008-18.288-22.688-13.664-59.264 9.008-77.552l396.496-309.936c22.688-18.288 50.224-13.664 72.896 0l392.112 309.936c13.664 9.024 22.688 27.312 22.688 45.6 0 13.664-4.64 22.688-13.664 36.56-18.304 22.688-54.624 27.312-81.936 9.024l-305.536-241.616z" />
<glyph unicode="&#xe603;" glyph-name="Arrow2Right" d="M852.432 499.104h-784.176c-31.936 0-68.288-27.312-68.288-59.232 0-31.936 36.56-54.624 68.288-54.624l784.176-0.016-236.992-296.256c-18.304-22.688-13.664-59.248 9.008-81.936 22.688-18.288 59.264-13.664 77.552 9.008l309.936 396.496c18.288 22.688 13.664 50.224 0 72.896l-309.936 392.112c-9.024 13.664-27.312 22.688-45.6 22.688-13.664 0-22.688-4.64-36.576-13.664-22.688-18.304-27.312-54.624-9.024-81.936l241.632-305.536z" />
<glyph unicode="&#xe604;" glyph-name="Arrow2Up" d="M460.896 788.464v-784.192c0-31.936 27.312-68.288 59.232-68.288 31.936 0 54.624 36.56 54.624 68.288v784.192l296.288-236.992c22.672-18.304 59.248-13.664 81.936 9.008 18.288 22.688 13.664 59.264-9.024 77.552l-396.512 309.936c-22.688 18.288-50.224 13.664-72.896 0l-392.112-309.936c-13.664-9.024-22.688-27.312-22.688-45.6 0-13.664 4.64-22.688 13.664-36.576 18.304-22.688 54.624-27.312 81.936-9.024l305.552 241.632z" />
<glyph unicode="&#xe605;" glyph-name="Arrow2Left" d="M171.536 396.896h784.192c31.936 0 68.288 27.312 68.288 59.248s-36.56 54.624-68.288 54.624h-784.192l236.992 296.272c18.304 22.672 13.664 59.248-9.008 81.936-22.688 18.288-59.264 13.664-77.552-9.024l-309.936-396.512c-18.288-22.688-13.664-50.224 0-72.896l309.936-392.112c9.024-13.664 27.312-22.688 45.6-22.688 13.664 0 22.688 4.64 36.576 13.664 22.688 18.304 27.312 54.624 9.024 81.936l-241.632 305.552z" />
<glyph unicode="&#xe60b;" glyph-name="Currency" horiz-adv-x="484" d="M20.177 364.768h95.842c-10.089 25.222-20.177 50.443-30.266 70.621s-20.177 45.399-35.31 70.621c-10.089 25.222-20.177 55.488-25.222 85.754s-10.089 70.621-10.089 116.020c0 80.709 20.177 146.286 60.532 186.64s95.842 65.576 171.507 65.576 136.197-20.177 176.552-65.576c40.355-45.399 60.532-105.931 60.532-186.64v-100.887h-151.33v110.975c0 35.31-5.044 60.532-20.177 75.665s-35.31 20.177-60.532 20.177-45.399-5.044-55.488-20.177c-15.133-15.133-25.222-40.355-25.222-75.665 0-45.399 5.044-85.754 10.089-116.020 10.089-35.31 20.177-60.532 30.266-90.798l30.266-75.665c10.089-25.222 20.177-50.443 25.222-75.665h176.552v-121.064h-161.419c-5.044-35.31-15.133-65.576-30.266-90.798s-30.266-45.399-55.488-65.576h272.394v-146.286h-469.123v141.241c35.31 0 70.621 15.133 95.842 45.399s40.355 70.621 40.355 121.064h-116.020v121.064z" />
<glyph unicode="&#xe60e;" glyph-name="Door" horiz-adv-x="1078" d="M425.768 960s-26.947 0-107.789-26.947c-75.453-32.337-317.979-355.705-317.979-355.705l199.411-641.347h878.484v1024h-652.126zM317.979 307.874h-134.737c-16.168 0-32.337 10.779-37.726 21.558h113.179c5.389 0 10.779 5.389 10.779 10.779s-5.389 10.779-10.779 10.779h-113.179c5.389 16.168 21.558 26.947 37.726 26.947h134.737c21.558 0 37.726-16.168 37.726-37.726 5.389-16.168-16.168-32.337-37.726-32.337zM1024 426.442h-905.432l-48.505 129.347s231.747 344.926 377.263 344.926h576.674v-474.274z" />
<glyph unicode="&#xe611;" glyph-name="DropdownArrow" horiz-adv-x="1866" d="M1865.956 960l-932.978-1024-932.978 1024h1865.956z" />
<glyph unicode="&#xe612;" glyph-name="Edit" horiz-adv-x="1092" d="M0-64l294.072 110.277-178.544 162.79-115.528-273.067zM1060.759 928.492c-47.262 42.010-131.282 42.010-178.544 0l-703.672-661.662 178.544-162.79 703.672 656.41c47.262 47.262 47.262 120.779 0 168.041z" />
<glyph unicode="&#xe613;" glyph-name="ExpandCloseMinus" d="M0 528.848h1024v-161.696h-1024v161.696z" />
<glyph unicode="&#xe614;" glyph-name="ExpandClose" d="M1024 448c0 283.106-228.894 512-512 512s-512-228.894-512-512 228.894-512 512-512 512 228.894 512 512zM331.294 195.012l-72.282 72.282 180.706 180.706-180.706 180.706 72.282 72.282 180.706-180.706 180.706 180.706 72.282-72.282-180.706-180.706 180.706-180.706-72.282-72.282-180.706 180.706-180.706-180.706z" />
<glyph unicode="&#xe615;" glyph-name="ExpandOpen" d="M873.412 809.412c-198.776 198.776-524.047 198.776-722.824 0s-198.776-524.047 0-722.824c198.776-198.776 524.047-198.776 722.824 0s198.776 524.047 0 722.824zM560.188 146.824h-102.4v252.988h-252.988v102.4h252.988v246.965h102.4v-252.988h252.988v-102.4h-246.965l-6.024-246.965z" />
<glyph unicode="&#xe616;" glyph-name="ExpandOpenPlus" d="M592.842 528.842v431.158h-161.684v-431.158h-431.158v-161.684h431.158v-431.158h161.684v431.158h431.158v161.684h-431.158z" />
<glyph unicode="&#xe617;" glyph-name="FlightsInbound" d="M675.84 939.52c-5.12-5.12-10.24-15.36-10.24-35.84 5.12-20.48 30.72-168.96 40.96-215.040-61.44-51.2-128-102.4-143.36-117.76l-133.12-112.64-76.8 92.16s-148.48 261.12-179.2 317.44l-15.36-20.48c-20.48-25.6-15.36-51.2-15.36-66.56s81.92-250.88 107.52-327.68c-25.6-20.48-51.2-46.080-56.32-51.2-10.24-10.24-15.36-20.48-5.12-30.72l20.48-20.48c5.12-5.12 15.36-5.12 30.72 5.12 5.12 5.12 15.36 20.48 30.72 35.84l25.6-81.92c-71.68-66.56-133.12-138.24-174.080-179.2-56.32-56.32-97.28-112.64-107.52-138.24s-20.48-35.84-5.12-51.2c15.36-15.36 25.6-5.12 51.2 5.12s81.92 51.2 138.24 107.52c40.96 40.96 112.64 107.52 179.2 174.080l81.92-25.6c-20.48-15.36-30.72-25.6-35.84-30.72-15.36-10.24-15.36-20.48-10.24-25.6l20.48-20.48c5.12-5.12 15.36-5.12 30.72 5.12 5.12 5.12 25.6 30.72 51.2 56.32 76.8-25.6 312.32-107.52 327.68-107.52s40.96-5.12 61.44 10.24l20.48 15.36c-56.32 30.72-317.44 179.2-317.44 179.2l-92.16 81.92 112.64 133.12c15.36 15.36 66.56 76.8 117.76 143.36 46.080-10.24 194.56-35.84 215.040-40.96s25.6 0 30.72 10.24c15.36 5.12 30.72 15.36 30.72 15.36-25.6 10.24-174.080 102.4-194.56 117.76 15.36 20.48 20.48 35.84 20.48 40.96-5.12 5.12-15.36-5.12-40.96-20.48-15.36 20.48-107.52 174.080-117.76 194.56 0 0-10.24-15.36-15.36-20.48z" />
<glyph unicode="&#xe61a;" glyph-name="FlipPanelArrow" horiz-adv-x="1029" d="M1028.551 691.484l-282.169 268.516-273.067-268.516h209.351v-364.089c0-150.187-122.88-254.862-273.067-254.862s-273.067 104.676-273.067 254.862v136.533h-136.533v-136.533c0-227.556 186.596-391.396 409.6-391.396s405.049 163.84 409.6 391.396v364.089h209.351z" />
<glyph unicode="&#xe61d;" glyph-name="refresh" horiz-adv-x="1030" d="M1029.505 481.032l-165.161-11.011c0 88.086-38.538 176.172-110.108 242.237-143.14 126.624-363.355 110.108-495.484-38.538 0 0 0 0 0 0l99.097-88.086-313.806-27.527-5.505 308.301 99.097-88.086c0 0 0 0 0 0 198.194 220.215 523.011 242.237 732.215 55.054 99.097-93.591 154.151-220.215 159.656-352.344zM990.968 29.591l-5.505 308.301-308.301-22.022 99.097-88.086c0 0 0 0 0 0-132.129-148.645-357.849-165.161-495.484-38.538-71.57 66.065-104.602 148.645-110.108 242.237l-170.667-11.011c5.505-132.129 55.054-264.258 159.656-357.849 209.204-187.183 534.022-165.161 732.215 55.054 0 0 0 0 0 0l99.097-88.086z" />
<glyph unicode="&#xe61e;" glyph-name="Info" horiz-adv-x="394" d="M9.924 83.703c4.847 14.77 9.924 34.387 14.77 59.081l93.469 334.871 4.847 24.694c0 19.617-4.847 34.387-19.617 39.465-14.77 4.847-34.387 9.924-69.005 9.924v34.387c29.541 0 69.005 4.847 123.009 9.924 54.235 9.924 88.622 14.77 113.316 19.617l63.928 14.77-118.163-423.493c-9.924-34.387-14.77-59.081-19.617-73.852-9.924-34.387-14.77-59.081-14.77-69.005s0-19.617 4.847-19.617c4.847-4.847 9.924-4.847 14.77-4.847 14.77 0 34.387 14.77 59.081 39.465s44.311 54.235 59.081 78.698l34.387-19.617c-49.158-69.005-88.622-118.163-113.316-142.857-44.311-39.465-88.622-59.081-137.78-59.081-29.541 0-54.235 9.924-73.852 24.694-19.617 4.847-29.541 34.387-29.541 69.005 0.231 9.462 5.077 29.079 10.155 53.773zM364.412 930.459c19.617-19.617 29.541-44.311 29.541-69.005 0-29.541-9.924-49.158-29.541-69.005s-44.311-29.541-73.852-29.541-54.235 9.924-73.852 29.541-29.541 44.542-29.541 69.236c0 29.541 9.924 49.158 29.541 69.005 24.694 19.617 49.158 29.541 73.852 29.541 24.463-0.231 54.004-9.924 73.852-29.771z" />
<glyph unicode="&#xe61f;" glyph-name="Insurance" horiz-adv-x="985" d="M512 920.615v39.385h-44.308v-39.385c-260.923-14.769-467.692-226.462-467.692-487.385 108.308 93.538 211.692 113.231 310.154 0 54.154 39.385 108.308 64 157.538 68.923v-428.308c0-49.231-39.385-98.462-93.538-98.462s-93.538 49.231-93.538 98.462h-34.462c0-73.846 59.077-137.846 132.923-137.846s132.923 64 132.923 137.846v433.231c49.231-4.923 98.462-29.538 142.769-68.923 103.385 103.385 211.692 118.154 324.923 0 4.923 256-201.846 467.692-467.692 482.462z" />
<glyph unicode="&#xe622;" glyph-name="LogoMoneySupermarketCompany" horiz-adv-x="1544" d="M168.606 860.465c0-2.413 0-2.413-2.413-4.826 0 0-2.413-4.826-9.652-4.826-4.826-4.826-4.826-4.826-11.763-4.826-2.413 0-7.239-2.413-11.763-2.413 0 0-2.413 0-2.413-2.413h-2.413c2.413-9.652 4.826-28.654 4.826-30.765l2.413-7.239c2.413-9.652 4.826-16.589 7.239-23.828 0-7.239 4.826-21.415 7.239-30.765 0-4.826 2.413-7.239 2.413-9.652v-4.826c4.826-21.415 9.652-45.243 9.652-49.767 0-2.413 0-4.826 2.413-4.826 0-2.413 2.413-4.826 2.413-7.239v-2.413c0-4.826-2.413-9.652-7.239-11.763h-7.239c-2.413 0-2.413 0-4.826 2.413s-4.826 7.239-4.826 9.652v4.826c0 4.826 0 7.239-2.413 11.763 0 2.413-2.413 7.239-2.413 9.652-2.413 4.826-2.413 4.826-2.413 7.239v2.413s0 2.413 2.413 4.826l2.413 2.413v2.413c-4.826 2.413-7.239 7.239-7.239 11.763v12.065c0 2.413-2.413 4.826-2.413 7.239s0 2.413-2.413 4.826v9.652c-2.413 4.826-2.413 9.652-2.413 11.763v4.826s-2.111 4.223-2.111 8.747c0 2.413 0 4.826-2.413 4.826l-2.413 2.413v7.239c0 2.413-2.413 4.826-2.413 7.239v16.891c0 2.413-2.413 4.826-2.413 7.239v4.826c-4.826 0-9.652-2.413-11.763-4.826-2.413 0-4.826 0-7.239-2.413-2.413 0-9.652-2.413-9.652-2.413-7.239 0-19.002-4.826-23.828-4.826 0-2.413-2.413-4.826-2.413-7.239s-2.413-4.826-2.413-7.239-7.239-16.589-7.239-21.415c-2.413-2.413-2.413-7.239-4.826-9.652 0-4.826-2.413-9.652-2.413-11.763 0-4.826-2.413-9.652-4.826-14.176v-2.413s0-2.413-2.413-4.826c0-2.413-2.413-7.239-2.413-7.239 0-2.413-2.413-7.239-2.413-9.652v-4.826c0-2.413 0-4.826-2.413-7.239-2.413-4.826-7.239-4.826-9.652-4.826-4.826 0-7.239 4.826-7.239 9.652 0 2.413 0 4.826 2.413 7.239 0 0 0 2.413 2.413 4.826v4.826c0 2.413 2.413 4.826 4.826 7.239v2.413c0 2.413 0 2.413 2.413 4.826 0 0 0 2.413 2.413 4.826 0 2.413 0 4.826 2.413 4.826 0 0 0 2.413 2.413 4.826l2.413 7.239c0 2.413 2.413 4.826 4.826 9.652 2.413 2.413 2.413 4.826 2.413 4.826v2.413c0 4.826 2.413 7.239 4.826 9.652s2.413 4.826 2.413 7.239c-2.413 0-2.413 0-4.826-2.413-2.413 0-4.826-2.413-7.239-2.413-7.239 7.239-9.652 4.826-11.763 4.826l-4.826-4.826c-1.81-3.318-6.636-3.318-8.747-3.318h-2.413c-2.413 0-7.239 2.413-7.239 9.652s7.239 7.239 7.239 7.239 2.413 2.413 4.826 2.413c2.413 2.413 4.826 4.826 7.239 4.826 0 0 2.413 0 4.826 2.413s7.239 2.413 9.652 4.826c4.826 0 7.239 2.413 9.652 4.826l4.826 2.413c0 2.413 0 4.826 2.413 7.239 0 2.413 4.826 9.652 4.826 11.763 0 2.413 0 4.826 2.413 7.239 0 2.413 2.413 4.826 2.413 7.239 0 4.826 2.413 7.239 4.826 11.763l2.413 2.413c0 2.413 2.413 4.826 2.413 7.239l4.826 11.763c2.413 2.413 2.413 7.239 4.826 9.652 0 4.826 2.413 7.239 2.413 9.652 2.413 4.826 4.826 11.763 4.826 14.176s2.413 7.239 4.826 11.763l2.413 2.413v2.413c0 2.413 2.413 7.239 7.239 7.239h9.652c4.826 0 7.239-2.413 7.239-7.239v-21.717c0-2.413 2.413-9.652 2.413-14.176 0-4.826 0-11.763 2.413-16.589 0-4.826 2.413-11.763 2.413-19.002v-9.652c0-7.239 2.413-14.176 2.413-16.589l11.763 2.413c2.413 0 4.826 0 7.239 2.413 2.413 0 4.826 0 7.239 2.413 2.413 0 2.413 0 4.826 2.413 0-2.413 2.413 0 4.826 0 0.302-0.905 2.413-3.318 4.826-5.429zM78.421 860.465c-2.413-2.413-4.826-4.826-4.826-7.239s-2.413-9.652-4.826-11.763c2.413 0 7.239 2.413 9.652 2.413s7.239 2.413 9.652 2.413c4.826 2.413 9.652 2.413 14.176 2.413h4.826v2.413c0 2.413-2.413 9.652-2.413 11.763s0 7.239-2.413 11.763c0 7.239-2.413 9.652-2.413 9.652v4.826c0 2.413 0 4.826-2.413 7.239 0 4.826 0 14.176-2.413 16.589v4.826h-2.413v-14.176c0-2.413 0-2.413-2.413-4.826 0-2.413 0-4.826-2.413-7.239 0-2.413-2.413-7.239-4.826-11.763 0-2.413-2.413-7.239-2.413-9.652 0.302-2.715-2.111-7.541-2.111-9.652zM375.517 159.5h7.239l2.413-2.413c2.413-2.413 2.413-4.826 2.413-9.652v-2.413c-2.413-7.239-4.826-7.239-4.826-11.763v-2.413c0-2.413-2.413-2.413-2.413-7.239 0-2.413-2.413-4.826-4.826-7.239l-2.413-2.413c0-2.413-2.413-2.413-2.413-4.826-2.413-2.413-2.413-2.413-2.413-4.826-2.413-4.826-4.826-9.652-7.239-11.763 0-2.413-2.413-4.826-4.826-4.826v-4.826l-2.413-4.826c-2.413-2.413-2.413 0-4.826-4.826l-2.413-2.413c-4.826-2.413-7.239-4.826-11.763-7.239l-2.413-4.826-2.413-2.413c-4.826-2.413-9.652-7.239-14.176-9.652h-2.413c-4.826-2.413-9.652-2.413-14.176-4.826h-2.413c-4.826 0-9.652 0-11.763 2.413h-2.413c-2.413 2.413-4.826 2.413-4.826 2.413h-2.413c-2.413 0-4.826 2.413-7.239 4.826-4.826 2.413-14.176 14.176-16.589 19.002v4.826c-2.413 4.826-4.826 14.176-7.239 19.002v12.065c-2.413 11.763-4.826 23.828-4.826 35.591 0 28.654 7.239 57.006 19.002 78.421h2.413l2.413 4.826c7.239 14.176 14.176 26.241 35.591 26.241 4.826 0 7.239 0 14.176-7.239l9.652-9.652 4.826-9.652h2.413v9.652c-2.413 7.239-2.413 16.589-2.413 21.415v4.826c2.413 4.826 2.413 4.826 7.239 7.239h2.413l7.239-7.239v-26.543c0-4.826 2.413-11.763 2.413-19.002 0-4.826 2.413-11.763 2.413-16.589v-9.652c0-2.413 0-2.413 2.413-4.826 0 0 2.413-2.413 0-2.413 2.413-2.413 2.413-4.826 2.413-11.763 0-4.826-4.826-9.652-7.239-9.652-4.826 0-7.239 2.413-7.239 4.826-2.413 4.826-2.413 7.239-4.826 11.763 0 2.413 0 2.413-2.413 4.826v14.478c-2.413 4.826-2.413 11.763-4.826 19.002-2.413 4.826-4.826 11.763-7.239 14.176l-4.826 4.826c-2.413 4.826-9.652 9.652-14.176 9.652h-4.826c-2.413 0-2.413-2.413-2.413-2.413l-2.413-2.413c-2.413 0-2.413-2.413-2.413-2.413l-2.413-2.413v-4.826c-2.413-2.413-4.826-7.239-7.239-11.763l-2.413-2.413v-2.413c-2.413-2.413-2.413-4.826-4.826-9.652v-4.826l-2.413-11.763c-4.826-11.763-7.239-28.654-7.239-42.83 0-11.763 2.413-21.415 2.413-30.765v-16.589s0-2.413 2.413-2.413l2.413-4.826c4.826-11.763 9.652-23.828 19.002-28.654 2.413 0 7.239-2.413 9.652-2.413 4.826 0 7.239 0 11.763 2.413h2.413c2.413 2.413 7.239 2.413 11.763 4.826 11.763 7.239 23.828 19.002 30.765 26.241l7.239 7.239c2.413 2.413 4.826 4.826 4.826 7.239v2.413c0 2.413 2.413 4.826 2.413 4.826l2.413 2.413v2.413l4.826 4.826v2.413l2.413 2.413v2.413c2.413 2.413 4.826 7.239 4.826 9.652v4.826c-2.413 4.826-4.826 2.413-4.826 7.239-6.334 2.715-6.334 5.128-3.921 7.541zM498.88 126.322c0-2.413-4.826-9.652-4.826-9.652-2.413-2.413-4.826-7.239-4.826-7.239 0-2.413-2.413-7.239-4.826-9.652s-4.826-7.239-7.239-9.652c-2.413-2.413-4.826-7.239-7.239-7.239s-7.239-4.826-9.652-7.239c-2.413-2.413-7.239-4.826-11.763-7.239-2.413-2.413-4.826-4.826-9.652-4.826s-7.239-4.826-11.763-4.826c-4.826 0-9.652 0-11.763 2.413-2.413 0-7.239 2.413-9.652 4.826l-7.239 7.239c-2.413 2.413-2.413 4.826-2.413 7.239v21.415c0 2.413 2.413 4.826 2.413 7.239s2.413 7.239 2.413 9.652c0 2.413 2.413 7.239 2.413 7.239 0 2.413 2.413 4.826 2.413 9.652 2.413 2.413 4.826 9.652 4.826 11.763 0 2.413 2.413 7.239 2.413 9.652s2.413 4.826 2.413 7.239c2.413 2.413 2.413 9.652 2.413 9.652-2.413 2.413-2.413-2.413-4.826-2.413-2.413-2.413-4.826-2.413-4.826-4.826l-4.826-4.826s-2.413 0-2.413 2.413 0 4.826 2.413 7.239c2.413 2.413 2.413 4.826 2.413 4.826 2.413 0 2.413 2.413 4.826 4.826s4.826 4.826 7.239 4.826c2.413 2.413 4.826 0 7.239 2.413s2.413 4.826 2.413 4.826 2.413 4.826 4.826 4.826h4.826c2.413 0 4.826 0 4.826-2.413v-2.413c2.413 0 4.826 2.413 4.826 2.413 2.413 0 4.826 2.413 7.239 0h19.304c2.413 0 4.826-2.413 7.239-2.413s7.239-2.413 9.652-4.826l7.239-7.239c2.413-2.413 4.826-9.652 4.826-11.763v-7.239c0-2.413 2.413-4.826 2.413-9.652-2.413-4.826 0-4.826 0-9.652 0-2.413 0-7.239-2.413-11.763-0.905-0.302-3.318-2.715-3.318-4.826zM494.054 157.087c-2.413 14.176-7.239 16.589-9.652 21.415-2.413 2.413-11.763 4.826-16.589 4.826s-7.239 2.413-9.652 2.413c-4.826-2.413-7.239 0-7.239 0-2.413 0-2.413-2.413-4.826-2.413h-7.239c-2.413 0 0-2.413 0-4.826s-2.413-2.413-2.413-4.826-2.413-2.413-2.413-7.239c0-2.413-2.413-4.826-2.413-7.239s-2.413-9.652-4.826-11.763c-2.413-2.413-2.413-2.413-2.413-4.826s-4.826-7.239-4.826-11.763c0-4.826-2.413-7.239-2.413-9.652s-2.413-11.763-4.826-14.176c-2.413-2.413 0-9.652 0-11.763s-2.413-4.826 0-7.239c0-2.413 2.413-7.239 4.826-9.652s4.826-2.413 7.239-2.413h9.652c4.826 2.413 7.239 2.413 11.763 4.826 2.413 2.413 9.652 4.826 14.176 7.239s7.239 7.239 11.763 11.763l9.652 9.652c2.413 4.826 4.826 7.239 7.239 9.652s4.826 9.652 4.826 11.763c0 2.413 2.413 7.239 2.413 9.652s2.413 4.826 0 7.239c-1.81 4.524-1.81 6.937-1.81 9.35zM525.12 192.679s2.413 0 2.413-2.413v-9.652c0-2.413 0-4.826 2.413-4.826 0-2.413 2.413-7.239 2.413-7.239 0-2.413 2.413-9.652 2.413-11.763 0-2.413 2.413-7.239 0-9.652 0-2.413 2.413-4.826 2.413-4.826v-2.413c2.413 0 2.413 2.413 2.413 4.826s2.413 7.239 2.413 7.239v2.413c2.413 0 0 4.826 2.413 7.239s4.826 9.652 4.826 11.763c0 2.413 4.826 2.413 4.826 4.826 2.413 2.413 2.413 7.239 4.826 7.239s4.826 4.826 4.826 2.413c2.413 0 4.826-2.413 7.239-4.826 0-2.413 2.413-4.826 2.413-4.826s7.239-16.589 7.239-21.415c0-4.826 2.413-11.763 2.413-14.176v-21.717s2.413-7.239 2.413-9.652c0-2.413-2.413-4.826 0-7.239 0-2.413 0-7.239 2.413-7.239s2.413 4.826 2.413 4.826c0 2.413 4.826 14.176 7.239 19.002s2.413 7.239 2.413 9.652c0 2.413 2.413 7.239 2.413 9.652s2.413 7.239 4.826 9.652c2.413 2.413 4.826 7.239 4.826 9.652s2.413 7.239 4.826 9.652c2.413 2.413 4.826 9.652 7.239 9.652 2.413 2.413 4.826 7.239 7.239 7.239 2.413 2.413 4.826 2.413 7.239 2.413s7.239-2.413 9.652-4.826c2.413-2.413 4.826-4.826 4.826-7.239s2.413-9.652 2.413-11.763c0-2.413 0-11.763 2.413-14.176s2.413-11.763 2.413-16.589v-28.654c0-2.413 2.413-4.826 0-4.826 0-2.413-2.413-2.413 0-4.826v-7.239s0-4.826-2.413-7.239c-2.413-2.413 0-4.826 0-4.826 0-2.413-2.413-11.763-2.413-11.763v-4.826l-2.413-2.413c-2.413-2.413-4.826-4.826-7.239-4.826s-2.413 4.826-4.826 4.826v19.002c0 4.826 2.413 7.239 2.413 7.239v4.826c0 2.413 2.413 4.826 2.413 7.239v4.826c0 2.413 2.413 7.239 2.413 9.652v19.304c-2.413 2.413-2.413 7.239-2.413 7.239 0 2.413 2.413 4.826 0 7.239v11.763c0 2.413 0 2.413-2.413 4.826s-2.413 4.826-2.413 4.826-2.413 2.413-2.413 4.826c0 0 0 2.413-2.413 2.413s-4.826-4.826-7.239-4.826c0-2.413-4.826-4.826-4.826-7.239s-4.826-9.652-7.239-11.763c-2.413-2.413-4.826-7.239-4.826-9.652s-2.413-9.652-4.826-11.763c0-2.413-2.413-7.239-4.826-9.652 0-2.413-2.413-7.239-2.413-9.652s-2.413-4.826-2.413-7.239c0-2.413 0-7.239-2.413-9.652s-2.413-4.826-2.413-7.239c0-2.413 0-4.826-2.413-7.239 0-4.826-2.413-4.826-2.413-7.239s-2.413-7.239-2.413-7.239c0-2.413-2.413-9.652-2.413-11.763s0-7.239-2.413-9.652c-2.413-2.413-2.413-4.826-4.826-4.826h-7.239c-2.413 2.413 0 2.413-2.413 4.826s0 7.239 0 7.239v7.239c0 2.413 2.413 4.826 2.413 7.239l-2.413 2.413c0 2.413 2.413 2.413 2.413 4.826v19.002s2.413 7.239 2.413 9.652v7.239s-2.413 7.239 0 9.652v16.891c0 2.413-2.413 7.239-2.413 9.652 0 4.826 0 7.239-2.413 9.652s-2.413 4.826-2.413 7.239v4.826c0 2.413-2.413 4.826-2.413 4.826-2.413 0-2.413-2.413-4.826-4.826 0 0-2.413-2.413-2.413-4.826-2.413 0-2.413-2.413-2.413-2.413 0-2.413 0-2.413-2.413-4.826 0-2.413 0-4.826-2.413-7.239 0-2.413-2.413-4.826-2.413-4.826 0-2.413-2.413-7.239-2.413-9.652v-9.652c0-2.413-2.413-4.826-2.413-4.826v-45.846c0-2.413-2.413-2.413-4.826-2.413s-2.413-2.413-4.826-2.413-2.413 0-4.826 2.413-2.413 2.413-2.413 4.826 2.413 4.826 0 7.239v57.609c0 2.413-2.413 4.826-2.413 7.239s0 4.826-2.413 7.239v7.239c0 2.413-2.413 7.239-2.413 9.652s0 4.826-2.413 7.239c0 2.413-2.413 7.239-2.413 7.239s0 4.826-2.413 4.826c0 2.413-2.413 4.826-2.413 4.826s0 2.413 2.413 4.826 4.826 2.413 7.239 2.413c7.239-1.508 7.239-3.921 9.652-6.334zM805.325 133.259c-7.239-4.826-7.239-7.239-9.652-9.652l-7.239-7.239c-2.413 0-11.763-7.239-11.763-7.239-2.413-2.413-7.239-4.826-14.176-7.239-4.826-2.413-7.239-4.826-9.652-4.826s-7.239-2.413-9.652-2.413c-2.413 0-4.826-2.413-9.652-2.413-4.826-2.413-4.826 0-7.239-2.413-2.413 0 0-2.413-2.413-2.413h-11.763s-4.826-2.413-2.413-2.413c0-2.413 2.413-2.413 2.413-4.826v-9.652c0-2.413 2.413-2.413 0-4.826 0-2.413 2.413-9.652 2.413-11.763s-2.413-2.413-2.413-4.826 2.413-2.413 2.413-7.239c0-4.826 2.413-14.176 2.413-16.589v-21.415c0-2.413 0-11.763-4.826-14.176s-2.413-2.413-4.826-2.413-2.413 4.826-4.826 7.239c0 2.413-2.413 4.826-2.413 9.652v14.176c0 4.826 2.413 7.239 0 9.652v7.239c0 2.413-2.413 14.176-2.413 19.002-2.413 4.826 2.413 4.826 0 4.826 0 2.413-2.413 2.413-2.413 4.826v21.415s0 2.413-2.413 2.413-4.826 0-7.239 2.413c-2.413 2.413-4.826 4.826-4.826 9.652s0 2.413 2.413 4.826c0 2.413 2.413 2.413 2.413 2.413 2.413 0 4.826 0 4.826-2.413v-4.826c2.413-2.413 4.826 0 4.826 0 2.413 0 0 2.413 0 4.826v7.239l2.413 7.239c0 2.413-2.413 7.239-2.413 9.652s2.413 4.826 2.413 4.826l-2.413 2.413v7.239s2.413 4.826 0 7.239c0 2.413 2.413 7.239 0 7.239s-2.413 0-4.826-2.413c0-2.413-2.413-4.826-2.413-4.826h-7.239c-2.413 2.413-2.413 2.413-2.413 4.826v4.826c0 2.413 2.413 4.826 2.413 4.826 0 2.413 0 2.413 2.413 4.826s7.239 9.652 9.652 11.763c2.413 0 0 2.413 2.413 4.826 0 2.413 2.413 4.826 4.826 4.826s2.413 2.413 4.826 2.413 2.413-4.826 4.826-4.826 4.826 2.413 4.826 4.826h4.826c2.413 0 2.413 2.413 7.239 2.413 2.413 0 9.652 2.413 11.763 2.413 2.413 0 4.826-2.413 7.239-2.413s4.826 2.413 7.239 0c2.413 0 9.652-2.413 11.763-2.413 2.413 0 14.176-4.826 19.002-4.826 4.826-2.413 11.763-4.826 14.176-7.239 4.826-2.413 11.763-7.239 14.176-11.763 2.413-2.413 2.413-11.763 2.413-14.176-1.81-8.144-1.81-17.494-9.049-22.32zM793.562 164.326c-2.413 2.413-11.763 7.239-14.176 7.239-2.413 2.413-4.826 0-7.239 2.413-2.413 0-9.652 2.413-9.652 4.826-2.413 0-4.826-2.413-7.239 0s-9.652 0-9.652 0h-7.239c-2.413 0-4.826-2.413-7.239-2.413s-9.652-2.413-11.763-2.413c-2.413 0-7.239-4.826-7.239-4.826v-69.071c-2.413-2.413 0-4.826 2.413-4.826s2.413 2.413 4.826 2.413 11.763 2.413 14.176 2.413c4.826 0 2.413 0 4.826 2.413s4.826 2.413 7.239 2.413 4.826 2.413 7.239 2.413 4.826 2.413 4.826 2.413c2.413 2.413 2.413 2.413 7.239 2.413 2.413 2.413 4.826 2.413 9.652 4.826s7.239 4.826 9.652 7.239c2.413 2.413 7.239 4.826 7.239 7.239l7.239 7.239c4.826 2.413 2.413 7.239 4.826 9.652v4.826c-5.128 6.334-7.541 8.747-9.953 11.16zM1047.828 173.677v-7.239c0-2.413 0-4.826 2.413-7.239v-4.826c0-2.413 0-2.413-2.413-2.413 2.413-2.413 2.413-2.413 2.413-4.826s-2.413-4.826-2.413-7.239c0-2.413 0-2.413 2.413-4.826v-23.828c0-4.826 0-11.763 2.413-16.589l-2.413-2.413c0-2.413 2.413-2.413 2.413-4.826v-2.413l2.413-2.413c0-9.652 0-19.002 7.239-26.241v-2.413s4.826-2.413 4.826-4.826v-2.413c7.239-7.239 11.763-11.763 19.002-14.176h2.413c4.826 0 7.239-2.413 9.652-4.826v2.413c0-2.413 2.413-2.413 2.413-2.413 2.413 0 7.239 2.413 9.652 2.413h2.413v2.413l2.413-2.413c-11.763-9.652-23.828-7.239-40.417-7.239-9.652 4.826-19.002 4.826-23.828 16.589h-2.413c-14.176 23.828-14.176 49.767-16.589 78.421v31.067l-2.413 2.413v7.239c0 4.826-2.413 9.652-4.826 14.176 0 0 0 2.413-2.413 2.413-2.413-7.239-11.763-7.239-11.763-14.176-2.413-2.413 0-7.239-4.826-7.239-2.413-4.826-4.826-11.763-7.239-11.763v-2.413l-3.016-1.508v-7.239c0-4.826-2.413-7.239-4.826-11.763h2.413l-2.413-2.413c-2.413-4.826-2.413-9.652-7.239-14.176 2.413 0 2.413-2.413 2.413-2.413 0-2.413-2.413-7.239-4.826-9.652l-4.826-14.176c2.413 0 2.413-2.413 2.413-2.413 0-2.413-2.413-2.413-2.413-4.826 0-4.826 0-7.239-4.826-9.652-2.413 0-2.413 2.413-2.413 4.826-2.413-2.413 0-7.239-4.826-7.239h-2.413c0 2.413-2.413 4.826-2.413 7.239s0 2.413 2.413 4.826c-2.413 0-2.413 2.413-2.413 2.413 0 2.413 2.413 4.826 2.413 9.652v4.826c0 2.413 2.413 4.826 2.413 7.239v9.652c0 4.826 0 7.239-2.413 11.763-2.413-4.826-4.826-7.239-4.826-11.763l-2.413-2.413c-7.239-16.589-19.002-40.417-42.83-42.83h-2.413c-4.826 0-4.826 2.413-9.652 4.826h2.413v2.413c-7.239 0-9.652 11.763-11.763 19.002v4.826s0 2.413-2.413 2.413l2.413 2.413h-2.413c-2.413 0-2.413 0-2.413 2.413v4.826s0 2.413-2.413 2.413c-2.413 4.826 0 9.652-2.413 14.176v2.413c-2.413 2.413-2.413 2.413-2.413 4.826v7.239h-4.826v-2.413s0-2.413-2.413-2.413c-2.413-7.239-9.652-11.763-11.763-19.002-7.239-4.826-11.763-14.176-19.002-19.002-11.763-7.239-26.241-21.415-40.417-21.415h-4.826c-4.826 2.413-9.652 7.239-9.652 14.176 0 11.763 7.239 14.176 9.652 23.828 2.413 0 2.413 2.413 2.413 4.826v2.413l21.415 26.241c4.826 0 2.413 7.239 7.239 7.239 2.413 2.413 2.413 7.239 7.239 7.239v2.413c2.413 2.413 7.239 4.826 11.763 7.239 0 4.826 9.652 2.413 9.652 9.652 7.239 2.413 14.176 11.763 21.415 11.763h2.413c7.239 0 0-7.239 7.239-7.239l4.826-4.826-2.413-2.413 2.413-2.413-2.413-2.413h2.413c-2.413-2.413-2.413-4.826-2.413-4.826 0-2.413 0-2.413 2.413-2.413h-2.413v-50.069c2.413-2.413 0-9.652 4.826-11.763v-2.413c0-7.239 4.826-9.652 4.826-16.589 2.413-2.413 4.826-2.413 7.239-2.413 4.826 0 9.652 4.826 14.176 7.239 0 4.826 7.239 2.413 7.239 7.239v2.413c7.239 4.826 9.652 16.589 14.176 23.828v2.413l4.826 11.763c2.413 2.413 2.413 2.413 2.413 4.826v2.413c0 2.413 0 4.826 2.413 4.826l2.413 16.589c-2.413 7.239-2.413 16.589-4.826 23.828 0 7.239 7.239 7.239 11.763 9.652 4.826 0 4.826-4.826 4.826-7.239 0-4.826 0-11.763 2.413-16.589 2.413 0 2.413-2.413 2.413-2.413v-4.826c0-2.413 0-2.413 2.413-4.826v-2.413s2.413-2.413 2.413-4.826c0 0 0-2.413-2.413-2.413l2.413-16.589-2.413-2.413h2.413c4.826 0 4.826 9.652 7.239 11.763v2.413c9.652 16.589 11.763 40.417 26.241 54.593 2.413 2.413 0 2.413 2.413 2.413h2.413v2.413c2.413 2.413 7.239 4.826 11.763 4.826 4.826 0 9.652-2.413 11.763-9.652 12.065-17.494 12.065-19.907 12.065-22.32zM874.396 152.262c-26.241-19.002-49.767-45.243-59.419-73.595v-2.413c0-2.413 2.413-4.826 4.826-4.826h2.413l28.654 16.589c4.826 2.413 4.826 7.239 9.652 7.239h2.413l-2.413 2.413c2.413 7.239 11.763 7.239 11.763 14.176 2.413 2.413 4.826 9.652 4.826 9.652 0 4.826 4.826 9.652 9.652 14.176h2.413v4.826l2.413 2.413-2.413 2.413 4.826 11.763v2.413l-19.605-7.239zM1088.245 159.5c0 2.413 0 4.826 2.413 4.826 2.413 2.413 2.413 4.826 4.826 4.826s0-2.413 2.413-2.413h4.826s2.413 0 2.413-2.413-2.413-4.826-2.413-7.239v-7.239c0-2.413-2.413-7.239-2.413-11.763v-19.304c0-2.413 2.413-7.239 2.413-9.652v-4.826s2.413-4.826 2.413-7.239 0-9.652 2.413-11.763c0-2.413 2.413-7.239 4.826-7.239h2.413s2.413 0 2.413 2.413c2.413 2.413 4.826 4.826 4.826 7.239s2.413 4.826 4.826 9.652c2.413 2.413 4.826 9.652 7.239 11.763 2.413 2.413 2.413 9.652 4.826 11.763 0 2.413 2.413 9.652 4.826 11.763 0 0 2.413 7.239 2.413 9.652s2.413 7.239 2.413 11.763c0 2.413 2.413 9.652 2.413 11.763s0 7.239 2.413 9.652v7.842c0 2.413 2.413 4.826 2.413 7.239v13.875c0 2.413 0 2.413 2.413 2.413h2.413c2.413 0 2.413-2.413 2.413-2.413h2.413s2.413 0 2.413-2.413c2.413-2.413 2.413-2.413 2.413-4.826v-4.826c0-4.826 0-7.239 2.413-11.763 2.413-4.826 2.413-33.178 4.826-38.004s4.826-38.004 7.239-40.417c0-4.826 2.413-35.591 2.413-45.243v-26.241c0-2.413-2.413-11.763-2.413-14.176s-2.413-11.763-2.413-11.763c0-2.413 0-7.239-2.413-7.239s-2.413-7.239-2.413-7.239c0-2.413-7.239-28.654-21.415-38.004 0 0-2.413-2.413-4.826-2.413-2.413-2.413-2.413 0-4.826-2.413s-4.826-2.413-7.239-4.826c-2.413 0-7.239-2.413-11.763-4.826-2.413-2.413-11.763-2.413-14.176-2.413h-19.002c-2.413 0-11.763 2.413-16.589 2.413s-7.239 2.413-11.763 4.826c-2.413 2.413-4.826 7.239-7.239 7.239-2.413 2.413-7.239 4.826-7.239 7.239-2.413 2.413-2.413 4.826-4.826 4.826v2.413h-2.413s-2.413 4.826-4.826 4.826c0 0-7.239 16.589-7.239 19.002s-2.413 11.763-2.413 14.176v14.478c0 2.413 2.413 7.239 2.413 9.652v7.239s2.413 4.826 2.413 7.239 2.413 4.826 2.413 4.826c0 2.413 2.413 4.826 2.413 7.239 2.413 2.413 2.413 4.826 4.826 4.826l2.413 7.239 2.413 2.413c-2.413-2.413-2.413-7.239-2.413-7.239s0-2.413-2.413-4.826c0-2.413-2.413-4.826-2.413-7.239l-2.413-9.652v-9.652c0-2.413-2.413-9.652-2.413-14.176 0-2.413 2.413-7.239 2.413-11.763 0-4.826 0-4.826 2.413-4.826 0-2.413 0-4.826 2.413-4.826 0 0 0-7.239 2.413-9.652s2.413-4.826 2.413-4.826 2.413-7.239 4.826-9.652l2.413-2.413 4.826-7.239c2.413 0 4.826-4.826 4.826-7.239s2.413-2.413 4.826-2.413l9.652-4.826c2.413 0 7.239-2.413 9.652-2.413s4.826-2.413 4.826-2.413h9.652c2.413 0 9.652 0 14.176 2.413 2.413 2.413 9.652 2.413 11.763 4.826 2.413 2.413 4.826 2.413 7.239 4.826 0 2.413 4.826 4.826 4.826 7.239 2.413 0 4.826 7.239 7.239 9.652 0 2.413 7.239 14.176 7.239 16.589s4.826 19.002 4.826 26.241c0 4.826 2.413 16.589 2.413 19.002v35.893l2.413 2.413s-2.413 0-2.413 2.413v30.765c0 2.413-2.413 9.652-2.413 11.763v9.652c0 2.413-2.413 4.826-2.413 7.239v7.239s-2.413 2.413-2.413 4.826v12.065l-2.413 2.413s-2.413-4.826-2.413-7.239l-2.413-11.763c0-2.413-2.413-7.239-2.413-9.652-2.413 0-2.413-7.239-2.413-9.652s-2.413-9.652-2.413-11.763c0-2.413-2.413-7.239-2.413-7.239-2.413 0-2.413-2.413-2.413-4.826s-2.413-4.826-4.826-7.239c-2.413 0-2.413 0-2.413-4.826 0-2.413-2.413-4.826-4.826-7.239s-7.239-9.652-7.239-9.652-4.826-4.826-7.239-4.826c-2.413 0-7.239 0-9.652 2.413s-7.239 4.826-7.239 7.239c-2.413 2.413 0 7.239-2.413 9.652s-2.413 4.826-2.413 7.239 2.413 2.413 2.413 4.826h-2.413v57.911l-1.206 8.445zM463.288 843.575c0 42.83 35.591 78.421 83.247 78.421s83.247-35.591 83.247-78.421-35.591-78.421-83.247-78.421c-50.069 0-83.247 35.893-83.247 78.421zM570.062 843.575c0 14.176-11.763 26.241-23.828 26.241-14.176 0-23.828-11.763-23.828-26.241 0-14.176 9.652-26.241 23.828-26.241 14.478 0.302 23.828 12.065 23.828 26.241zM349.276 801.046c0 2.413 2.413 2.413 2.413 4.826l30.765 47.656c4.826 4.826 7.239 4.826 7.239-2.413v-71.182c0-7.239 4.826-11.763 11.763-11.763h40.417c7.239 0 11.763 4.826 11.763 11.763v165.891c0 7.239-4.826 11.763-11.763 11.763h-42.83c-7.239 0-14.176-4.826-19.002-9.652l-28.654-47.656c-2.413-4.826-9.652-4.826-11.763 0l-28.654 47.656c-4.826 7.239-11.763 11.763-19.002 11.763h-42.528c-7.239 0-11.763-4.826-11.763-11.763v-166.193c0-7.239 4.826-11.763 11.763-11.763h38.004c7.239 0 11.763 4.826 11.763 11.763v71.182c0 7.239 2.413 7.239 7.239 2.413l30.765-47.656c0-2.413 2.413-2.413 2.413-4.826 2.413-4.223 7.239-4.223 9.652-1.81zM957.342 853.227c-4.826 30.765-19.002 45.243-23.828 49.767-19.002 16.589-49.767 16.589-49.767 16.589-21.415 0-35.591-7.239-35.591-7.239-21.415-9.652-33.178-28.654-35.591-33.178-9.652-21.415-9.652-42.83-7.239-47.656 0-7.239 2.413-21.415 14.176-35.591 7.239-11.763 23.828-26.241 57.006-30.765 47.656-4.826 71.182 21.415 73.595 23.828 4.826 4.826 2.413 9.652 0 11.763 0 0-14.176 11.763-21.415 16.589s-9.652 2.413-11.763 0c-4.826-4.826-11.763-7.239-16.589-9.652-19.002-4.826-28.654 7.239-30.765 11.763-4.826 9.652 7.239 7.239 7.239 7.239h76.008c7.239 0 7.239 4.826 7.239 7.239-0.302 7.541-0.302 12.065-2.715 19.304zM893.399 855.639h-19.002s-11.763 0-4.826 11.763c2.413 2.413 7.239 11.763 16.589 9.652 4.826 0 9.652-4.826 14.176-11.763 0-2.715 2.413-9.652-6.937-9.652zM976.344 845.988s23.828-59.419 28.654-68.769c2.413-7.239 2.413-9.652-2.413-9.652-9.652 2.413-16.589 4.826-21.415 7.239-14.176 4.826-16.589-4.826-16.589-4.826s-7.239-16.589-9.652-23.828c-2.413-4.826 0-11.763 7.239-14.176s11.763-4.826 21.415-7.239c35.591-7.239 52.18 0 59.419 4.826 21.415 11.763 30.765 45.243 35.591 57.006 0 0 38.004 104.662 42.83 116.425s-7.239 11.763-7.239 11.763h-40.417c-11.763 0-14.176-11.763-14.176-11.763s-16.589-52.18-16.589-57.006c0-2.413-2.413-4.826-2.413-4.826-2.413 0-2.413 2.413-2.413 2.413s-14.176 42.83-19.002 57.006c-9.652 14.176-21.415 14.176-21.415 14.176h-40.417c-11.763 0-7.239-9.652-7.239-9.652l26.241-59.118zM688.9 769.979c11.763 0 11.763 11.763 11.763 11.763v66.658c0 2.413 2.413 19.002 16.589 19.002 19.002 0 19.002-19.002 19.002-19.002v-66.658c0-11.763 9.652-11.763 9.652-11.763h40.417c9.652 0 11.763 11.763 11.763 11.763v87.771c0 23.828-9.652 35.591-14.176 38.004-9.652 9.652-23.828 14.176-38.004 14.176-21.415 0-35.591-14.176-38.004-16.589-7.239-4.826-7.239 0-7.239 2.413 0 9.652-9.652 9.652-9.652 9.652h-40.417c-9.652-2.413-11.763-11.763-11.763-11.763v-123.664l11.763-11.763h38.306zM914.814 620.376c-4.826 30.765-19.002 45.243-23.828 49.767-19.002 16.589-49.767 16.589-49.767 16.589-21.415 0-35.591-7.239-35.591-7.239-21.415-9.652-33.178-28.654-35.591-33.178-9.652-21.415-9.652-42.83-7.239-47.656 0-7.239 2.413-19.002 14.176-35.591 7.239-11.763 23.828-26.241 57.006-30.765 47.656-4.826 71.182 21.415 73.595 23.828 4.826 4.826 2.413 9.652 0 11.763 0 0-14.176 11.763-21.415 16.589s-9.652 2.413-11.763 0c-4.826-4.826-11.763-7.239-16.589-9.652-19.002-4.826-28.654 7.239-30.765 11.763-2.413 9.652 7.239 7.239 7.239 7.239h76.008c7.239 0 7.239 4.826 7.239 7.239-2.715 7.541-2.715 12.065-2.715 19.304zM850.568 622.789h-19.002s-11.763 0-4.826 11.763c2.413 2.413 7.239 11.763 16.589 9.652 4.826 0 9.652-4.826 14.176-11.763 0.302-2.715 2.413-9.652-6.937-9.652zM292.27 532.604c38.004-4.826 54.593 0 64.245 2.413 28.654 7.239 38.004 23.828 42.83 33.178 9.652 19.002 4.826 38.004 2.413 45.243-7.239 19.002-19.002 23.828-28.654 30.765-16.589 7.239-35.591 11.763-47.656 14.176-11.763 2.413-14.176 2.413-19.002 4.826-9.652 2.413-7.239 4.826-9.652 7.239 0 2.413 2.413 7.239 4.826 7.239 9.652 4.826 19.002 0 28.654-2.413 7.239-2.413 14.176-4.826 21.415-7.239 2.413 0 4.826-2.413 7.239-2.413 7.239-4.826 14.176 2.413 14.176 2.413s19.002 26.241 21.415 30.765c2.413 2.413 2.413 9.652-2.413 9.652-4.826 2.413-4.826 2.413-11.763 7.239-28.654 14.176-61.832 14.176-61.832 14.176h-9.652c-30.765 0-49.767-14.176-54.593-16.589-16.589-14.176-21.415-30.765-21.415-38.004-2.413-26.241 9.652-38.004 11.763-42.83 11.763-11.763 28.654-19.002 40.417-21.415 14.176-4.826 30.765-7.239 38.004-9.652 16.589-4.826 16.589-7.239 16.589-9.652 0-7.239-7.239-7.239-16.589-9.652-21.415 0-52.18 14.176-59.419 19.002-7.239 2.413-11.763-2.413-11.763-2.413s-16.589-21.415-23.828-26.241c-4.826-7.239-2.413-9.652 0-11.763 21.415-16.589 54.593-23.828 54.593-23.828l9.652-4.223zM974.233 534.716c11.763 0 11.763 11.763 11.763 11.763v28.654c0 21.415 7.239 28.654 9.652 30.765 9.652 14.176 30.765 11.763 30.765 11.763 7.239 0 7.239 7.239 7.239 7.239v54.593c0 4.826-4.826 4.826-7.239 4.826-14.176-2.413-23.828-11.763-26.241-14.176s-7.239-9.652-7.239-9.652c-4.826-4.826-4.826 2.413-4.826 2.413v7.239c0 11.763-11.763 11.763-11.763 11.763h-38.004c-9.652 0-11.763-11.763-11.763-11.763v-125.776c0-11.763 11.763-11.763 11.763-11.763s23.828 2.111 35.893 2.111zM415.632 584.785c0-9.652 2.413-19.002 2.413-19.002 9.652-30.765 33.178-33.178 45.243-33.178 21.415 0 35.591 11.763 38.004 14.176s4.826 2.413 4.826 4.826c2.413 0 4.826-2.413 4.826-4.826 0-9.652 11.763-9.652 11.763-9.652h40.417c11.763 2.413 11.763 11.763 11.763 11.763v123.664l-11.763 11.763h-40.417c-11.763-2.413-11.763-11.763-11.763-11.763v-68.769s0-16.589-16.589-19.002c-16.589 0-16.589 19.002-16.589 19.002v66.658l-11.763 11.763h-40.417l-11.763-11.763s1.81-76.31 1.81-85.66zM753.145 629.726c-4.826 26.241-19.002 38.004-26.241 45.243-23.828 16.589-47.656 9.652-52.18 9.652-11.763-2.413-19.002-11.763-21.415-11.763-4.826-2.413-4.826 0-4.826 2.413 0 9.652-11.763 9.652-11.763 9.652h-40.417l-11.763-11.763v-168.606c0-11.763 11.763-11.763 11.763-11.763h38.004l11.763 11.763v42.83s0 4.826 4.826 2.413c16.589-14.176 30.765-16.589 38.004-16.589 23.828 0 38.004 11.763 42.83 16.589 14.176 14.176 19.002 30.765 19.002 30.765 7.239 23.225 2.413 42.227 2.413 49.164zM696.139 608.613c0-14.176-9.652-26.241-23.828-26.241s-23.828 11.763-23.828 26.241c0 14.176 9.652 26.241 23.828 26.241 12.065 2.111 23.828-9.652 23.828-26.241zM349.276 328.106c0 2.413 2.413 2.413 2.413 4.826l30.765 47.656c4.826 4.826 7.239 4.826 7.239-2.413v-71.182c0-7.239 4.826-11.763 11.763-11.763h40.417c7.239 0 11.763 4.826 11.763 11.763v166.193c0 7.239-4.826 11.763-11.763 11.763h-42.83c-7.239 0-14.176-4.826-19.002-9.652l-28.654-47.656c-2.413-4.826-9.652-4.826-11.763 0l-28.654 47.656c-2.413 4.826-11.763 9.652-19.002 9.652h-42.528c-7.239 0-11.763-4.826-11.763-11.763v-166.193c0-7.239 4.826-11.763 11.763-11.763h38.004c7.239 0 11.763 4.826 11.763 11.763v71.182c0 7.239 2.413 7.239 7.239 2.413l30.765-47.656c0-2.413 2.413-2.413 2.413-4.826 2.413-2.413 7.239-2.413 9.652 0zM1045.415 382.699c-4.826 30.765-19.002 45.243-23.828 49.767-19.002 16.589-49.767 16.589-49.767 16.589-21.415 0-35.591-7.239-35.591-7.239-21.415-9.652-33.178-26.241-35.591-35.591-9.652-21.415-9.652-42.83-7.239-47.656 0-7.239 2.413-21.415 14.176-35.591 7.239-11.763 23.828-26.241 57.006-30.765 47.656-4.826 68.769 21.415 73.595 23.828 4.826 4.826 2.413 9.652 0 11.763 0 0-14.176 11.763-21.415 16.589s-9.652 2.413-11.763 0c-4.826-4.826-11.763-7.239-16.589-9.652-19.002-4.826-28.654 7.239-30.765 11.763-2.413 9.652 7.239 7.239 7.239 7.239h76.008c7.239 0 7.239 4.826 7.239 7.239-2.715 9.953-2.715 14.779-2.715 21.717zM978.757 385.112h-19.002s-11.763 0-4.826 11.763c2.413 2.413 7.239 11.763 16.589 9.652 4.826 0 9.652-4.826 14.176-11.763 0.302-2.413 2.715-9.652-6.937-9.652zM677.137 297.341c11.763 0 11.763 11.763 11.763 11.763v28.654c0 21.415 7.239 28.654 9.652 30.765 9.652 14.176 30.765 11.763 30.765 11.763 7.239 0 7.239 7.239 7.239 7.239v54.593c0 4.826-4.826 4.826-7.239 4.826-14.176-2.413-23.828-11.763-26.241-14.176s-7.239-9.652-7.239-9.652c-7.239-4.826-7.239 2.413-7.239 2.413v7.239c0 11.763-11.763 11.763-11.763 11.763h-38.004c-9.652 0-11.763-11.763-11.763-11.763v-125.776c0-11.763 11.763-11.763 11.763-11.763s26.543 2.111 38.306 2.111zM615.305 382.699c0 4.826 0 21.415-7.239 35.591-9.652 16.589-26.241 21.415-26.241 21.415-16.589 7.239-42.83 7.239-52.18 7.239-23.828-2.413-33.178-4.826-42.83-7.239-11.763-4.826-9.652-14.176-9.652-14.176s4.826-19.002 7.239-23.828c2.413-4.826 7.239-4.826 7.239-4.826 26.241 9.652 40.417 7.239 47.656 4.826 11.763-4.826 14.176-11.763 14.176-16.589s-2.413-4.826-4.826-4.826c-9.652 2.413-21.415 4.826-28.654 4.826-21.415 0-33.178-4.826-40.417-9.652-19.002-11.763-19.002-26.241-19.002-38.004 0-23.828 14.176-33.178 19.002-35.591 11.763-7.239 26.241-7.239 30.765-7.239 19.002 2.413 28.654 9.652 33.178 11.763 0 0 2.413 2.413 4.826 2.413 4.826 0 2.413-2.413 4.826-2.413 0-7.239 11.763-7.239 11.763-7.239h38.004c14.176 0 11.763 11.763 11.763 11.763s0.603 64.848 0.603 71.786zM553.473 347.108c-2.413-16.589-14.176-19.002-14.176-19.002-9.652 0-11.763 2.413-14.176 4.826-4.826 7.239-4.826 14.176-2.413 16.589 4.826 11.763 16.589 11.763 19.002 11.763 14.176-2.413 11.763-9.35 11.763-14.176zM1062.004 458.708c0-11.763-7.239-14.176-9.652-14.176-7.239 0-9.652-9.652-9.652-9.652v-26.241c0-9.652 4.826-11.763 9.652-11.763 9.652 0 9.652-11.763 9.652-11.763v-40.417c0-11.763 2.413-14.176 2.413-21.415 7.239-26.241 28.654-28.654 35.591-30.765 21.415-2.413 30.765 0 40.417 2.413 16.589 2.413 16.589 16.589 16.589 16.589v30.765s-2.413 4.826-4.826 2.413c-7.239-2.413-9.652-2.413-14.176-2.413-7.239 0-9.652 2.413-11.763 4.826-2.413 2.413-2.413 9.652-2.413 9.652v26.241c0 11.763 11.763 11.763 11.763 11.763h9.652c11.763 0 11.763 11.763 11.763 11.763v23.828c0 14.176-11.763 11.763-11.763 11.763h-9.652c-11.763 0-11.763 11.763-11.763 11.763v11.763c0 11.763-11.763 11.763-11.763 11.763h-38.004c-11.763 0-11.763-11.763-11.763-11.763s-0.302 2.715-0.302-6.937zM824.328 328.106s4.826-9.652 11.763-21.415c7.239-9.652 16.589-9.652 16.589-9.652h42.83c9.652 0 4.826 11.763 4.826 11.763s-30.765 54.593-35.591 66.658c-4.826 11.763 2.413 21.415 2.413 21.415s26.241 33.178 30.765 40.417c7.239 9.652-2.413 9.652-2.413 9.652h-45.243c-11.763 0-16.589-9.652-16.589-9.652s-14.176-21.415-19.002-28.654c-7.239-7.239-7.239 2.413-7.239 2.413v71.182l-11.763 11.763h-35.591c-11.763 0-11.763-11.763-11.763-11.763v-175.844c0-11.763 11.763-11.763 11.763-11.763h38.004c11.763 0 11.763 11.763 11.763 11.763v11.763s0 2.413 2.413 4.826 7.239 9.652 7.239 9.652 2.413 2.413 4.826 0v-4.524zM1378.102 541.955c-92.597 0-166.193-73.595-166.193-166.193s73.595-166.193 166.193-166.193 166.193 73.294 166.193 166.193c0 92.597-73.595 166.193-166.193 166.193zM1309.031 356.76c-7.239-9.652-16.589-14.176-30.765-14.176-21.415 0-35.591 16.589-35.591 35.591s14.176 35.591 38.004 35.591c14.176 0 23.828-7.239 28.654-16.589 0 0 2.413-4.826-2.413-4.826l-14.176-7.239c-4.826-2.413-4.826 0-4.826 0-2.413 2.413-4.826 4.826-7.239 4.826-7.239 0-11.763-4.826-11.763-11.763 0-7.239 4.826-11.763 9.652-11.763s7.239 2.413 9.652 4.826c0 0 2.413 2.413 4.826 0l14.176-7.239c6.636-5.128 1.81-7.239 1.81-7.239zM1389.865 378.175c0-19.002-16.589-35.591-40.417-35.591s-38.004 16.589-38.004 35.591c0 19.002 16.589 35.591 40.417 35.591 21.415 0 38.004-16.589 38.004-35.591zM1508.703 342.282h-16.589s-4.826 0-4.826 4.826v30.765s0 9.652-7.239 9.652c-4.826 0-7.239-2.413-7.239-9.652v-30.765s0-4.826-4.826-4.826h-19.002s-4.826 0-4.826 4.826v30.765s0 9.652-7.239 9.652-7.239-9.652-7.239-9.652v-30.765s0-4.826-4.826-4.826h-19.002s-4.826 0-4.826 4.826v59.419s0 4.826 4.826 4.826h19.002s4.826 0 4.826-4.826c0 0 0-4.826 4.826 0 2.413 2.413 9.652 7.239 19.002 7.239 2.413 0 11.763-2.413 16.589-9.652 0 0 0-2.413 2.413 0 4.826 4.826 11.763 9.652 23.828 9.652 4.826 0 11.763-2.413 19.002-9.652 2.413-2.413 4.826-7.239 4.826-16.589v-40.417s-4.524-4.826-11.462-4.826zM1351.861 389.938c-7.239 0-11.763-4.826-11.763-11.763 0-7.239 4.826-11.763 11.763-11.763s11.763 4.826 11.763 11.763c-2.413 6.937-6.937 11.763-11.763 11.763z" />
<glyph unicode="&#xe623;" glyph-name="LogoTravelSupermarket" d="M505.776 816.416c-214.256 0-393.424-149.824-440.048-350.48 30.384 41.408 79.104 68.128 134.128 68.128 13.088 0 26.192-1.6 38.768-4.72 34.56 39.28 86.416 63.904 143.536 63.904 89.040 0 163.456-59.712 184.432-139.872 14.128 4.72 28.768 7.344 44.48 7.344 48.752 0 91.696-25.68 115.792-63.936 29.856 25.68 68.656 41.424 111.040 41.424 46.656 0 88.544-18.896 118.944-48.736-13.616 237.84-210.576 426.944-451.072 426.944zM187.792 358.544v-96.384h-13.616v96.384h-32.496v12.592h79.12v-12.592h-33.008zM259.040 327.616c-6.288 0-10.992-2.592-14.672-6.256-6.304-5.744-7.328-16.768-7.328-25.152v-34.576h-13.104v78.048h11.536l1.040-13.632c4.192 9.44 13.616 14.144 23.040 14.144 2.112 0 4.208 0 6.304-0.512v-12.592c-2.096 0.528-4.72 0.528-6.816 0.528zM331.344 260.576c-6.816 0-11.008 5.248-11.008 12.048h-0.528c-4.704-7.84-14.144-12.56-25.152-12.56-17.808 0-26.704 12.032-26.704 24.112 0 9.952 6.304 23.008 27.776 24.592l23.568 1.6v5.776c0 3.648-0.528 8.336-4.192 12.016-2.624 2.624-6.288 4.208-12.576 4.208-7.344 0-11.52-2.096-14.144-4.752-2.624-2.592-3.664-5.712-3.664-9.392h-13.088c0 7.312 2.624 12.048 6.816 16.24 5.232 5.744 14.656 8.368 24.080 8.368 15.2 0 23.584-6.272 27.232-15.216 1.584-3.648 2.096-7.296 2.096-12v-37.728c0-4.224 1.568-5.248 4.192-5.248 1.568 0 3.152 0.528 3.152 0.528v-9.936c-2.112-2.128-4.704-2.656-7.856-2.656zM319.296 299.36l-20.96-1.040c-7.856-0.512-17.296-4.192-17.296-14.144 0-6.832 4.192-13.648 15.2-13.648 5.744 0 12.048 2.096 16.24 6.304 4.72 4.72 6.816 11.52 6.816 17.808v4.72zM385.824 262.16h-14.144l-28.816 78.048h13.632l22.528-62.864 22 62.864h13.088l-28.288-78.048zM487.456 296.72h-55.008c0-7.328 2.624-14.64 7.328-19.376 3.648-3.68 8.384-5.76 14.128-5.76 6.304 0 11.024 1.584 14.672 5.248 2.080 2.096 3.648 4.224 4.704 8.384h12.592c-1.040-7.872-5.744-15.216-12.064-19.392-5.744-3.664-12.544-5.76-19.904-5.76-10.992 0-19.904 4.72-25.664 11.52-6.288 7.344-9.952 17.808-9.952 28.848 0 9.392 1.584 17.792 5.76 25.104 5.76 9.456 15.712 16.256 29.328 16.256 9.968 0 17.808-3.664 23.584-9.952 6.304-6.816 9.952-16.736 9.952-27.232l0.544-7.888zM469.648 323.968c-3.136 4.192-8.352 7.344-15.2 7.344-14.128 0-20.944-11.536-21.456-23.056h41.92c-0.544 5.232-2.672 11.52-5.264 15.712zM520.992 261.104c-11.52 0-16.24 6.816-16.24 19.408v93.216h13.104v-92.192c0-5.248 1.568-7.888 7.312-7.888 4.224 0 5.264 0 5.264 0v-10.96c-0.016-0.528-3.152-1.584-9.44-1.584zM148.496 166.288c-7.328-7.312-19.392-11.008-30.912-11.008-13.088 0-24.096 3.68-31.44 10.464-6.8 6.304-11.52 15.728-11.52 26.208h14.144c0-6.304 3.152-13.072 7.856-17.296 4.72-4.72 13.088-6.816 20.96-6.816 8.384 0 15.184 1.568 20.432 6.304 3.136 3.152 5.76 6.816 5.76 12.56 0 8.416-5.232 15.712-18.336 17.792-5.776 1.088-11.536 1.6-17.296 2.64-16.24 2.624-29.344 11.536-29.344 28.816 0 8.384 3.664 16.256 9.44 21.456 7.328 7.376 17.28 11.040 28.816 11.040 10.48 0 20.96-3.664 28.288-10.464 6.816-6.304 9.952-14.176 10.48-23.6h-14.144c-0.512 5.216-2.080 9.952-5.232 13.648-4.192 4.704-10.992 7.296-19.376 7.296-7.856 0-14.672-2.096-19.392-7.296-2.608-3.168-4.704-6.832-4.704-12.080 0-9.936 8.384-14.16 16.24-15.2 6.288-0.528 12.048-2.080 18.336-2.608 18.336-2.624 30.384-13.648 30.384-30.928-0.528-9.392-4.192-15.68-9.44-20.928zM224.448 156.848l-1.040 12.048c-4.192-8.88-14.144-13.616-23.040-13.616-17.824 0-26.72 10.464-26.72 28.8v51.36h13.088v-49.264c0-11.52 4.192-18.864 16.768-18.864 5.232 0 9.424 2.096 13.088 5.76 4.704 5.264 6.272 13.632 6.272 21.52v40.32h13.104v-78.064h-11.52zM317.2 162.608c-5.248-4.704-12.576-7.84-21.488-7.84-8.384 0-18.336 4.208-22.528 10.992v-42.4h-13.104v111.568h11.536l1.040-9.936c4.72 7.84 14.672 12.032 23.056 12.032 9.424 0 16.752-3.136 22-8.352 7.328-7.376 10.992-19.392 10.992-32.48 0.528-13.664-3.664-25.712-11.504-33.584zM293.616 226.016c-5.76 0-9.424-2.096-12.576-5.264-6.272-5.728-8.384-15.152-8.384-24.592 0-9.984 2.112-19.376 8.384-24.624 3.152-2.64 6.816-5.248 12.576-5.248 17.296 0 22 15.712 22 29.872 0.528 14.16-4.192 29.856-22 29.856zM409.92 191.952h-55.008c0-7.344 2.624-14.656 7.328-19.376 3.664-3.68 8.384-5.76 14.144-5.76 6.288 0 11.008 1.552 14.672 5.232 2.112 2.096 3.664 4.208 4.736 8.384h12.56c-1.040-7.856-5.76-15.2-12.032-19.376-5.776-3.696-12.576-5.776-19.92-5.776-10.992 0-19.904 4.736-25.664 11.536-6.288 7.328-9.952 17.792-9.952 28.816 0 9.408 1.568 17.808 5.76 25.12 5.776 9.472 15.712 16.256 29.328 16.256 9.952 0 17.808-3.664 23.568-9.952 6.304-6.832 9.968-16.736 9.968-27.248l0.512-7.856zM392.112 219.184c-3.152 4.208-8.384 7.328-15.2 7.328-14.144 0-20.976-11.504-21.488-23.040h41.92c-0.512 5.248-2.096 11.536-5.232 15.712zM462.848 222.848c-6.336 0-11.024-2.624-14.672-6.272-6.304-5.728-7.328-16.784-7.328-25.152v-34.576h-13.088v78.064h11.52l1.040-13.648c4.208 9.472 13.6 14.176 23.056 14.176 2.096 0 4.192 0 6.272-0.528v-12.592c-2.096 0.528-4.704 0.528-6.8 0.528zM578.064 156.848v49.776c0 11.008-3.648 18.336-15.68 18.336-4.72 0-8.912-2.128-12.032-5.248-5.248-5.232-6.848-13.088-6.848-21.472v-41.408h-13.072v49.776c0 11.008-3.136 18.336-15.696 18.336-5.792 0-9.984-2.656-13.104-6.832-3.664-4.704-5.232-13.104-5.232-19.888v-41.408h-13.104v78.064h11.52l1.040-10.992c4.208 8.896 13.088 13.072 22.016 13.072 11.52 0 19.904-5.216 23.024-14.688 4.224 10 14.16 14.688 24.128 14.688 17.792 0 26.192-11.52 26.192-28.816v-51.344h-13.152v0.048zM670.816 155.808c-6.816 0-11.52 5.248-11.52 12.032v0c-4.704-7.824-14.176-12.56-25.136-12.56-17.824 0-26.72 12.032-26.72 24.096 0 9.952 6.256 23.040 27.744 24.624l23.584 1.6v5.744c0 3.664-0.512 8.368-4.176 12.048-2.64 2.624-6.32 4.224-12.592 4.224-7.344 0-11.552-2.128-14.144-4.736-2.624-2.656-3.664-5.776-3.664-9.44h-12.592c0 7.312 2.64 12.048 6.848 16.256 5.216 5.744 14.656 8.352 24.080 8.352 15.184 0 23.552-6.272 27.232-15.168 1.6-3.68 2.128-7.36 2.128-12.032v-37.76c0-4.192 1.552-5.232 4.176-5.232 1.584 0 3.12 0.512 3.12 0.512v-9.92c-2.592-2.128-5.216-2.64-8.368-2.64zM658.768 194.592l-20.944-1.040c-7.888-0.528-17.296-4.224-17.296-14.176 0-6.8 4.208-13.632 15.168-13.632 5.776 0 12.048 2.096 16.256 6.304 4.72 4.736 6.816 11.52 6.816 17.808v4.736zM730.544 222.848c-6.272 0-11.008-2.624-14.688-6.272-6.256-5.728-7.312-16.784-7.312-25.152v-34.576h-13.104v78.064h11.552l1.040-13.648c4.176 9.472 13.6 14.176 23.040 14.176 2.080 0 4.176 0 6.272-0.528v-12.592c-2.096 0.528-4.72 0.528-6.8 0.528zM802.832 156.848l-24.592 37.744-15.2-16.768v-20.992h-13.12v111.616h13.104v-72.832l35.088 39.28h15.712l-27.776-30.912 30.944-47.152h-14.16zM890.832 191.952h-54.992c0-7.344 2.608-14.656 7.344-19.376 3.664-3.68 8.368-5.76 14.128-5.76 6.32 0 11.008 1.552 14.672 5.232 2.096 2.096 3.664 4.208 4.72 8.384h12.576c-1.040-7.856-5.744-15.2-12.048-19.376-5.776-3.696-12.544-5.776-19.92-5.776-10.976 0-19.888 4.736-25.648 11.536-6.304 7.328-10 17.792-10 28.816 0 9.408 1.584 17.808 5.776 25.12 5.76 9.472 15.728 16.256 29.328 16.256 9.984 0 17.824-3.664 23.584-9.952 6.304-6.832 9.968-16.736 9.968-27.248l0.512-7.856zM873.024 219.184c-3.12 4.208-8.336 7.328-15.216 7.328-14.096 0-20.928-11.504-21.456-23.040h41.92c-0.528 5.248-2.624 11.536-5.248 15.712zM932.768 155.808c-16.752 0-21.472 10.464-21.472 20.976v46.608h-15.2v11.008h15.2v19.888l13.072 3.12v-23.008h23.056v-11.008h-23.056v-45.040c0-7.344 3.136-10.496 10.48-10.496 5.744 0 13.632 1.568 13.632 1.568v-11.504c-3.68-0.56-8.912-2.112-15.712-2.112z" />
<glyph unicode="&#xe624;" glyph-name="LogoTravelSupermarketcloud" horiz-adv-x="2140" d="M1585.737-45.192c72.725 61.022 164.258 99.474 267.494 99.474 110.759 0 213.995-45.976 286.72-118.282-34.273 573.022-504.477 1024-1081.26 1024-516.18 0-947.931-359.445-1058.691-837.172 72.725 99.474 191.007 160.496 320.993 160.496 30.511 0 61.022-3.762 91.533-11.285 84.010 91.533 206.472 152.973 343.98 152.973 213.995 0 393.718-141.27 443.455-336.457 34.273 11.285 68.963 19.226 106.998 19.226 118.282 0 221.518-61.44 278.779-152.973z" />
<glyph unicode="&#xe626;" glyph-name="FreeAirportTransfer" d="M919.136 477.68c0-8.48-4.24-12.72-12.72-12.72h-72.096c-8.48 0-12.736 8.48-12.736 12.72v139.952c0 8.48 4.256 12.72 12.736 12.72h72.096c8.48 0 12.72-4.24 12.72-12.72v-139.952zM800.384 477.68c0-8.48-4.24-12.72-12.72-12.72h-161.152c-8.48 0-12.72 8.48-12.72 12.72v139.952c0 8.48 4.24 12.72 12.72 12.72h161.152c8.48 0 12.72-4.24 12.72-12.72v-139.952zM588.336 477.68c0-8.48-4.24-12.72-12.72-12.72h-161.168c-8.48 0-12.72 8.48-12.72 12.72v139.952c0 8.48 4.24 12.72 12.72 12.72h161.152c8.48 0 12.72-4.24 12.72-12.72v-139.952h0.016zM359.328 477.68c0-8.48-4.24-12.72-12.72-12.72h-152.688c-8.48 0-12.72 8.48-4.24 21.2 25.44 16.96 67.856 55.136 89.056 72.096 25.44 21.2 42.416 16.96 42.416 16.96h21.2c8.48 0 12.72-4.24 12.72-12.72l4.256-84.816zM100.624 375.904c-4.24-8.48-8.48-8.48-16.976-8.48-4.24 0-8.48 4.24-8.48 8.48s4.24 25.44 16.976 33.92c8.48 8.48 12.72 8.48 12.72 0 4.224-4.224 0-29.664-4.24-33.92zM944.592 660.048h-538.624c-46.656 0-122.992-76.336-122.992-76.336l-190.848-161.152c-16.976-12.736-25.44-29.68-25.44-55.136 0-38.176 12.72-67.856 46.656-67.856h25.456c8.48 33.936 33.936 63.632 67.856 63.632 33.936 0 59.376-25.456 63.632-59.376h368.96c4.256 29.68 29.68 59.376 63.632 59.376 33.904 0 59.36-25.456 63.616-59.376h8.48l161.152 12.72c12.736-4.256 21.2 4.24 21.2 12.72v318.080c-0.016 8.464-4.256 12.704-12.736 12.704zM702.864 261.408c-16.992 0-25.456 12.72-25.456 29.68 0 16.944 12.72 29.664 25.456 29.664 16.96 0 25.44-12.736 25.44-29.664 4.24-16.96-8.496-29.68-25.44-29.68zM702.864 346.224c-29.696 0-50.912-25.456-50.912-55.12 0-29.68 25.456-55.152 50.912-55.152 29.68 0 50.896 25.472 50.896 55.152 4.224 29.664-21.216 55.12-50.896 55.12zM206.64 261.408c-12.72 0-25.44 12.72-25.44 29.68 0 16.944 12.72 29.664 25.44 29.664 16.96 0 29.68-12.736 29.68-29.664 0.016-16.96-12.72-29.68-29.68-29.68zM206.64 346.224c-29.68 0-50.896-25.456-50.896-55.12 0-29.68 25.456-55.152 50.896-55.152 29.68 0 55.136 25.472 55.136 55.152 0 29.664-25.44 55.12-55.136 55.12z" />
<glyph unicode="&#xe627;" glyph-name="MapPinLarge" horiz-adv-x="622" d="M621.714 650.362c0 170.667-138.971 308.419-309.638 309.638h-2.438c-170.667-1.219-309.638-138.971-309.638-309.638 0-63.39 19.505-121.905 51.2-170.667 0 0 236.495-329.143 258.438-518.095v-25.6h1.219v25.6c21.943 188.952 258.438 518.095 258.438 518.095 32.914 48.762 52.419 107.276 52.419 170.667z" />
<glyph unicode="&#xe628;" glyph-name="MenuClose" d="M1024.253 846.812l-113.188 113.188-398.938-398.938-398.938 398.938-113.188-113.188 398.938-398.938-398.938-398.938 113.188-113.188 398.938 398.938 398.938-398.938 113.188 113.188-398.938 398.938z" />
<glyph unicode="&#xe629;" glyph-name="FitnessCentre" d="M702.976 490.432h-381.952v169.76h-84.864v-424.384h84.864v169.76h381.952v-169.76h84.864v424.384h-84.864zM151.28 575.312h63.664v-254.624h-63.664v254.624zM66.4 532.88h63.664v-169.744h-63.664v169.744zM809.072 575.312h63.648v-254.624h-63.648v254.624zM893.952 532.88h63.648v-169.744h-63.648v169.744z" />
<glyph unicode="&#xe62a;" glyph-name="Gym" d="M702.976 490.432h-381.952v169.76h-84.864v-424.384h84.864v169.76h381.952v-169.76h84.864v424.384h-84.864zM151.28 575.312h63.664v-254.624h-63.664v254.624zM66.4 532.88h63.664v-169.744h-63.664v169.744zM809.072 575.312h63.648v-254.624h-63.648v254.624zM893.952 532.88h63.648v-169.744h-63.648v169.744z" />
<glyph unicode="&#xe62b;" glyph-name="ratings-all" horiz-adv-x="756" d="M426.667 326.095c-24.381 0-73.143 0-97.524 0s-36.571-21.943-36.571-36.571v-119.467c0-7.314 4.876-12.19 12.19-12.19s12.19 4.876 12.19 12.19v107.276h24.381v-329.143c0-7.314 4.876-12.19 12.19-12.19s12.19 4.876 12.19 12.19v182.857h24.381v-182.857c0-7.314 4.876-12.19 12.19-12.19s12.19 4.876 12.19 12.19v329.143h24.381v-107.276c0-7.314 4.876-12.19 12.19-12.19s12.19 4.876 12.19 12.19v119.467c0 14.629-12.19 36.571-36.571 36.571zM414.476 387.048c0-20.198-16.374-36.571-36.571-36.571s-36.571 16.374-36.571 36.571c0 20.198 16.374 36.571 36.571 36.571s36.571-16.374 36.571-36.571zM426.667 862.476c-24.381 0-73.143 0-97.524 0s-36.571-21.943-36.571-36.571v-119.467c0-7.314 4.876-12.19 12.19-12.19s12.19 4.876 12.19 12.19v107.276h24.381v-329.143c0-7.314 4.876-12.19 12.19-12.19s12.19 4.876 12.19 12.19v182.857h24.381v-182.857c0-7.314 4.876-12.19 12.19-12.19s12.19 4.876 12.19 12.19v329.143h24.381v-107.276c0-7.314 4.876-12.19 12.19-12.19s12.19 4.876 12.19 12.19v119.467c0 14.629-12.19 36.571-36.571 36.571zM414.476 923.429c0-20.198-16.374-36.571-36.571-36.571s-36.571 16.374-36.571 36.571c0 20.198 16.374 36.571 36.571 36.571s36.571-16.374 36.571-36.571zM280.381 594.286c-24.381 0-73.143 0-97.524 0s-36.571-21.943-36.571-36.571v-119.467c0-7.314 4.876-12.19 12.19-12.19s12.19 4.876 12.19 12.19v107.276h24.381v-329.143c0-7.314 4.876-12.19 12.19-12.19s12.19 4.876 12.19 12.19v182.857h24.381v-182.857c0-7.314 4.876-12.19 12.19-12.19s12.19 4.876 12.19 12.19v329.143h24.381v-107.276c0-7.314 4.876-12.19 12.19-12.19s12.19 4.876 12.19 12.19v119.467c0 14.629-12.19 36.571-36.571 36.571zM268.19 655.238c0-20.198-16.374-36.571-36.571-36.571s-36.571 16.374-36.571 36.571c0 20.198 16.374 36.571 36.571 36.571s36.571-16.374 36.571-36.571zM572.952 594.286c-24.381 0-73.143 0-97.524 0s-36.571-21.943-36.571-36.571v-119.467c0-7.314 4.876-12.19 12.19-12.19s12.19 4.876 12.19 12.19v107.276h24.381v-329.143c0-7.314 4.876-12.19 12.19-12.19s12.19 4.876 12.19 12.19v182.857h24.381v-182.857c0-7.314 4.876-12.19 12.19-12.19s12.19 4.876 12.19 12.19v329.143h24.381v-107.276c0-7.314 4.876-12.19 12.19-12.19s12.19 4.876 12.19 12.19v119.467c0 14.629-12.19 36.571-36.571 36.571zM560.762 655.238c0-20.198-16.374-36.571-36.571-36.571s-36.571 16.374-36.571 36.571c0 20.198 16.374 36.571 36.571 36.571s36.571-16.374 36.571-36.571zM134.095 326.095c-24.381 0-73.143 0-97.524 0s-36.571-21.943-36.571-36.571v-119.467c0-7.314 4.876-12.19 12.19-12.19s12.19 4.876 12.19 12.19v107.276h24.381v-329.143c0-7.314 4.876-12.19 12.19-12.19s12.19 4.876 12.19 12.19v182.857h24.381v-182.857c0-7.314 4.876-12.19 12.19-12.19s12.19 4.876 12.19 12.19v329.143h24.381v-107.276c0-7.314 4.876-12.19 12.19-12.19s12.19 4.876 12.19 12.19v119.467c0 14.629-12.19 36.571-36.571 36.571zM121.905 387.048c0-20.198-16.374-36.571-36.571-36.571s-36.571 16.374-36.571 36.571c0 20.198 16.374 36.571 36.571 36.571s36.571-16.374 36.571-36.571zM719.238 326.095c-24.381 0-73.143 0-97.524 0s-36.571-21.943-36.571-36.571v-119.467c0-7.314 4.876-12.19 12.19-12.19s12.19 4.876 12.19 12.19v107.276h24.381v-329.143c0-7.314 4.876-12.19 12.19-12.19s12.19 4.876 12.19 12.19v182.857h24.381v-182.857c0-7.314 4.876-12.19 12.19-12.19s12.19 4.876 12.19 12.19v329.143h24.381v-107.276c0-7.314 4.876-12.19 12.19-12.19s12.19 4.876 12.19 12.19v119.467c0 14.629-12.19 36.571-36.571 36.571zM707.048 387.048c0-20.198-16.374-36.571-36.571-36.571s-36.571 16.374-36.571 36.571c0 20.198 16.374 36.571 36.571 36.571s36.571-16.374 36.571-36.571z" />
<glyph unicode="&#xe62c;" glyph-name="MobileMain" horiz-adv-x="1119" d="M744.186 196.763c-14.288 0-25.005-10.716-25.005-25.005v-153.6c0-17.86-14.288-32.149-32.149-32.149h-603.684c-17.86 0-32.149 14.288-32.149 32.149v859.684c0 17.86 14.288 32.149 32.149 32.149h604.874c17.86 0 32.149-14.288 32.149-32.149v-153.6c0-14.288 11.907-25.005 25.005-25.005 14.288 0 25.005 10.716 25.005 25.005v153.6c0 45.247-36.912 82.158-83.349 82.158h-603.684c-46.437 0-83.349-36.912-83.349-82.158v-859.684c0-45.247 36.912-82.158 83.349-82.158h604.874c45.247 0 83.349 36.912 83.349 82.158v153.6c-1.191 14.288-13.098 25.005-27.386 25.005zM1119.256 450.381v4.763c0 1.191 0 2.381-1.191 2.381 0 1.191 0 1.191-1.191 2.381 0 1.191-1.191 2.381-1.191 2.381v1.191s0 1.191-1.191 1.191c0 1.191-1.191 1.191-1.191 2.381s-1.191 1.191-1.191 2.381c0 0 0 1.191-1.191 1.191l-220.279 278.623c-8.335 9.526-20.242 15.479-32.149 15.479-8.335 0-17.86-2.381-25.005-8.335-17.86-14.288-20.242-39.293-7.144-55.963l167.888-210.753h-583.442c-22.623 0-40.484-17.86-40.484-40.484s17.86-40.484 40.484-40.484h584.633l-169.079-211.944c-14.288-17.86-10.716-42.865 7.144-55.963 17.86-14.288 42.865-10.716 57.153 7.144l220.279 276.242s0 1.191 1.191 1.191c0 1.191 1.191 1.191 1.191 2.381s1.191 1.191 1.191 2.381c0 0 0 1.191 1.191 1.191v1.191c0 1.191 1.191 2.381 1.191 2.381 0 1.191 0 1.191 1.191 2.381 0 1.191 0 2.381 1.191 2.381v10.716z" />
<glyph unicode="&#xe62d;" glyph-name="MySuitcase" d="M926.476 764.952h-243.81v146.286c0 29.257-14.629 48.762-43.886 48.762h-253.562c-29.257 0-43.886-19.505-43.886-48.762v-146.286h-243.81c-58.514 0-97.524-53.638-97.524-112.152v-619.276c0-58.514 39.010-97.524 97.524-97.524h828.952c58.514 0 97.524 39.010 97.524 97.524v619.276c0 58.514-39.010 112.152-97.524 112.152zM390.095 911.238h243.81v-146.286h-243.81v146.286z" />
<glyph unicode="&#xe62e;" glyph-name="MySuitcaseDropDown" horiz-adv-x="1265" d="M638.494-64c505.976 265.035 590.306 518.024 590.306 518.024 60.235 168.659 48.188 349.365-96.376 457.788-156.612 120.471-361.412-12.047-505.976-156.612-132.518 144.565-349.365 277.082-505.976 156.612-144.565-108.424-156.612-289.129-84.329-457.788 0 0 96.376-252.988 602.353-518.024z" />
<glyph unicode="&#xe62f;" glyph-name="MySuitcaseLike" horiz-adv-x="1195" d="M1080.889 789.333h-227.556v113.778c0 34.133-22.756 56.889-56.889 56.889h-398.222c-34.133 0-56.889-22.756-56.889-56.889v-113.778h-227.556c-68.267-5.689-113.778-45.511-113.778-113.778v-625.778c0-62.578 56.889-113.778 113.778-113.778h967.111c51.2 0 113.778 51.2 113.778 113.778v625.778c0 68.267-28.444 113.778-113.778 113.778zM398.222 903.111h398.222v-113.778h-398.222v113.778zM881.778 362.667l-284.444-312.889-284.444 307.2c-51.2 79.644-28.444 170.667 45.511 221.867 73.956 56.889 170.667-5.689 238.933-73.956 68.267 73.956 182.044 136.533 256 73.956 73.956-51.2 68.267-153.6 28.444-216.178z" />
<glyph unicode="&#xe630;" glyph-name="MySuitcases" horiz-adv-x="1122" d="M872.838 667.429h-199.924v97.524c0 24.381-24.381 48.762-48.762 48.762h-292.571c-24.381 0-39.010-24.381-39.010-48.762v-97.524h-199.924c-43.886 0-92.648-34.133-92.648-97.524v-536.381c0-63.39 39.010-97.524 92.648-97.524h780.19c48.762 0 97.524 48.762 102.4 97.524v536.381c0 58.514-39.010 97.524-102.4 97.524zM331.581 764.952h292.571v-97.524h-292.571v97.524zM1019.124 813.714h-195.048v97.524c0 24.381-24.381 48.762-48.762 48.762h-292.571c-24.381 0-43.886-24.381-43.886-48.762v-48.762h43.886v48.762h297.448v-97.524h-48.762v-97.524h141.41c141.41 0 151.162-43.886 151.162-146.286v-487.619c48.762 0 97.524 48.762 97.524 97.524v536.381c0 48.762-53.638 97.524-102.4 97.524zM224.305 764.952c0 43.886 19.505 48.762 19.505 48.762h-73.143c-48.762 0-43.886-48.762-43.886-48.762v-48.762h97.524v48.762z" />
<glyph unicode="&#xe631;" glyph-name="MySuitcaseUndo" horiz-adv-x="1195" d="M1080.889 789.333h-227.556v125.156s0 45.511-56.889 45.511h-341.333c-56.889 0-56.889-45.511-56.889-45.511v-125.156h-284.444c-85.333 0-113.778-34.133-113.778-113.778v-625.778c0-85.333 28.444-113.778 113.778-113.778h967.111c62.578 0 113.778 51.2 113.778 113.778v654.222c0 68.267-51.2 85.333-113.778 85.333zM455.111 903.111h341.333v-113.778h-341.333v113.778zM910.222 334.222h-625.778v113.778h625.778v-113.778z" />
<glyph unicode="&#xe632;" glyph-name="MySuitcaseXLarge" d="M512 960c-282.624 0-512-229.376-512-512s229.376-512 512-512 512 229.376 512 512-229.376 512-512 512zM512-43.52c-271.019 0-491.52 220.501-491.52 491.52s220.501 491.52 491.52 491.52 491.52-220.501 491.52-491.52-220.501-491.52-491.52-491.52zM693.589 611.157h-101.035v50.517c0 13.653-11.605 25.259-25.259 25.259h-151.552c-13.653 0-25.259-11.605-25.259-25.259v-50.517h-101.035c-27.989 0-50.517-22.528-50.517-50.517v-253.269c0-27.989 22.528-50.517 50.517-50.517h404.139c27.989 0 50.517 22.528 50.517 50.517v253.269c0 27.989-22.528 50.517-50.517 50.517zM415.744 661.675h151.552v-50.517h-151.552v50.517zM620.544 445.269c-7.509-56.661-128.341-126.976-128.341-126.976s-123.563 70.997-130.389 128.341c-5.461 47.104 12.971 83.285 55.296 83.285 55.296-0.683 75.093-40.96 75.093-40.96s17.067 40.277 75.093 40.96c42.325 0 60.075-36.864 53.248-84.651z" />
<glyph unicode="&#xe633;" glyph-name="OpenSmall" d="M1024 320v256h-384v384h-256v-384h-384v-256h384v-384h256v384h384z" />
<glyph unicode="&#xe636;" glyph-name="Person" horiz-adv-x="554" d="M274.732 780.176h4.995c59.941 0 104.898 39.961 104.898 89.912s-44.956 89.912-104.898 89.912h-9.99c-59.941 0-104.898-39.961-104.898-89.912 4.995-49.951 49.951-89.912 109.893-89.912zM549.463 415.532l-139.863 319.688c0 4.995-4.995 4.995-4.995 9.99l-4.995 4.995c-4.995 0-9.99 4.995-19.98 4.995h-204.8c-4.995 0-9.99-4.995-14.985-9.99l-4.995-4.995s-4.995-4.995-4.995-9.99l-144.859-324.683c-9.99-19.98 4.995-39.961 24.976-44.956 24.976-4.995 49.951 4.995 54.946 19.98l89.912 189.815-14.985-204.8-84.917-389.62c-4.995-24.976 0-44.956 39.961-49.951s74.927 9.99 79.922 34.966l79.922 349.659 84.917-334.673c4.995-24.976 44.956-39.961 79.922-34.966 39.961 4.995 44.956 24.976 39.961 49.951l-84.917 389.62-14.985 199.805 89.912-189.815c9.99-19.98 34.966-29.971 54.946-19.98 24.976 4.995 34.966 24.976 24.976 44.956z" />
<glyph unicode="&#xe637;" glyph-name="star" horiz-adv-x="1524" d="M761.976 103.725l-335.444-176.55 61.789 370.754-264.824 273.655 370.76 52.965 167.719 335.45 167.725-335.444 370.76-52.965-273.661-264.824 61.801-370.766-326.626 167.725z" />
<glyph unicode="&#xe638;" glyph-name="Picture" horiz-adv-x="1483" d="M1362.979 847.007h-77.683c0 28.248-21.186 42.372-49.434 42.372h-49.434c-28.248 0-49.434-21.186-49.434-42.372h-466.097c-56.497 0-56.497 112.993-98.869 112.993h-275.421c-49.434 0-49.434-112.993-98.869-112.993h-70.621c-70.621 0-127.117-49.434-127.117-112.993v-685.021c0-63.559 56.497-112.993 127.117-112.993h1235.862c70.621 0 120.055 49.434 120.055 112.993v685.021c0 63.559-56.497 112.993-120.055 112.993zM494.345 663.393c0-28.248-21.186-42.372-49.434-42.372h-148.303c-28.248 0-49.434 21.186-49.434 42.372v21.186c0 28.248 21.186 42.372 49.434 42.372h148.303c28.248 7.062 49.434-14.124 49.434-42.372v-21.186zM988.69 48.993c-204.8 0-374.29 155.366-374.29 338.979 0 190.676 169.49 338.979 374.29 338.979s367.228-155.366 367.228-338.979c7.062-183.614-162.428-338.979-367.228-338.979zM988.69 642.207c-148.303 0-275.421-112.993-275.421-247.172 0-141.241 120.055-247.172 275.421-247.172 148.303 0 268.359 112.993 268.359 247.172 7.062 134.179-120.055 247.172-268.359 247.172z" />
<glyph unicode="&#xe639;" glyph-name="RadioTick" d="M508.092 960c-281.405 0-508.092-226.687-508.092-508.092s226.687-508.092 508.092-508.092 508.092 226.687 508.092 508.092-226.687 508.092-508.092 508.092zM390.84 139.237l-257.954 265.771 109.435 109.435 156.336-156.336 351.756 351.756 109.435-109.435-469.008-461.191z" />
<glyph unicode="&#xe63a;" glyph-name="ratings-business" horiz-adv-x="522" d="M253.562 874.667c0-47.128-38.205-85.333-85.333-85.333s-85.333 38.205-85.333 85.333c0 47.128 38.205 85.333 85.333 85.333s85.333-38.205 85.333-85.333zM519.314 350.476l-60.952 131.657c-4.876 12.19-19.505 17.067-31.695 12.19l-78.019-36.571-121.905 263.314c0 0 0 0 0 0s-19.505 43.886-68.267 43.886c-41.448 0-73.143-31.695-73.143-73.143v-268.19c0-21.943 9.752-39.010 21.943-53.638l-104.838-387.657c-4.876-19.505 7.314-39.010 26.819-43.886s39.010 7.314 43.886 26.819l95.086 358.4 95.086-358.4c4.876-19.505 24.381-31.695 43.886-26.819s31.695 24.381 26.819 43.886l-60.952 231.619c4.876 0 9.752 0 14.629 2.438l221.867 102.4c9.752 4.876 14.629 19.505 9.752 31.695zM224.305 401.676c2.438 7.314 4.876 14.629 4.876 21.943v112.152l51.2-107.276-56.076-26.819z" />
<glyph unicode="&#xe63c;" glyph-name="ratings-couples" horiz-adv-x="736" d="M638.781 874.667c0-47.128-38.205-85.333-85.333-85.333s-85.333 38.205-85.333 85.333c0 47.128 38.205 85.333 85.333 85.333s85.333-38.205 85.333-85.333zM663.162 762.514c-7.314 2.438-17.067 2.438-24.381 2.438 0 0-138.971 0-165.79 0-7.314 0-24.381-2.438-29.257-2.438-29.257-9.752-53.638-29.257-63.39-56.076-4.876 7.314-9.752 14.629-14.629 21.943-14.629 19.505-39.010 34.133-65.829 36.571v0c0 0 0 0 0 0s0 0 0 0h-170.667c0 0 0 0 0 0-12.19 0-26.819-4.876-36.571-12.19-12.19-7.314-21.943-14.629-29.257-24.381-9.752-14.629-19.505-29.257-21.943-48.762l-41.448-263.314c-2.438-19.505 9.752-39.010 31.695-41.448 19.505-2.438 39.010 9.752 41.448 31.695l31.695 212.114h19.505l-70.705-463.238h73.143v-182.857c0-19.505 17.067-36.571 36.571-36.571s36.571 17.067 36.571 36.571v182.857h24.381v-182.857c0-19.505 17.067-36.571 36.571-36.571s36.571 17.067 36.571 36.571v182.857h75.581l-70.705 463.238h19.505l31.695-212.114c2.438-24.381 17.067-31.695 41.448-31.695s31.695 19.505 31.695 36.571l17.067 207.238h24.381v-646.095c0-19.505 17.067-36.571 36.571-36.571s36.571 17.067 36.571 36.571v377.905h24.381v-377.905c0-19.505 17.067-36.571 36.571-36.571s36.571 17.067 36.571 36.571v646.095h24.381v-207.238c0-19.505 17.067-36.571 36.571-36.571s36.571 17.067 36.571 36.571v256c0 46.324-31.695 82.895-73.143 95.086zM470.552 764.952c0 0 2.438 0 4.876 0s2.438 0-4.876 0zM299.886 874.667c0-47.128-38.205-85.333-85.333-85.333s-85.333 38.205-85.333 85.333c0 47.128 38.205 85.333 85.333 85.333s85.333-38.205 85.333-85.333z" />
<glyph unicode="&#xe63d;" glyph-name="ratings-family" horiz-adv-x="907" d="M809.448 874.667c0-47.128-38.205-85.333-85.333-85.333s-85.333 38.205-85.333 85.333c0 47.128 38.205 85.333 85.333 85.333s85.333-38.205 85.333-85.333zM833.829 762.514c-7.314 2.438-17.067 2.438-24.381 2.438 0 0-138.971 0-165.79 0-7.314 0-24.381-2.438-29.257-2.438-29.257-9.752-53.638-29.257-63.39-56.076-4.876 7.314-9.752 14.629-14.629 21.943-14.629 19.505-39.010 34.133-65.829 36.571v0c0 0 0 0 0 0s0 0 0 0h-170.667c0 0 0 0 0 0-12.19 0-26.819-4.876-36.571-12.19-12.19-7.314-21.943-14.629-29.257-24.381-9.752-14.629-19.505-29.257-21.943-48.762l-34.133-229.181c0 0 0 0 0 0v-7.314l-4.876-24.381c0 0 0 0 0 0l-14.629-92.648h-104.838c0 0-21.943-7.314-24.381-19.505l-29.257-168.229c-2.438-12.19 7.314-26.819 19.505-29.257 14.629-2.438 26.819 7.314 29.257 21.943l21.943 121.905h7.314v-292.571c0-12.19 12.19-24.381 24.381-24.381s24.381 12.19 24.381 24.381v121.905h24.381v-121.905c0-12.19 12.19-24.381 24.381-24.381s24.381 12.19 24.381 24.381v319.39l14.629 95.086c14.629 2.438 26.819 14.629 29.257 29.257l31.695 212.114h19.505l-70.705-460.8h73.143v-182.857c0-19.505 17.067-36.571 36.571-36.571s36.571 17.067 36.571 36.571v182.857h24.381v-182.857c0-19.505 17.067-36.571 36.571-36.571s36.571 17.067 36.571 36.571v182.857h75.581l-70.705 463.238h19.505l31.695-212.114c2.438-14.629 12.19-31.695 36.571-31.695s36.571 17.067 36.571 36.571l17.067 207.238h24.381v-646.095c0-19.505 17.067-36.571 36.571-36.571s36.571 17.067 36.571 36.571v377.905h24.381v-377.905c0-19.505 17.067-36.571 36.571-36.571s36.571 17.067 36.571 36.571v646.095h24.381v-207.238c0-19.505 17.067-36.571 36.571-36.571s36.571 17.067 36.571 36.571v256c0 46.324-31.695 82.895-73.143 95.086zM641.219 764.952c0 0 2.438 0 4.876 0s2.438 0-4.876 0zM470.552 874.667c0-47.128-38.205-85.333-85.333-85.333s-85.333 38.205-85.333 85.333c0 47.128 38.205 85.333 85.333 85.333s85.333-38.205 85.333-85.333zM151.162 423.619c0-40.396-32.747-73.143-73.143-73.143s-73.143 32.747-73.143 73.143c0 40.396 32.747 73.143 73.143 73.143s73.143-32.747 73.143-73.143z" />
<glyph unicode="&#xe63e;" glyph-name="AirConditioning" horiz-adv-x="1195" d="M1194.667 448l-22.756 39.822h-170.667l62.578 102.4h-91.022l-62.578-102.4h-238.933l34.133 62.578 22.756 39.822 68.267 113.778h119.467l45.511 79.644h-119.467l79.644 136.533-22.756 39.822h-45.511l-85.333-142.222-56.889 108.089-51.2-79.644 62.578-108.089-62.578-113.778-22.756-34.133-39.822-68.267-39.822 68.267-22.756 34.133-62.578 113.778 62.578 108.089-51.2 79.644-56.889-108.089-85.333 142.222h-45.511l-22.756-39.822 79.644-136.533h-119.467l45.511-79.644h119.467l68.267-113.778 22.756-39.822 34.133-62.578h-238.933l-62.578 102.4h-91.022l62.578-102.4h-170.667l-22.756-39.822 22.756-39.822h164.978l-62.578-102.4h91.022l62.578 102.4h250.311l-34.133-68.267-22.756-34.133-62.578-102.4h-125.156l-45.511-79.644h125.156l-85.333-153.6 22.756-34.133h45.511l85.333 142.222 56.889-102.4 45.511 79.644-56.889 102.4 62.578 102.4 22.756 45.511 34.133 56.889 34.133-56.889 22.756-45.511 62.578-102.4-56.889-102.4 45.511-79.644 56.889 102.4 85.333-142.222h45.511l22.756 34.133-85.333 153.6h125.156l-45.511 79.644h-125.156l-62.578 102.4-22.756 34.133-34.133 68.267h250.311l62.578-102.4h91.022l-62.578 102.4h164.978z" />
<glyph unicode="&#xe63f;" glyph-name="FreeWifi" horiz-adv-x="1295" d="M700.284 960h-99.097c-270.865-19.819-455.845-125.523-601.187-270.865l46.245-46.245c6.606-6.606 39.639-46.245 46.245-46.245l26.426 26.426c59.458 52.852 132.129 105.703 204.8 138.735 92.49 39.639 191.587 66.065 323.716 66.065 218.013 0 383.174-79.277 502.090-184.981 13.213-13.213 46.245-46.245 52.852-46.245 0 0 13.213 19.819 19.819 26.426l66.065 66.065c-138.735 145.342-323.716 251.045-587.974 270.865zM184.981 510.761c26.426-33.032 59.458-59.458 92.49-92.49 85.884 85.884 204.8 158.555 376.568 158.555 165.161 0 284.077-72.671 376.568-158.555 26.426 33.032 59.458 59.458 85.884 92.49-112.31 105.703-277.471 204.8-495.484 191.587-198.194-13.213-330.323-92.49-436.026-191.587zM905.084 352.206c-59.458 46.245-138.735 85.884-224.619 92.49-118.916 6.606-204.8-26.426-264.258-79.277-13.213 0-52.852-33.032-52.852-39.639 0 0 19.819-13.213 26.426-19.819l66.065-66.065c39.639 33.032 92.49 72.671 165.161 79.277 92.49 6.606 171.768-33.032 218.013-79.277 19.819 13.213 26.426 26.426 46.245 46.245 6.606 6.606 46.245 39.639 46.245 46.245 0-6.606-19.819 13.213-26.426 19.819zM607.794 140.8c-99.097-33.032-85.884-184.981 26.426-198.194h26.426c59.458 19.819 99.097 52.852 85.884 125.523-6.606 52.852-72.671 92.49-138.735 72.671z" />
<glyph unicode="&#xe640;" glyph-name="Resturaunt" horiz-adv-x="1078" d="M840.758 501.895l231.747 231.747s16.168 26.947 0 48.505c-26.947 26.947-48.505 0-48.505 0l-226.358-220.968-16.168 16.168 226.358 226.358c10.779 10.779 16.168 26.947 0 43.116s-32.337 0-48.505-10.779l-220.968-220.968-21.558 21.558 226.358 226.358c10.779 10.779 10.779 32.337 0 48.505-10.779 10.779-32.337 10.779-48.505 0l-247.916-247.916s-48.505-75.453-32.337-129.347l-59.284-59.284-199.411 204.8-247.916 247.916c-32.337 32.337-53.895 43.116-91.621 16.168-32.337-26.947-16.168-64.674 16.168-107.789l274.863-371.874c26.947-26.947 70.063-32.337 107.789-16.168l59.284-59.284-393.432-355.705c-21.558-21.558-21.558-59.284 0-86.232 21.558-21.558 64.674-21.558 86.232 0l393.432 355.705 371.874-355.705c21.558-21.558 64.674-21.558 86.232 0s21.558 64.674 0 86.232l-371.874 361.095 53.895 53.895c53.895-26.947 91.621 10.779 140.126 53.895z" />
<glyph unicode="&#xe641;" glyph-name="Search" d="M770.438 296.838c43.886 73.143 73.143 151.162 73.143 243.81 0 234.057-190.171 424.229-424.229 424.229-229.181-4.876-419.352-195.048-419.352-429.105s190.171-424.229 424.229-424.229c87.771 0 170.667 29.257 238.933 73.143h4.876l253.562-253.562 107.276 107.276-258.438 258.438zM424.229 267.581c-146.286 0-268.19 121.905-268.19 268.19s121.905 268.19 268.19 268.19 268.19-121.905 268.19-268.19-121.905-268.19-268.19-268.19z" />
<glyph unicode="&#xe642;" glyph-name="Services" d="M904.4 277.4h-806.8s-9.4 394 408.2 398.8c422.4-0.2 398.6-398.8 398.6-398.8zM907 218.8h-814.4c0-92.6-92.6-185.2-92.6-185.2h1024s-117 87.6-117 185.2zM548.4 704.6h-94.8l-95 142.4h284.8z" />
<glyph unicode="&#xe643;" glyph-name="Settings" d="M1024 361.768v172.463h-91.621c-86.232 0-118.568 91.621-64.674 150.905l64.674 64.674-118.568 118.568-64.674-64.674c-59.284-59.284-150.905-10.779-150.905 64.674v91.621h-172.463v-91.621c0-75.453-97.011-118.568-150.905-64.674l-64.674 64.674-118.568-118.568 64.674-64.674c59.284-59.284 16.168-150.905-64.674-150.905h-91.621v-167.074h91.621c86.232 0 129.347-86.232 64.674-150.905l-64.674-64.674 118.568-118.568 64.674 64.674c53.895 53.895 150.905 16.168 150.905-64.674v-97.011h167.074v91.621c0 80.842 86.232 123.958 150.905 64.674l64.674-64.674 118.568 118.568-64.674 64.674c-59.284 59.284-26.947 150.905 64.674 150.905h97.011zM512 243.2c-113.179 0-204.8 91.621-204.8 204.8s91.621 204.8 204.8 204.8c113.179 0 204.8-91.621 204.8-204.8s-91.621-204.8-204.8-204.8z" />
<glyph unicode="&#xe644;" glyph-name="SocialFaceBook" horiz-adv-x="524" d="M339.668-64v469.541h154.849l24.976 179.824h-179.824v114.888c0 54.946 14.985 89.912 89.912 89.912h94.907v164.839c-14.985 0-74.927 4.995-139.863 4.995-134.868 0-229.776-84.917-229.776-239.766v-134.868h-154.849v-179.824h154.849v-469.541h184.82z" />
<glyph unicode="&#xe645;" glyph-name="SocialGooglePlus" horiz-adv-x="999" d="M524.488 375.571l-49.951 34.966c-14.985 9.99-34.966 29.971-34.966 54.946 0 29.971 19.98 49.951 39.961 64.937 54.946 44.956 109.893 89.912 109.893 189.815s-64.937 154.849-94.907 179.824h84.917l89.912 59.941h-264.741c-69.932 0-174.829-14.985-249.756-79.922-59.941-49.951-89.912-119.883-89.912-179.824 0-104.898 79.922-209.795 219.785-209.795 14.985 0 29.971 0 44.956 4.995-4.995-14.985-14.985-29.971-14.985-49.951 0-39.961 19.98-64.937 39.961-89.912-59.941-4.995-174.829-9.99-254.751-59.941-74.927-54.946-99.902-119.883-99.902-169.834 0-99.902 94.907-189.815 289.717-189.815 229.776 0 349.659 124.878 349.659 254.751 0 89.912-54.946 134.868-114.888 184.82zM349.659 530.42c-114.888 0-164.839 149.854-164.839 239.766 0 34.966 4.995 69.932 29.971 99.902 19.98 19.98 59.941 39.961 94.907 39.961 109.893 0 169.834-149.854 169.834-244.761 0-24.976-4.995-64.937-34.966-99.902-24.976-19.98-59.941-34.966-94.907-34.966zM354.654-9.054c-144.859 0-234.771 69.932-234.771 164.839s84.917 124.878 114.888 139.863c54.946 19.98 129.873 19.98 139.863 19.98h29.971c99.902-69.932 144.859-109.893 144.859-174.829 0-84.917-69.932-149.854-194.81-149.854zM864.156 530.42v134.868h-64.937v-134.868h-134.868v-64.937h134.868v-134.868h64.937v134.868h134.868v64.937h-134.868z" />
<glyph unicode="&#xe646;" glyph-name="SocialTwitter" horiz-adv-x="1195" d="M1194.667 840.533c-45.511-22.756-91.022-34.133-142.222-39.822 51.2 34.133 91.022 85.333 108.089 142.222-45.511-28.444-102.4-51.2-153.6-62.578-45.511 45.511-108.089 79.644-182.044 79.644-136.533 0-244.622-113.778-244.622-256 0-22.756 0-39.822 5.689-56.889-204.8 11.378-386.844 113.778-506.311 267.378-17.067-39.822-28.444-85.333-28.444-130.844 0-91.022 45.511-170.667 108.089-216.178-39.822 0-79.644 11.378-113.778 34.133v-5.689c0-125.156 85.333-227.556 199.111-256-22.756 0-39.822-5.689-62.578-5.689-17.067 0-28.444 0-45.511 5.689 28.444-102.4 119.467-176.356 227.556-182.044-85.333-68.267-193.422-108.089-307.2-108.089-17.067 0-39.822 0-56.889 5.689 108.089-73.956 238.933-113.778 375.467-113.778 449.422 0 699.733 392.533 699.733 733.867v34.133c45.511 34.133 85.333 79.644 119.467 130.844z" />
<glyph unicode="&#xe647;" glyph-name="Star" horiz-adv-x="1117" d="M558.517 113.106l-344.321-176.797 65.217 372.448-279.413 260.559 381.72 55.944 176.797 334.74 176.797-335.049 381.72-55.944-279.413-260.559 65.217-372.448-344.321 177.106z" />
<glyph unicode="&#xe648;" glyph-name="Sunnydays" d="M512 721.067c19.505 0 29.257 14.629 29.257 29.257v180.419c0 19.505-14.629 29.257-29.257 29.257-19.505 0-29.257-14.629-29.257-29.257v-175.543c0-19.505 9.752-34.133 29.257-34.133zM512 174.933c-19.505 0-29.257-14.629-29.257-29.257v-175.543c0-19.505 14.629-29.257 29.257-29.257 19.505 0 29.257 14.629 29.257 29.257v175.543c0 14.629-9.752 29.257-29.257 29.257zM994.743 477.257h-175.543c-19.505 0-29.257-14.629-29.257-29.257 0-19.505 14.629-29.257 29.257-29.257h175.543c19.505 0 29.257 14.629 29.257 29.257 0 19.505-14.629 29.257-29.257 29.257zM238.933 448c0 19.505-14.629 29.257-29.257 29.257h-180.419c-14.629 0-29.257-9.752-29.257-29.257s14.629-29.257 29.257-29.257h175.543c19.505 0 34.133 9.752 34.133 29.257zM750.933 252.952c-9.752 9.752-34.133 9.752-43.886 0s-9.752-34.133 0-43.886l121.905-121.905c4.876-4.876 14.629-9.752 19.505-9.752 9.752 0 14.629 4.876 24.381 9.752 9.752 9.752 9.752 34.133 0 43.886l-121.905 121.905zM273.067 643.048c4.876-4.876 14.629-9.752 19.505-9.752 9.752 0 14.629 4.876 24.381 9.752 9.752 9.752 9.752 34.133 0 43.886l-121.905 121.905c-9.752 9.752-34.133 9.752-43.886 0-14.629-9.752-14.629-29.257 0-43.886l121.905-121.905zM273.067 252.952l-121.905-121.905c-9.752-9.752-9.752-34.133 0-43.886 4.876-4.876 14.629-9.752 19.505-9.752 9.752 0 14.629 4.876 19.505 9.752l121.905 126.781c9.752 9.752 9.752 34.133 0 43.886-4.876 9.752-24.381 9.752-39.010-4.876zM726.552 633.295c9.752 0 14.629 4.876 19.505 9.752l126.781 121.905c9.752 9.752 9.752 34.133 0 43.886s-34.133 9.752-43.886 0l-121.905-121.905c-9.752-9.752-9.752-34.133 0-43.886 4.876-9.752 14.629-9.752 19.505-9.752zM512 647.924c-112.152 0-199.924-92.648-199.924-199.924 0-112.152 92.648-199.924 199.924-199.924 112.152 0 199.924 92.648 199.924 199.924 0 112.152-87.771 199.924-199.924 199.924z" />
<glyph unicode="&#xe649;" glyph-name="SwimmingPool" horiz-adv-x="1365" d="M307.2 188.587c81.92-13.653 136.533 34.133 197.973 34.133 68.267 6.827 95.573-34.133 157.013-40.96 75.093-6.827 116.053 34.133 177.493 40.96 68.267 6.827 109.227-34.133 163.84-40.96 27.307 0 47.787 0 81.92 6.827-6.827 20.48-20.48 40.96-27.307 61.44-81.92 157.013-170.667 307.2-238.933 457.387 75.093 13.653 177.493 34.133 252.587 47.787 27.307 6.827 61.44 6.827 81.92 20.48 88.747 40.96 54.613 197.973-54.613 184.32-40.96 0-81.92-20.48-122.88-27.307l-307.2-61.44c-20.48 0-47.787 0-61.44-6.827-34.133-20.48-54.613-54.613-47.787-102.4 0-20.48 20.48-47.787 34.133-68.267 34.133-68.267 75.093-136.533 102.4-197.973-157.013-95.573-320.853-184.32-471.040-273.067 27.307-13.653 47.787-34.133 81.92-34.133zM1146.88 652.8c-27.307-6.827-54.613-13.653-68.267-20.48-40.96-27.307-81.92-88.747-75.093-170.667 20.48-197.973 314.027-197.973 320.853 13.653 13.653 102.4-75.093 184.32-177.493 177.493zM1242.453 99.84c-75.093 20.48-116.053-13.653-170.667-27.307-20.48-6.827-40.96-6.827-61.44-6.827-54.613 6.827-109.227 47.787-177.493 40.96-47.787-6.827-81.92-34.133-136.533-40.96-68.267-6.827-102.4 34.133-163.84 40.96-75.093 6.827-122.88-34.133-177.493-40.96-68.267-6.827-109.227 34.133-163.84 40.96-81.92 6.827-122.88-40.96-191.147-40.96v-129.707c68.267 0 109.227 40.96 170.667 40.96 54.613 0 81.92-27.307 122.88-34.133 88.747-20.48 143.36 34.133 218.453 34.133 47.787 0 88.747-27.307 129.707-34.133 88.747-13.653 136.533 40.96 211.627 34.133 54.613 0 95.573-34.133 143.36-40.96 88.747-6.827 122.88 40.96 197.973 40.96 61.44 0 102.4-40.96 170.667-40.96v129.707c-54.613 0-88.747 27.307-122.88 34.133z" />
<glyph unicode="&#xe64a;" glyph-name="ratings-solo" horiz-adv-x="366" d="M268.19 874.667c0-47.128-38.205-85.333-85.333-85.333s-85.333 38.205-85.333 85.333c0 47.128 38.205 85.333 85.333 85.333s85.333-38.205 85.333-85.333zM292.571 762.514c-7.314 0-17.067 2.438-24.381 2.438 0 0-168.229 0-168.229 0 21.943 0-19.505-2.438-26.819-2.438-41.448-9.752-73.143-48.762-73.143-95.086v-256c0-19.505 17.067-36.571 36.571-36.571s36.571 17.067 36.571 36.571v207.238h24.381v-646.095c0-19.505 17.067-36.571 36.571-36.571s36.571 17.067 36.571 36.571v375.467h24.381v-375.467c0-19.505 17.067-36.571 36.571-36.571s36.571 17.067 36.571 36.571v646.095h24.381v-207.238c0-19.505 17.067-36.571 36.571-36.571s36.571 17.067 36.571 36.571v256c0 46.324-31.695 82.895-73.143 95.086z" />
<glyph unicode="&#xe64b;" glyph-name="TickBoxTick" horiz-adv-x="1281" d="M1144.039 960l-748.798-748.798-263.237 263.623-132.005-137.794 395.242-401.031 886.592 886.206z" />
<glyph unicode="&#xe64c;" glyph-name="eye" d="M512.016 758.224c266.224 0 445.6-310.8 445.6-310.8s-179.376-309.648-445.6-309.648c-266.24 0-445.632 309.648-445.632 309.648s179.392 310.8 445.632 310.8zM512.016 229.184c119.968 0 218.224 98.288 218.224 218.24 0 119.984-98.256 218.24-218.224 218.24-119.984 0-218.256-98.256-218.256-218.24 0-119.952 98.272-218.24 218.256-218.24zM610.288 447.424c0-53.696-45.712-97.12-98.272-97.12-53.696 0-97.136 43.424-97.136 97.12 0 52.544 43.424 98.272 97.136 98.272 52.544-0.016 98.272-45.728 98.272-98.272z" />
<glyph unicode="&#xe64d;" glyph-name="FlightsOutbound" d="M348.16-43.52c5.12 5.12 10.24 15.36 10.24 35.84-5.12 20.48-30.72 168.96-40.96 215.040 61.44 51.2 128 102.4 143.36 117.76l133.12 112.64 76.8-92.16s148.48-261.12 179.2-317.44l15.36 20.48c20.48 25.6 15.36 51.2 15.36 66.56s-81.92 250.88-107.52 327.68c25.6 20.48 51.2 46.080 56.32 51.2 10.24 10.24 15.36 20.48 5.12 30.72l-20.48 20.48c-5.12 5.12-15.36 5.12-30.72-5.12-5.12-5.12-15.36-20.48-30.72-35.84l-25.6 81.92c71.68 66.56 133.12 138.24 174.080 179.2 56.32 56.32 97.28 112.64 107.52 138.24s20.48 35.84 5.12 51.2c-15.36 15.36-25.6 5.12-51.2-5.12s-81.92-51.2-138.24-107.52c-40.96-40.96-112.64-107.52-179.2-174.080l-81.92 25.6c20.48 15.36 30.72 25.6 35.84 30.72 15.36 10.24 15.36 20.48 10.24 25.6l-20.48 20.48c-5.12 5.12-15.36 5.12-30.72-5.12-5.12-5.12-25.6-30.72-51.2-56.32-76.8 25.6-312.32 107.52-327.68 107.52s-40.96 5.12-61.44-10.24l-20.48-15.36c56.32-30.72 317.44-179.2 317.44-179.2l92.16-81.92-112.64-133.12c-15.36-15.36-66.56-76.8-117.76-143.36-46.080 10.24-194.56 35.84-215.040 40.96s-25.6 0-30.72-10.24c-15.36-5.12-30.72-15.36-30.72-15.36 25.6-10.24 174.080-102.4 194.56-117.76-15.36-20.48-20.48-35.84-20.48-40.96 5.12-5.12 15.36 5.12 40.96 20.48 15.36-20.48 107.52-174.080 117.76-194.56 0 0 10.24 15.36 15.36 20.48z" />
<glyph unicode="&#xe64e;" glyph-name="Trains" horiz-adv-x="751" d="M655.36-64h95.573l-170.667 252.587c34.133 6.827 61.44 20.48 81.92 47.787s34.133 54.613 34.133 88.747v498.347c0 34.133-13.653 68.267-40.96 95.573s-54.613 40.96-95.573 40.96h-368.64c-40.96 0-68.267-13.653-95.573-40.96s-40.96-54.613-40.96-95.573v-498.347c0-34.133 13.653-61.44 34.133-88.747s47.787-40.96 81.92-47.787l-170.667-252.587h95.573l13.653 27.307h525.653l20.48-27.307zM600.747 277.333c-13.653-13.653-27.307-20.48-47.787-20.48-13.653 0-34.133 6.827-40.96 20.48-13.653 6.827-20.48 27.307-20.48 40.96 0 20.48 6.827 34.133 20.48 47.787s27.307 20.48 40.96 20.48c20.48 0 34.133-6.827 47.787-20.48s13.653-27.307 13.653-47.787c0-13.653 0-34.133-13.653-40.96zM136.533 809.813c0 20.48 6.827 34.133 20.48 47.787s27.307 20.48 47.787 20.48h348.16c20.48 0 34.133-6.827 47.787-20.48 6.827-13.653 13.653-27.307 13.653-47.787v-157.013c0-20.48-6.827-34.133-20.48-47.787-6.827-6.827-27.307-13.653-40.96-13.653h-354.987c-20.48 0-34.133 6.827-47.787 20.48-6.827 6.827-13.653 20.48-13.653 40.96v157.013zM150.187 277.333c-13.653 6.827-13.653 27.307-13.653 40.96 0 20.48 0 34.133 13.653 47.787s27.307 20.48 47.787 20.48c13.653 0 34.133-6.827 40.96-20.48 13.653-13.653 20.48-27.307 20.48-47.787s-6.827-34.133-20.48-47.787c-13.653-13.653-27.307-20.48-40.96-20.48-20.48 6.827-34.133 13.653-47.787 27.307zM163.84 45.227l40.96 68.267h334.507l40.96-68.267h-416.427z" />
<glyph unicode="&#xe64f;" glyph-name="WebGraphicMySuitcase" horiz-adv-x="1132" d="M1024 744.421h-215.579v161.684s10.779 53.895-53.895 53.895h-377.263l-53.895-53.895v-161.684h-215.579c-64.674 0-107.789-43.116-107.789-107.789v-528.168c0-64.674 43.116-113.179 107.789-113.179l53.895-5.389c0-32.337 21.558-53.895 53.895-53.895s53.895 21.558 53.895 53.895h592.842c0-32.337 21.558-53.895 53.895-53.895s53.895 21.558 53.895 53.895l48.505 5.389c64.674 0 113.179 53.895 113.179 113.179v528.168c0 64.674-43.116 107.789-107.789 107.789zM377.263 906.105h377.263v-161.684h-107.789v53.895h-161.684v-53.895h-107.789v161.684z" />
<glyph unicode="&#xe650;" glyph-name="WebMapPinMedium" horiz-adv-x="633" d="M633.018 650.938c0 169.425-141.498 309.062-316.509 309.062s-316.509-139.636-316.509-309.062c0-63.302 18.618-121.018 52.131-171.287 0 0 242.036-327.68 262.516-517.585v-26.065h1.862v26.065c22.342 189.905 262.516 517.585 262.516 517.585 35.375 48.407 53.993 107.985 53.993 171.287z" />
<glyph unicode="&#xe651;" glyph-name="Wifi" horiz-adv-x="1295" d="M700.284 960h-99.097c-270.865-19.819-455.845-125.523-601.187-270.865l46.245-46.245c6.606-6.606 39.639-46.245 46.245-46.245l26.426 26.426c59.458 52.852 132.129 105.703 204.8 138.735 92.49 39.639 191.587 66.065 323.716 66.065 218.013 0 383.174-79.277 502.090-184.981 13.213-13.213 46.245-46.245 52.852-46.245 0 0 13.213 19.819 19.819 26.426l66.065 66.065c-138.735 145.342-323.716 251.045-587.974 270.865zM184.981 510.761c26.426-33.032 59.458-59.458 92.49-92.49 85.884 85.884 204.8 158.555 376.568 158.555 165.161 0 284.077-72.671 376.568-158.555 26.426 33.032 59.458 59.458 85.884 92.49-112.31 105.703-277.471 204.8-495.484 191.587-198.194-13.213-330.323-92.49-436.026-191.587zM905.084 352.206c-59.458 46.245-138.735 85.884-224.619 92.49-118.916 6.606-204.8-26.426-264.258-79.277-13.213 0-52.852-33.032-52.852-39.639 0 0 19.819-13.213 26.426-19.819l66.065-66.065c39.639 33.032 92.49 72.671 165.161 79.277 92.49 6.606 171.768-33.032 218.013-79.277 19.819 13.213 26.426 26.426 46.245 46.245 6.606 6.606 46.245 39.639 46.245 46.245 0-6.606-19.819 13.213-26.426 19.819zM607.794 140.8c-99.097-33.032-85.884-184.981 26.426-198.194h26.426c59.458 19.819 99.097 52.852 85.884 125.523-6.606 52.852-72.671 92.49-138.735 72.671z" />
<glyph unicode="&#xe652;" glyph-name="ArrowRight" d="M199.92 867.312l92.656 92.656 531.504-512-531.52-512-92.64 92.656 429.12 419.344-429.12 419.344z" />
<glyph unicode="&#xe653;" glyph-name="ArrowLeft" d="M824.080 28.64l-92.656-92.656-531.504 512 531.52 512 92.64-92.656-429.104-419.344 429.104-419.344z" />
<glyph unicode="&#xe654;" glyph-name="ArrowDown" d="M931.344 760.064l92.656-92.656-512-531.504-512 531.52 92.656 92.64 419.344-429.104 419.344 429.104z" />
<glyph unicode="&#xe655;" glyph-name="ArrowUp" d="M92.64 135.92l-92.656 92.656 512 531.504 512-531.52-92.656-92.64-419.344 429.104-419.344-429.104z" />
<glyph unicode="&#xe65b;" glyph-name="TutorialArrow" d="M297.906 675.5c-1.569 0.294-3.173 0.163-4.844-0.125-3.342-0.576-6.92-1.712-10.812-0.969-16.066-11.211-32.315-23.257-48.688-35.594-40.93-30.842-82.547-63.473-123.375-89.25-8.166-5.155-16.283-10.056-24.375-14.594-10.881-6.101-22.375-11.087-32.969-17.094-2.648-1.502-5.236-3.055-7.75-4.719s-4.949-3.419-7.281-5.313c-2.332-1.893-4.553-3.935-6.656-6.125s-4.078-4.541-5.906-7.094c1.157-4.424 3.346-7.613 5.844-10.625s5.304-5.848 7.625-9.562c5.674-9.079 9.394-21.232 15.906-29.625 6.446-8.307 20.225-17.277 30.437-24.406 5.065-3.536 10.323-6.668 15.5-9.688s10.27-5.929 14.938-8.938c21.2-13.668 42.325-29.634 60.062-43.719 9.652-7.664 19.731-15.914 29.813-24.719 5.041-4.402 10.074-8.955 15.062-13.625s9.92-9.448 14.75-14.375c13.095-13.361 27.217-28.616 39.406-45 6.095-8.192 11.724-16.683 16.469-25.344s8.635-17.5 11.281-26.438c2.395-0.652 4.621-0.555 6.688 0.156 4.133 1.423 7.583 5.289 10.375 10.375 4.188 7.629 6.867 18.037 7.937 27.188 0.713 6.1 0.718 11.647 0 15.438-0.382 2.014-1.204 4.497-2.125 6.875s-1.956 4.629-2.781 6.219c-2.582 4.974-5.395 9.793-8.406 14.469-6.022 9.352-12.81 18.158-20.094 26.531-10.925 12.56-22.943 24.183-35 35.344-8.038 7.441-16.092 14.669-23.875 21.844-7.961 7.339-16.020 14.206-24 20.719s-15.869 12.67-23.562 18.594c-7.693 5.924-15.181 11.616-22.281 17.188s-13.83 11.013-20.031 16.469c16.542 3.607 33.323 5.543 50.25 7.094s34.010 2.73 51.187 4.813c16.899 2.051 33.912 4.547 51 7.062s34.238 5.056 51.438 7.156c33.843 4.129 67.778 9.283 101.813 13.781s68.165 8.336 102.469 9.781c25.027 1.055 50.19 2.408 75.406 3.625 50.432 2.433 101.116 4.334 151.625 2.344 12.627-0.498 25.247-1.243 37.844-2.281s25.167-2.378 37.719-4.062c17.408-2.337 34.166-4.753 50.375-9.031s31.882-10.413 47.094-20.125c5.070-3.237 10.088-6.869 15.062-10.969s9.895-8.658 14.781-13.75c6.134 3.050 8.781 15.286 12.094 26.219 1.929 6.362 4.981 12.067 6.688 17.156 1.28 3.817 1.811 7.304 0.562 10.406-0.416 1.034-1.025 2.014-1.875 2.969-11.372 9.472-23.212 17.483-35.406 24.281-4.065 2.266-8.174 4.403-12.312 6.406-16.555 8.015-33.675 13.988-51.062 18.5-8.694 2.256-17.453 4.161-26.25 5.75s-17.638 2.877-26.469 3.938c-17.661 2.121-35.312 3.315-52.688 4.156-70.075 3.394-140.869 1.292-212.062-4.094-17.798-1.346-35.625-2.87-53.469-4.594s-35.714-3.624-53.594-5.656c-35.759-4.065-71.564-8.705-107.406-13.594-35.917-4.898-72.063-8.998-107.562-14.25-26.771-3.955-53.537-8.16-80.25-9.344-8.904-0.395-17.798-0.464-26.688-0.063 15.080 9.082 33.549 22.746 52.812 37.5s39.328 30.6 57.5 44c9.008 6.646 20.884 13.311 29.25 20 2.789 2.23 5.203 4.454 6.969 6.688 1.393 1.763 2.719 5.498 3.781 10.25 2.655 11.879 3.637 30.144-0.312 40.094-0.79 1.99-1.79 3.669-3 4.875-0.745 0.742-1.487 1.281-2.25 1.688s-1.559 0.665-2.344 0.812z" />
<glyph unicode="&#xe65c;" glyph-name="TutorialArrowBent" d="M340.087 516.563c13.58 82.831 57.689 157.598 110.225 227.125 24.486 32.404 63.465 69.446 105.689 94.075 17.306 10.092 31.747 15.094 45.642 20.045-2.087-63.487-12.648-123.765-29.396-181.699 10.309-4.056 28.828-19.594 42.716-12.017 6.909 3.77 10.268 24.083 12.38 31.252 15.853 53.783 21.857 110.284 26.954 166.722 0.979 10.88 1.562 23.081 1.819 34.56 0.26 11.764 1.621 26.008-7.631 35.37-21.119-8.816-40.871-9.142-63.377-11.951-61.228-7.631-123.614-20.588-181.78-18.278-23.367 0.931-47.281 2.707-69.871-1.889-9.586-11.368 2.629-17.438 13.239-22.983 6.839-3.572 13.169-7.983 18.109-8.926 7.155-1.361 16.862 0.056 26.404-0.32 55.577-2.142 127.894 5.648 187.006 15.611-59.86-21.732-108.931-59.148-143.084-98.582-33.372-38.539-63.52-77.008-86.113-122.213-10.385-20.789-18.739-44.876-27.515-67.682-8.702-22.641-13.572-46.313-20.591-69.611-10.551-35.033-101.996-452.71 366.141-556.763h51.044v38.278l-51.044 12.762c0 0-398.372 61.569-326.965 497.112z" />
<glyph unicode="&#xe65d;" glyph-name="SuitcaseShare" d="M362.34 885.69c-10.455 0-20.184-3.189-28.243-8.652-13.43-9.104-22.25-24.536-22.25-42.015v-101.246h-201.948c-6.97 0-13.781-0.7-20.354-2.048-16.433-3.37-31.421-10.738-43.889-21.051-7.481-6.188-14.060-13.431-19.504-21.509-1.815-2.692-3.501-5.478-5.056-8.346s-2.972-5.82-4.249-8.848c-2.555-6.055-4.539-12.413-5.884-19.003-0.673-3.295-1.181-6.665-1.525-10.068s-0.523-6.857-0.523-10.351v-506.254c0-13.982 2.822-27.286 7.932-39.4 1.278-3.029 2.695-5.978 4.249-8.848 3.109-5.739 6.758-11.147 10.874-16.148 2.058-2.501 4.232-4.901 6.516-7.192 4.569-4.581 9.577-8.739 14.949-12.378 2.686-1.82 5.463-3.497 8.325-5.056 5.723-3.117 11.786-5.699 18.109-7.671s12.911-3.34 19.7-4.031c3.394-0.346 6.844-0.523 10.329-0.523h807.793c55.767 0 100.985 45.319 100.985 101.246v506.254c0 55.915-45.218 101.225-100.985 101.225h-201.948v101.246c0 27.967-22.606 50.667-50.493 50.667h-302.911zM362.34 835.023h302.911v-101.246h-302.911v101.246zM672.312 647.806c45.906 0 83.137-36.147 83.137-80.762 0-57.192-59.354-95.792-113.363-75.248-10.326 3.925-21.968 2.819-31.315-3.007l-104.123-64.81c-18.907-11.758-30.448-32.105-30.531-53.914v-0.021c-0.086-21.155 10.98-40.858 29.31-52.258l105.343-65.573c9.329-5.811 21.001-6.924 31.315-3.007 54.075 20.568 113.363-18.135 113.363-75.248 0-44.61-37.231-80.762-83.137-80.762-44.591 0-80.454 33.965-82.963 75.902-0.646 10.761-6.576 20.611-15.908 26.434l-120.968 75.271c-10.797 6.706-24.577 7.099-35.739 0.959-16.913-9.276-36.437-14.601-57.248-14.601-64.412 0-116.632 50.742-116.632 113.341 0 62.578 52.22 113.341 116.632 113.341 20.811 0 40.335-5.325 57.248-14.601 11.17-6.131 24.931-5.746 35.739 0.981l120.968 75.248c9.346 5.826 15.259 15.643 15.908 26.412 2.512 41.916 38.335 75.924 82.963 75.924z" />
<glyph unicode="&#xe65e;" glyph-name="SuitcaseHeart" d="M746.214 411.163c-14.364-101.604-231.841-227.352-231.841-227.352s-223.166 127.311-235.253 230.859c-9.87 84.561 23.91 149.097 99.909 148.994 99.214-0.674 135.345-73.526 135.345-73.526s31.366 72.025 135.352 73.526c76.196-0.158 108.623-66.717 96.489-152.502zM621.56 707.161h-216.982v108.385h216.982v-108.385zM963.725 707.161h-308.783v108.384c0 21.075-10.894 33.35-32.072 33.35h-219.601c-21.179 0-32.073-12.275-32.073-33.35v-108.384h-308.782c-33.404 0-58.418-23.842-58.418-57.077v-516.909c0-33.239 26.486-59.647 59.89-59.647h898.368c33.397 0 59.89 26.408 59.89 59.647v516.909c0 33.235-25.021 57.077-58.418 57.077z" />
<glyph unicode="&#xe65f;" glyph-name="prof" d="M840.48 219.68c127.664-30.016 117.968-98.528 117.968-222.672h-891.76c0 124.144-9.712 192.656 117.968 222.672 125.024 29.312 248.448 55.456 189.12 166.512-175.696 329.168-50.144 515.808 138.8 515.808 185.248 0 314.144-179.76 138.624-515.808-57.568-110.352 61.44-136.656 189.28-166.512z" />
<glyph unicode="&#xe800;" glyph-name="comments" d="M507.424 817.712c-282.448 0-511.424-164.256-511.424-366.912 0-87.6 42.832-168.032 114.256-231.088-44.992-86.944-114.256-135.792-114.256-135.792 108.624-9.472 188.48 24.080 238.656 56.48 78.96-35.744 172.512-56.48 272.768-56.48 282.464 0 511.44 164.272 511.44 366.896 0 202.64-228.976 366.896-511.44 366.896z" />
<glyph unicode="&#xe801;" glyph-name="profile" d="M519.008 864c53.184 0 127.984-50.448 151.52-81.936 19.648-26.272 11.584-91.568 11.584-137.152 0-41.104-14.288-96.336-25.84-130.016-6.544-19.104-17.248-35.328-26.72-50.768-8.128-13.232-15.488-42.176 18.704-97.952 3.424-5.584 74.8-49.904 128.336-71.248 50.384-20.096 87.344-60.352 87.344-110.944 0-62.32 0-136 0-136 0.016 0-679.968 0-680 0 0 0 0 111.152 0 136 0 61.936 56.624 96.384 145.28 140.336 33.472 16.576 74.256 23.008 87.744 57.328 15.376 39.12 15.344 76.576 9.392 88.72-23.76 48.4-46.352 94.704-46.352 176.336 0 52.032 2.464 121.168 13.376 145.152 15.008 33.088 76.48 72.144 125.632 72.144z" />
<glyph unicode="&#xe802;" glyph-name="thumb" d="M839.856 551.776h-275.216c0 0-18.576 30.048-2.736 93.648 15.888 63.632 18.576 157.328 5.312 197.488-13.184 40.080-37.040 113.744-97.952 117.088-35.648-6.88-47.632-43.504-47.632-43.504v-147.264c0 0-113.776-261.008-129.648-264.288-15.92-3.408-119.6-13.456-119.6-13.456v-461.824h58.72c0 0 134.976-83.664 161.424-83.664h333.504c0 0 47.664 13.472 47.664 80.32 0 43.472-29.152 70.336-29.152 70.336s71.488 6.64 71.488 83.584c0 31.648-34.448 60.272-34.448 60.272s66.24 16.784 63.632 86.992c-5.36 43.472-23.92 66.944-23.92 66.944s60.912 13.424 60.912 80.336c0 66.896-42.352 76.992-42.352 76.992z" />
<glyph unicode="&#xe900;" glyph-name="alerts" d="M10.24 431.584c1.504 8.592 3.056 17.712 4.736 26.816 4.512 24.304 9.072 48.592 13.616 72.912 9.424 50.464 22.672 99.744 44.192 146.56 11.616 25.296 28 46.976 48.064 65.984 20.144 19.12 42.8 34.592 68.304 45.744 6.032 2.656 12.32 0.432 14.752-5.088 2.368-5.392 0.016-11.296-5.696-13.84-10.992-4.864-21.504-10.528-31.424-17.232-28.608-19.36-52.72-43.056-69.248-73.664-10.288-19.040-17.776-39.392-24.736-59.872-9.392-27.632-15.984-56.032-21.664-84.624-4.576-22.88-8.88-45.776-13.888-68.592-2.8-12.688-6.72-25.12-10.24-37.648-0.672-2.352-1.68-4.64-2.72-6.848-1.264-2.736-3.552-4.016-6.544-3.84-3.008 0.192-5.184 1.872-6.032 4.672-0.8 2.528-0.976 5.28-1.472 8.56zM997.312 67.072c-0.096 10.768-3.648 20.576-9.376 29.344-8.048 12.304-16.544 24.272-25.232 36.112-16.192 22.096-31.024 45.040-42.336 70.16-12.56 28.032-21.92 57.12-29.456 86.864-3.6 14.192-6.72 28.528-10.096 42.784-1.072 4.768 0.064 7.568 3.824 9.536 4.944 2.544 9.648 2.272 12.336-1.28 1.84-2.448 3.296-5.328 4.128-8.288 4.384-15.424 8.272-30.992 12.8-46.352 11.952-40.528 27.312-79.696 49.872-115.616 11.584-18.432 24.416-36.096 36.736-54.080 7.76-11.296 14.224-23.2 16.832-36.848 4.592-24.048-2.864-43.792-22.176-58.608-16.016-12.336-33.408-22.528-51.52-31.552-5.28-2.608-11.168-1.072-14.144 3.504-2.816 4.32-2.080 10.032 1.824 13.36 1.152 0.992 2.576 1.744 3.936 2.464 15.904 8.048 31.072 17.28 45.552 27.664 10.864 7.776 16.528 18.432 16.496 30.832zM867.344 142.592c-22.368 28.144-40.464 58.848-55.296 91.52-18.48 40.768-31.28 83.36-41.392 126.816-10.256 44.128-17.888 88.736-26.064 133.28-5.52 29.776-11.392 59.504-19.312 88.752-7.504 27.712-16.48 54.896-29.456 80.592-15.408 30.496-35.584 57.152-62.816 78.128-25.52 19.664-54.352 32.32-85.424 40.224-7.376 1.872-14.88 3.328-22.32 4.976-4.944 1.088-6.752 2.96-7.648 8-0.112 0.72-0.288 1.456-0.384 2.192-10.096 58.576-72.032 81.68-117.456 55.792-22.192-12.64-34.352-32.416-38.48-57.36-0.944-5.744-2.672-7.424-8.368-8.704-9.824-2.208-19.712-4.144-29.392-6.88-38.048-10.752-71.584-29.344-99.36-57.776-23.44-23.984-40.208-52.224-52.384-83.28-14.112-35.968-23.472-73.28-30.912-111.056-7.872-40-15.088-80.128-22.8-120.16-6.72-34.848-14.624-69.392-25.056-103.312-12.096-39.344-27.536-77.232-48.288-112.912-10.352-17.792-21.984-34.8-34.8-50.96-6.8-8.56-10.448-18.304-9.888-29.344 0.512-9.808 4.224-18.48 10.176-26.192 7.776-10.080 17.696-17.696 28.736-23.872 19.552-10.944 40.48-18.544 61.936-24.656 39.76-11.328 80.496-17.44 121.36-22.544 19.52-2.464 39.088-4.4 58.688-6.064 21.808-1.76 43.664-2.976 65.504-4.352 7.6-0.464 15.216-0.72 23.024-1.056 0.096-0.608 0.176-0.896 0.224-1.248 1.696-18.64 10.048-33.968 24.384-45.792 20.336-16.768 43.84-22.144 69.6-17.984 17.248 2.816 32.256 10.32 44.544 22.832 10.848 11.040 17.472 24.224 18.944 39.776 0.32 3.328 0.336 3.328 3.808 3.456 1.712 0.032 3.44 0.032 5.152 0.176 22.656 1.568 45.312 2.96 67.952 4.8 16.592 1.36 33.168 2.96 49.648 5.104 21.936 2.848 43.808 6.112 65.616 9.664 26.304 4.336 52.064 10.832 77.408 19.152 25.92 8.48 49.36 21.088 69.552 39.536 8.928 8.144 13.552 18.112 13.216 30.288-0.384 11.616-5.072 21.536-12.176 30.448zM397.12 797.248c0.944 6.096 3.824 11.296 7.92 15.792 18.128 20.032 49.952 22.592 68.688-0.528 4.592-5.648 7.344-12.144 8-19.872-3.28 0.224-6.192 0.432-9.12 0.624-19.584 1.36-39.168 1.28-58.752 0.416-4.256-0.176-8.496-0.672-12.752-0.912-3.728-0.192-4.576 0.736-3.984 4.48zM464.976 222.352h-158.848v54.928c24.976 0 37.968 11.52 37.968 36.992v64.96h-37.456v51.456h37.456v45.456c0 62.928 39.968 100.896 102.416 100.896 56.432 0 99.904-36.464 99.904-94.912h-62.432c0 23.008-12.992 40.976-37.472 40.976-26.992 0-39.472-18.496-39.472-43.968v-48.432h71.44v-51.456h-71.44v-65.488c0-12.976-3.504-30.944-18.496-34.416v-0.992h75.44c27.488 0 37.968 12.976 37.968 39.936h59.44c-0.016-62.464-33.984-95.936-96.416-95.936z" />
<glyph unicode="&#xe901;" glyph-name="bed2" d="M142.4 380.8v361.6h-80v-601.6h80v160h728v-160h80v240h-80zM344 656v-155.2h-161.6v-80h768v158.4zM304 601.6c0-33.579-27.221-60.8-60.8-60.8s-60.8 27.221-60.8 60.8c0 33.579 27.221 60.8 60.8 60.8s60.8-27.221 60.8-60.8z" />
</font>
</defs>
</svg>
