<?xml version="1.0" encoding="utf-8"?>
<!-- Generator: Adobe Illustrator 15.0.0, SVG Export Plug-In . SVG Version: 6.00 Build 0)  -->
<!DOCTYPE svg PUBLIC "-//W3C//DTD SVG 1.1//EN" "http://www.w3.org/Graphics/SVG/1.1/DTD/svg11.dtd">
<svg version="1.1" id="Layer_2" xmlns="http://www.w3.org/2000/svg" xmlns:xlink="http://www.w3.org/1999/xlink" x="0px" y="0px"
	 width="64px" height="64px" viewBox="0 0 64 64" enable-background="new 0 0 64 64" xml:space="preserve">
<g>
	<path d="M57.446,30.145c0,0.53-0.265,0.795-0.795,0.795h-4.506c-0.53,0-0.796-0.53-0.796-0.795v-8.747
		c0-0.53,0.266-0.795,0.796-0.795h4.506c0.53,0,0.795,0.265,0.795,0.795V30.145z M50.024,30.145c0,0.53-0.265,0.795-0.795,0.795
		H39.157c-0.53,0-0.795-0.53-0.795-0.795v-8.747c0-0.53,0.265-0.795,0.795-0.795h10.072c0.53,0,0.795,0.265,0.795,0.795V30.145z
		 M36.771,30.145c0,0.53-0.265,0.795-0.795,0.795H25.903c-0.53,0-0.795-0.53-0.795-0.795v-8.747c0-0.53,0.265-0.795,0.795-0.795
		h10.072c0.53,0,0.795,0.265,0.795,0.795V30.145L36.771,30.145z M22.458,30.145c0,0.53-0.265,0.795-0.795,0.795H12.12
		c-0.53,0-0.795-0.53-0.265-1.325c1.59-1.06,4.241-3.446,5.566-4.506c1.59-1.325,2.651-1.06,2.651-1.06h1.325
		c0.53,0,0.795,0.265,0.795,0.795L22.458,30.145L22.458,30.145z M6.289,36.506c-0.265,0.53-0.53,0.53-1.061,0.53
		c-0.265,0-0.53-0.265-0.53-0.53s0.265-1.59,1.061-2.12c0.53-0.53,0.795-0.53,0.795,0C6.818,34.65,6.554,36.24,6.289,36.506z
		 M59.037,18.747H25.373c-2.916,0-7.687,4.771-7.687,4.771L5.758,33.59c-1.061,0.796-1.59,1.855-1.59,3.446
		c0,2.386,0.795,4.241,2.916,4.241h1.591c0.53-2.121,2.121-3.977,4.241-3.977c2.121,0,3.711,1.591,3.977,3.711h7.156h1.855h14.049
		c0.266-1.855,1.855-3.711,3.977-3.711c2.119,0,3.71,1.591,3.976,3.711h0.53l10.072-0.795c0.796,0.266,1.325-0.265,1.325-0.795
		v-19.88C59.832,19.012,59.567,18.747,59.037,18.747z M43.929,43.662c-1.062,0-1.591-0.795-1.591-1.855
		c0-1.059,0.795-1.854,1.591-1.854c1.06,0,1.59,0.796,1.59,1.854C45.784,42.867,44.988,43.662,43.929,43.662z M43.929,38.361
		c-1.856,0-3.182,1.591-3.182,3.445c0,1.855,1.591,3.447,3.182,3.447c1.855,0,3.181-1.592,3.181-3.447
		C47.374,39.952,45.784,38.361,43.929,38.361z M12.915,43.662c-0.795,0-1.59-0.795-1.59-1.855c0-1.059,0.795-1.854,1.59-1.854
		c1.06,0,1.855,0.796,1.855,1.854C14.771,42.867,13.975,43.662,12.915,43.662z M12.915,38.361c-1.855,0-3.181,1.591-3.181,3.445
		c0,1.855,1.591,3.447,3.181,3.447c1.855,0,3.446-1.592,3.446-3.447C16.361,39.952,14.771,38.361,12.915,38.361z"/>
</g>
</svg>
