<?xml version="1.0" encoding="utf-8"?>
<!-- Generator: Adobe Illustrator 15.0.0, SVG Export Plug-In . SVG Version: 6.00 Build 0)  -->
<!DOCTYPE svg PUBLIC "-//W3C//DTD SVG 1.1//EN" "http://www.w3.org/Graphics/SVG/1.1/DTD/svg11.dtd">
<svg version="1.1" id="Layer_1" xmlns="http://www.w3.org/2000/svg" xmlns:xlink="http://www.w3.org/1999/xlink" x="0px" y="0px"
	 width="43.45px" height="42.988px" viewBox="0 0 43.45 42.988" enable-background="new 0 0 43.45 42.988" xml:space="preserve">
<g>
	<path fill="#F5F5F5" d="M26.954,15.586c-0.586-0.512-1.246-0.941-1.964-1.268c-1.004-0.456-2.119-0.713-3.292-0.713
		c-1.172,0-2.287,0.257-3.291,0.713c-0.717,0.327-1.378,0.756-1.963,1.268c-1.669,1.465-2.726,3.611-2.726,5.999
		c0,4.402,3.58,7.982,7.98,7.982c4.402,0,7.982-3.58,7.982-7.982C29.679,19.198,28.623,17.052,26.954,15.586z M21.724,27.484
		c-3.258,0-5.899-2.641-5.899-5.899c0-3.256,2.641-5.897,5.899-5.897s5.898,2.641,5.898,5.897
		C27.623,24.844,24.982,27.484,21.724,27.484z"/>
	<path fill="#F5F5F5" d="M41.968,15.586H30.141c1.205,1.694,1.917,3.763,1.917,5.999c0,5.722-4.639,10.361-10.361,10.361
		c-5.72,0-10.359-4.639-10.359-10.361c0-2.236,0.711-4.305,1.917-5.999H1.481v18.157c0,4.422,3.586,8.006,8.008,8.006H33.96
		c4.423,0,8.008-3.584,8.008-8.006V15.586z"/>
	<path fill="#F5F5F5" d="M41.968,9.06c0-4.422-3.586-8.007-8.008-8.007H12.078v10.095h-1.641V1.053H9.489
		c-0.063,0-0.124,0.003-0.186,0.004v10.091H7.661V1.265C7.264,1.357,6.877,1.479,6.505,1.628v9.519H4.864V2.525
		C2.818,3.976,1.481,6.36,1.481,9.06v5.259h12.837c1.879-1.907,4.49-3.092,7.379-3.092c2.89,0,5.5,1.185,7.381,3.092h12.889
		L41.968,9.06L41.968,9.06z"/>
</g>
</svg>
