<?xml version="1.0" encoding="utf-8"?>
<!-- Generator: Adobe Illustrator 15.0.0, SVG Export Plug-In . SVG Version: 6.00 Build 0)  -->
<!DOCTYPE svg PUBLIC "-//W3C//DTD SVG 1.1//EN" "http://www.w3.org/Graphics/SVG/1.1/DTD/svg11.dtd">
<svg version="1.1" id="Layer_1" xmlns="http://www.w3.org/2000/svg" xmlns:xlink="http://www.w3.org/1999/xlink" x="0px" y="0px"
	 width="41.241px" height="40.578px" viewBox="0 0 41.241 40.578" enable-background="new 0 0 41.241 40.578" xml:space="preserve">
<rect x="2.448" y="13.664" fill="#F5F5F5" width="7.904" height="25.536"/>
<path fill="#F5F5F5" d="M6.362,10.32c-2.581,0-4.674-2.11-4.674-4.712c0-2.602,2.093-4.712,4.674-4.712
	c2.582,0,4.674,2.11,4.674,4.712C11.036,8.209,8.944,10.32,6.362,10.32"/>
<path fill="#F5F5F5" d="M39.973,39.2h-7.866V25.795c0-3.677-1.396-5.729-4.304-5.729c-3.163,0-4.816,2.138-4.816,5.729V39.2h-7.581
	V13.664h7.581v3.439c0,0,2.28-4.218,7.695-4.218s9.291,3.306,9.291,10.146V39.2z"/>
</svg>
