<?xml version="1.0" encoding="utf-8"?>
<!-- Generator: Adobe Illustrator 18.1.1, SVG Export Plug-In . SVG Version: 6.00 Build 0)  -->
<svg version="1.1" id="Layer_1" xmlns="http://www.w3.org/2000/svg" xmlns:xlink="http://www.w3.org/1999/xlink" x="0px" y="0px"
	 viewBox="0 0 52 49" enable-background="new 0 0 52 49" xml:space="preserve">
<g>
	<path fill="#FFFFFF" d="M33.8,8.1l0-6.3c0-1.1,1.2-1.6,2-0.9l14.9,13.6L35.8,28.5c-0.8,0.7-2,0.2-2-0.9l0-7.4
		c0-0.1-0.1-0.1-0.1-0.1c-18.2-0.9-21.9,6.8-24.2,9.3C12.8,14.6,24.1,8.1,33.6,8.3C33.7,8.3,33.8,8.2,33.8,8.1z"/>
	<g>
		<path fill="#FFFFFF" d="M42.2,28.5l-1.5,1.4c-0.6,0.6-1,1.3-1,2.2v9.2c0,0.8-0.7,1.5-1.5,1.5h-33c-0.8,0-1.5-0.7-1.5-1.5V13.6
			c0-0.8,0.7-1.5,1.5-1.5h7.9c1,0,2-0.3,2.7-0.9l1.9-1.5c0.5-0.4,1.2-1.4-0.4-1.4H2.8C1.3,8.4,0,9.6,0,11.2v32.5
			c0,1.6,1.3,2.8,2.8,2.8h37.9c1.6,0,2.8-1.3,2.8-2.8V29.4C43.5,27.8,42.8,27.9,42.2,28.5z"/>
	</g>
</g>
</svg>
