<?xml version="1.0" encoding="utf-8"?>
<!-- Generator: Adobe Illustrator 15.0.0, SVG Export Plug-In . SVG Version: 6.00 Build 0)  -->
<!DOCTYPE svg PUBLIC "-//W3C//DTD SVG 1.1//EN" "http://www.w3.org/Graphics/SVG/1.1/DTD/svg11.dtd">
<svg version="1.1" id="Layer_1" xmlns="http://www.w3.org/2000/svg" xmlns:xlink="http://www.w3.org/1999/xlink" x="0px" y="0px"
	 width="37.225px" height="47.406px" viewBox="0 0 37.225 47.406" enable-background="new 0 0 37.225 47.406" xml:space="preserve">
<path fill="#F5F5F5" d="M22.152,34.014c-2.813,0-5.459-1.521-6.364-3.247c0,0-1.514,6.003-1.833,7.161
	c-1.128,4.094-4.446,8.191-4.704,8.525c-0.18,0.234-0.576,0.162-0.619-0.148c-0.071-0.521-0.918-5.688,0.079-9.9
	c0.499-2.117,3.351-14.198,3.351-14.198s-0.831-1.664-0.831-4.123c0-3.861,2.238-6.744,5.025-6.744c2.369,0,3.514,1.779,3.514,3.912
	c0,2.382-1.517,5.945-2.301,9.245c-0.653,2.765,1.387,5.019,4.112,5.019c4.936,0,8.261-6.341,8.261-13.853
	c0-5.71-3.845-9.985-10.841-9.985c-7.901,0-12.828,5.895-12.828,12.479c0,2.269,0.671,3.872,1.72,5.11
	c0.481,0.569,0.55,0.798,0.375,1.452C8.14,25.2,7.855,26.353,7.735,26.81c-0.173,0.66-0.708,0.896-1.305,0.651
	c-3.639-1.485-5.335-5.471-5.335-9.953c0-7.401,6.242-16.276,18.62-16.276c9.949,0,16.495,7.197,16.495,14.926
	C36.21,26.378,30.528,34.014,22.152,34.014"/>
</svg>
