<?xml version="1.0" encoding="utf-8"?>
<!-- Generator: Adobe Illustrator 15.0.0, SVG Export Plug-In . SVG Version: 6.00 Build 0)  -->
<!DOCTYPE svg PUBLIC "-//W3C//DTD SVG 1.1//EN" "http://www.w3.org/Graphics/SVG/1.1/DTD/svg11.dtd">
<svg version="1.1" id="Layer_1" xmlns="http://www.w3.org/2000/svg" xmlns:xlink="http://www.w3.org/1999/xlink" x="0px" y="0px"
	 width="43.45px" height="35.357px" viewBox="0 0 43.45 35.357" enable-background="new 0 0 43.45 35.357" xml:space="preserve">
<path fill="#F5F5F5" d="M37.484,9.237c0.526,11.744-8.229,24.838-23.733,24.838c-4.715,0-9.104-1.383-12.799-3.752
	c4.429,0.521,8.851-0.706,12.361-3.458c-3.653-0.067-6.737-2.481-7.799-5.798c1.308,0.25,2.595,0.177,3.77-0.143
	c-4.016-0.808-6.787-4.424-6.697-8.292c1.126,0.625,2.414,1.001,3.783,1.043C2.651,11.191,1.598,6.281,3.786,2.528
	c4.117,5.052,10.269,8.376,17.209,8.725C19.778,6.029,23.74,1,29.129,1c2.401,0,4.571,1.013,6.094,2.636
	c1.902-0.374,3.689-1.069,5.302-2.026c-0.623,1.95-1.947,3.587-3.671,4.619c1.689-0.201,3.298-0.65,4.796-1.314
	C40.531,6.59,39.115,8.06,37.484,9.237"/>
</svg>
