<?xml version="1.0" encoding="utf-8"?>
<!-- Generator: Adobe Illustrator 18.1.1, SVG Export Plug-In . SVG Version: 6.00 Build 0)  -->
<svg version="1.1" id="Layer_1" xmlns="http://www.w3.org/2000/svg" xmlns:xlink="http://www.w3.org/1999/xlink" x="0px" y="0px"
	 viewBox="0 0 1070 600" enable-background="new 0 0 1070 600" xml:space="preserve">
<g>
	<g>
		<g>
			
				<path fill="#000030" stroke="#FFFFFF" stroke-width="5" stroke-linecap="round" stroke-linejoin="round" stroke-miterlimit="10" d="
				M987.6,4.2H83c-9.9,0-17.9,8-17.9,17.9v524.8h940.4V22.1C1005.5,12.2,997.5,4.2,987.6,4.2z M968.6,514.4H104.8V36.8h12.4h851.4
				V514.4z"/>
			
				<path fill="#000030" stroke="#FFFFFF" stroke-width="5" stroke-linecap="round" stroke-linejoin="round" stroke-miterlimit="10" d="
				M71,14.8"/>
		</g>
	</g>
	
		<path fill="#000030" stroke="#FFFFFF" stroke-width="5" stroke-linecap="round" stroke-linejoin="round" stroke-miterlimit="10" d="
		M1012.4,595.6H54.4c-26.9,0-48.7-21.8-48.7-48.7v0h1055.4v0C1061.1,573.8,1039.3,595.6,1012.4,595.6z"/>
	
		<path fill="#000030" stroke="#FFFFFF" stroke-width="5" stroke-linecap="round" stroke-linejoin="round" stroke-miterlimit="10" d="
		M566.5,571.3h-86.8c-13.7,0-24.8-11.1-24.8-24.8l0,0h136.5l0,0C591.3,560.1,580.2,571.3,566.5,571.3z"/>
</g>
</svg>
