<?xml version="1.0" encoding="UTF-8" standalone="no"?>
<svg width="16px" height="12px" viewBox="0 0 16 12" version="1.1" xmlns="http://www.w3.org/2000/svg" xmlns:xlink="http://www.w3.org/1999/xlink">
    <!-- Generator: Sketch 40.2 (33826) - http://www.bohemiancoding.com/sketch -->
    <title>list copy 4</title>
    <desc>Created with Sketch.</desc>
    <defs></defs>
    <g id="Update" stroke="none" stroke-width="1" fill="none" fill-rule="evenodd">
        <g id="Artboard-Copy-2" transform="translate(-4.000000, -7.000000)" fill="#EE6000">
            <path d="M5.37931034,7 C4.62068966,7 4,7.54379795 4,8.2084399 C4,8.87308184 4.62068966,9.4168798 5.37931034,9.4168798 C6.13793103,9.4168798 6.75862069,8.87308184 6.75862069,8.2084399 C6.75862069,7.54379795 6.13793103,7 5.37931034,7 L5.37931034,7 Z M9.5,9.4168798 L19.2413793,9.4168798 C19.6034483,9.4168798 19.9137931,9.20540281 19.9482759,8.91839834 C20.0172414,8.28396739 20.0172414,8.1329124 19.9482759,7.49848146 C19.9137931,7.21147698 19.6034483,7 19.2413793,7 L9.5,7 C9.20689655,7 8.96551724,7.22658248 8.96551724,7.49848146 L8.96551724,8.91839834 C8.96551724,9.22050831 9.24137931,9.4168798 9.5,9.4168798 L9.5,9.4168798 Z M5.37931034,13.7672634 C6.13793103,13.7672634 6.75862069,13.2234655 6.75862069,12.5588235 C6.75862069,11.8941816 6.13793103,11.3503836 5.37931034,11.3503836 C4.62068966,11.3503836 4,11.8941816 4,12.5588235 C4,13.2234655 4.62068966,13.7672634 5.37931034,13.7672634 L5.37931034,13.7672634 Z M19.2413793,13.7672634 C19.6034483,13.7672634 19.9137931,13.5557864 19.9482759,13.268782 C20.0172414,12.634351 20.0172414,12.483296 19.9482759,11.8488651 C19.9137931,11.5618606 19.6034483,11.3503836 19.2413793,11.3503836 L9.5,11.3503836 C9.20689655,11.3503836 8.96551724,11.5769661 8.96551724,11.8488651 L8.96551724,13.268782 C8.96551724,13.5708919 9.24137931,13.7672634 9.5,13.7672634 L19.2413793,13.7672634 Z M5.37931034,18.1176471 C6.13793103,18.1176471 6.75862069,17.5738491 6.75862069,16.9092072 C6.75862069,16.2445652 6.13793103,15.7007673 5.37931034,15.7007673 C4.62068966,15.7007673 4,16.2445652 4,16.9092072 C4,17.5738491 4.62068966,18.1176471 5.37931034,18.1176471 L5.37931034,18.1176471 Z M19.2413793,18.1176471 C19.6034483,18.1176471 19.9137931,17.9061701 19.9482759,17.6191656 C20.0172414,16.9847347 20.0172414,16.8336797 19.9482759,16.1992487 C19.9137931,15.9122442 19.6034483,15.7007673 19.2413793,15.7007673 L9.5,15.7007673 C9.20689655,15.7007673 8.96551724,15.9273497 8.96551724,16.1992487 L8.96551724,17.6191656 C8.96551724,17.9212756 9.24137931,18.1176471 9.5,18.1176471 L19.2413793,18.1176471 Z" id="list-copy-4"></path>
        </g>
    </g>
</svg>