<?xml version="1.0" encoding="UTF-8" standalone="no"?>
<svg width="23px" height="16px" viewBox="0 0 23 16" version="1.1" xmlns="http://www.w3.org/2000/svg" xmlns:xlink="http://www.w3.org/1999/xlink">
    <!-- Generator: Sketch 39.1 (31720) - http://www.bohemiancoding.com/sketch -->
    <title>Photos Copy 2</title>
    <desc>Created with Sketch.</desc>
    <defs></defs>
    <g id="Page-1" stroke="none" stroke-width="1" fill="none" fill-rule="evenodd">
        <g id="iPhone-SE-Copy-31" transform="translate(-56.000000, -1124.000000)" fill="#FFFFFF">
            <g id="photo-overlay-copy" transform="translate(43.000000, 1111.000000)">
                <path d="M34.08295,14.7777778 L32.93295,14.7777778 C32.93295,14.3851923 32.589675,14.0663238 32.166475,14.0663238 L31.399425,14.0663238 C30.976225,14.0663238 30.63295,14.3851923 30.63295,14.7777778 L23.35,14.7777778 C22.58295,14.7777778 22.58295,13 21.816475,13 L17.6,13 C16.83295,13 16.83295,14.7777778 16.066475,14.7777778 L14.916475,14.7777778 C13.8579,14.7777778 13,15.5738062 13,16.5555556 L13,27.2222222 C13,28.2039716 13.8579,29 14.916475,29 L34.08295,29 C35.141525,29 36,28.2034001 36,27.2222222 L36,16.5555556 C36,15.5738062 35.141525,14.7777778 34.08295,14.7777778 L34.08295,14.7777778 Z M20.666475,17.6218794 C20.666475,18.0144648 20.3232,18.3333333 19.9,18.3333333 L17.6,18.3333333 C17.176225,18.3333333 16.83295,18.0144648 16.83295,17.6218794 L16.83295,17.2664381 C16.83295,16.8738526 17.176225,16.5555556 17.6,16.5555556 L19.9,16.5555556 C20.3232,16.5555556 20.666475,16.8738526 20.666475,17.2664381 L20.666475,17.6218794 L20.666475,17.6218794 Z M28.333525,27.2227937 C25.1578,27.2227937 22.58295,24.8341369 22.58295,21.8888889 C22.58295,18.9436408 25.158375,16.5555556 28.333525,16.5555556 C31.5081,16.5555556 34.083525,18.9436408 34.083525,21.8888889 C34.083525,24.8341369 31.508675,27.2227937 28.333525,27.2227937 L28.333525,27.2227937 Z M28.333525,17.9778921 C26.004775,17.9778921 24.116475,19.7288117 24.116475,21.8888889 C24.116475,24.0483946 26.004775,25.7998857 28.333525,25.7998857 C30.6617,25.7998857 32.55,24.0483946 32.55,21.8888889 C32.55,19.7288117 30.6617,17.9778921 28.333525,17.9778921" id="Photos-Copy-2"></path>
            </g>
        </g>
    </g>
</svg>