<?xml version="1.0" encoding="UTF-8" standalone="no"?>
<svg width="25px" height="19px" viewBox="0 0 25 19" version="1.1" xmlns="http://www.w3.org/2000/svg" xmlns:xlink="http://www.w3.org/1999/xlink">
    <!-- Generator: Sketch 40.2 (33826) - http://www.bohemiancoding.com/sketch -->
    <title>email copy 27</title>
    <desc>Created with Sketch.</desc>
    <defs>
        <path d="M12.9824219,14.8147304 L21.2578125,6 L3.72363281,6 L12.0083008,14.8147304 C12.2773438,15.1009871 12.7133789,15.1009871 12.9824219,14.8147304 L12.9824219,14.8147304 Z M3.10205078,6.33561124 C3.03710938,6.45406226 3,6.58238421 3,6.72057707 L3,18.2794229 C3,18.4176158 3.03710938,18.5459377 3.10205078,18.6643888 L8.89111328,12.4950645 L3.10205078,6.33561124 Z M21.8886719,6.33561124 L16.0996094,12.4950645 L21.8886719,18.6643888 C21.9628906,18.5558087 22,18.4176158 22,18.2794229 L22,6.72057707 C22,6.58238421 21.9628906,6.44419134 21.8886719,6.33561124 L21.8886719,6.33561124 Z M13.4370117,15.3181473 C12.9174805,15.8807897 12.0732422,15.8807897 11.5444336,15.3181473 L9.36425781,12.9984814 L3.72363281,19 L21.2578125,19 L15.6264648,12.9984814 L13.4370117,15.3181473 Z" id="path-1"></path>
        <filter x="-50%" y="-50%" width="200%" height="200%" filterUnits="objectBoundingBox" id="filter-2">
            <feOffset dx="0" dy="1" in="SourceAlpha" result="shadowOffsetOuter1"></feOffset>
            <feGaussianBlur stdDeviation="1.5" in="shadowOffsetOuter1" result="shadowBlurOuter1"></feGaussianBlur>
            <feColorMatrix values="0 0 0 0 0   0 0 0 0 0   0 0 0 0 0  0 0 0 0.5 0" type="matrix" in="shadowBlurOuter1"></feColorMatrix>
        </filter>
    </defs>
    <g id="Update" stroke="none" stroke-width="1" fill="none" fill-rule="evenodd" opacity="0.904384328">
        <g id="Artboard" transform="translate(0.000000, -4.000000)">
            <g id="email-copy-27">
                <use fill="black" fill-opacity="1" filter="url(#filter-2)" xlink:href="#path-1"></use>
                <use fill="#FFFFFF" fill-rule="evenodd" xlink:href="#path-1"></use>
            </g>
        </g>
    </g>
</svg>