<svg id="Layer_1" data-name="Layer 1" xmlns="http://www.w3.org/2000/svg" xmlns:xlink="http://www.w3.org/1999/xlink" viewBox="0 0 30 30"><defs><style>.cls-1{fill:none;}.cls-1,.cls-2{clip-rule:evenodd;}.cls-2,.cls-5,.cls-7{fill:#fff;}.cls-3{clip-path:url(#clip-path);}.cls-4{clip-path:url(#clip-path-2);}.cls-5{fill-rule:evenodd;}.cls-6{clip-path:url(#clip-path-3);}</style><clipPath id="clip-path"><path class="cls-1" d="M64,65.5a1.47,1.47,0,0,1-2.09,0l-2.41-2.41L53.3,69.32H72.68l-6.22-6.23Zm9.34-9.33L67,62.56,73.38,69a.68.68,0,0,0,.12-.4v-12A.68.68,0,0,0,73.38,56.17Zm-20.76,0a.78.78,0,0,0-.11.4v12a.78.78,0,0,0,.11.4L59,62.56ZM63.53,65l9.15-9.16H53.3L62.46,65A.76.76,0,0,0,63.53,65Z"/></clipPath><clipPath id="clip-path-2"><path class="cls-1" d="M-95.17,57A4.07,4.07,0,0,0-99.38,61a4.07,4.07,0,0,0,4.22,3.91A4.07,4.07,0,0,0-91,61,4.07,4.07,0,0,0-95.17,57m0,9.24A5.55,5.55,0,0,1-100.92,61a5.55,5.55,0,0,1,5.75-5.33A5.55,5.55,0,0,1-89.42,61,5.55,5.55,0,0,1-95.17,66.29Zm-7.67-9.6a.74.74,0,0,1-.77.71h-2.3a.74.74,0,0,1-.77-.71v-.36a.74.74,0,0,1,.77-.71h2.3a.74.74,0,0,1,.77.71Zm13.42-2.84h-1.15a.74.74,0,0,0-.77-.71h-.77a.74.74,0,0,0-.77.71h-7.28c-.77,0-.77-1.78-1.53-1.78h-4.22c-.77,0-.77,1.78-1.53,1.78h-1.15a1.85,1.85,0,0,0-1.92,1.78V66.29a1.85,1.85,0,0,0,1.92,1.78h19.17a1.85,1.85,0,0,0,1.92-1.78V55.62A1.85,1.85,0,0,0-89.42,53.84Z"/></clipPath><clipPath id="clip-path-3"><path class="cls-2" d="M102,55.57c-.33.34-.61.64-.91,1l-.05,0-.05,0c-.3-.36-.59-.66-.91-1a4.9,4.9,0,0,0-7.07,0,5.21,5.21,0,0,0-1.46,3.64,5.58,5.58,0,0,0,.57,2.38c1.28,2.71,5.49,6.78,8.08,8.89l.85.68.85-.68c2.59-2.12,6.8-6.18,8.08-8.89a5.56,5.56,0,0,0,.57-2.38A5.21,5.21,0,0,0,109,55.57a4.9,4.9,0,0,0-7.07,0Z"/></clipPath></defs><path class="cls-5" d="M102,55.57c-.33.34-.61.64-.91,1l-.05,0-.05,0c-.3-.36-.59-.66-.91-1a4.9,4.9,0,0,0-7.07,0,5.21,5.21,0,0,0-1.46,3.64,5.58,5.58,0,0,0,.57,2.38c1.28,2.71,5.49,6.78,8.08,8.89l.85.68.85-.68c2.59-2.12,6.8-6.18,8.08-8.89a5.56,5.56,0,0,0,.57-2.38A5.21,5.21,0,0,0,109,55.57a4.9,4.9,0,0,0-7.07,0Z"/><g class="cls-6"></g></svg>