<?xml version="1.0" encoding="UTF-8" standalone="no"?>
<svg width="23px" height="23px" viewBox="0 0 23 23" version="1.1" xmlns="http://www.w3.org/2000/svg" xmlns:xlink="http://www.w3.org/1999/xlink">
    <!-- Generator: Sketch 40.2 (33826) - http://www.bohemiancoding.com/sketch -->
    <title>Romantic Break Purple 18px Copy 27</title>
    <desc>Created with Sketch.</desc>
    <defs>
        <path d="M13.36275,5.49883333 C13.0695,5.83505556 12.8179,6.13916667 12.5459,6.49333333 C12.534,6.50844444 12.517,6.516 12.5,6.516 C12.483,6.516 12.466,6.50844444 12.4541,6.49333333 C12.1821,6.13916667 11.9305,5.83505556 11.63725,5.49883333 C10.8272,4.57233333 9.70945,4 8.47355,4 C7.2385,4 6.1199,4.57233333 5.3107,5.49883333 C4.50065,6.42438889 4,7.70411111 4,9.117 C4,9.97266667 4.20315,10.7678889 4.5083,11.4875556 C5.6524,14.1858333 9.423,18.2242778 11.7367,20.3285 C12.01295,20.5806667 12.2722,20.8092222 12.5,21 C12.7278,20.8092222 12.98705,20.5806667 13.26415,20.3285 C15.57785,18.2242778 19.3476,14.1858333 20.4917,11.4875556 C20.7977,10.7678889 21,9.97266667 21,9.117 C21,7.70411111 20.49935,6.42438889 19.69015,5.49883333 C18.8801,4.57233333 17.7615,4 16.52645,4 C15.2914,4 14.1728,4.57233333 13.36275,5.49883333 Z" id="path-1"></path>
        <filter x="-50%" y="-50%" width="200%" height="200%" filterUnits="objectBoundingBox" id="filter-2">
            <feOffset dx="0" dy="0" in="SourceAlpha" result="shadowOffsetOuter1"></feOffset>
            <feGaussianBlur stdDeviation="1.5" in="shadowOffsetOuter1" result="shadowBlurOuter1"></feGaussianBlur>
            <feColorMatrix values="0 0 0 0 0   0 0 0 0 0   0 0 0 0 0  0 0 0 0.5 0" type="matrix" in="shadowBlurOuter1"></feColorMatrix>
        </filter>
    </defs>
    <g id="Update" stroke="none" stroke-width="1" fill="none" fill-rule="evenodd" opacity="0.904384328">
        <g id="Artboard-Copy" transform="translate(-1.000000, -1.000000)">
            <g id="Romantic-Break-Purple-18px-Copy-27">
                <use fill="black" fill-opacity="1" filter="url(#filter-2)" xlink:href="#path-1"></use>
                <use fill="#FFFFFF" fill-rule="evenodd" xlink:href="#path-1"></use>
            </g>
        </g>
    </g>
</svg>