<?xml version="1.0" encoding="UTF-8" standalone="no"?>
<svg width="8px" height="13px" viewBox="0 0 8 13" version="1.1" xmlns="http://www.w3.org/2000/svg" xmlns:xlink="http://www.w3.org/1999/xlink">
    <!-- Generator: Sketch 40.2 (33826) - http://www.bohemiancoding.com/sketch -->
    <title>Imported Layers Copy 10</title>
    <desc>Created with Sketch.</desc>
    <defs></defs>
    <g id="Update" stroke="none" stroke-width="1" fill="none" fill-rule="evenodd" opacity="0.400000006">
        <g id="Artboard-Copy-3" transform="translate(-9.000000, -6.000000)" fill="#322C44">
            <path d="M13,6 C10.79072,6 9,7.79104 9,10 C9,13.81904 13,18.8 13,18.8 C13,18.8 17,13.81904 17,10 C17,7.79104 15.20912,6 13,6 L13,6 Z M13,12.4 C11.7374392,12.4 10.7142857,11.3580714 10.7142857,10.0727273 C10.7142857,8.78738316 11.7374392,7.74545455 13,7.74545455 C14.2623915,7.74545455 15.2857143,8.78738316 15.2857143,10.0727273 C15.2857143,11.3580714 14.2623915,12.4 13,12.4 L13,12.4 Z" id="Imported-Layers-Copy-10"></path>
        </g>
    </g>
</svg>